SplineFontDB: 3.2
FontName: Quicksand-Regular
FullName: Quicksand Regular
FamilyName: Quicksand
Weight: Book
Copyright: Copyright 2011 The Quicksand Project Authors (https://github.com/andrew-paglinawan/QuicksandFamily), with Reserved Font Name "Quicksand".
Version: 3.000
ItalicAngle: 0
UnderlinePosition: -100
UnderlineWidth: 50
Ascent: 800
Descent: 200
InvalidEm: 0
sfntRevision: 0x00030000
LayerCount: 2
Layer: 0 1 "Back" 1
Layer: 1 1 "Fore" 0
XUID: [1021 933 835020959 19558]
StyleMap: 0x0040
FSType: 0
OS2Version: 4
OS2_WeightWidthSlopeOnly: 0
OS2_UseTypoMetrics: 1
CreationTime: 1318445840
ModificationTime: 1772915734
PfmFamily: 81
TTFWeight: 400
TTFWidth: 5
LineGap: 0
VLineGap: 0
Panose: 0 0 5 0 0 0 0 0 0 0
OS2TypoAscent: 1000
OS2TypoAOffset: 0
OS2TypoDescent: -250
OS2TypoDOffset: 0
OS2TypoLinegap: 0
OS2WinAscent: 1183
OS2WinAOffset: 0
OS2WinDescent: 303
OS2WinDOffset: 0
HheadAscent: 1000
HheadAOffset: 0
HheadDescent: -250
HheadDOffset: 0
OS2SubXSize: 650
OS2SubYSize: 600
OS2SubXOff: 0
OS2SubYOff: 75
OS2SupXSize: 650
OS2SupYSize: 600
OS2SupXOff: 0
OS2SupYOff: 350
OS2StrikeYSize: 50
OS2StrikeYPos: 303
OS2CapHeight: 700
OS2XHeight: 506
OS2Vendor: 'PfEd'
OS2CodePages: 20000193.00000000
OS2UnicodeRanges: 2000000f.00000001.00000000.00000000
Lookup: 6 0 0 "'locl' Localized Forms in Latin lookup 0" { "'locl' Localized Forms in Latin lookup 0 contextual 0"  "'locl' Localized Forms in Latin lookup 0 contextual 1"  } ['locl' ('latn' <'CAT ' > ) ]
Lookup: 1 0 0 "'locl' Localized Forms in Latin lookup 1" { "'locl' Localized Forms in Latin lookup 1 subtable"  } ['locl' ('latn' <'ROM ' > ) ]
Lookup: 1 0 0 "'locl' Localized Forms in Latin lookup 2" { "'locl' Localized Forms in Latin lookup 2 subtable"  } ['locl' ('latn' <'MOL ' > ) ]
Lookup: 1 0 0 "'locl' Localized Forms in Latin lookup 3" { "'locl' Localized Forms in Latin lookup 3 subtable"  } ['locl' ('latn' <'KAZ ' > ) ]

StartChar: .notdef
Encoding: 65536 -1 0
Width: 584
Flags: W
LayerCount: 2
Fore
SplineSet
75 700 m 2,1,-1
 509 700 l 2,2,3
 544 700 544 700 544 665 c 2,4,-1
 544 35 l 2,5,6
 544 0 544 0 509 0 c 2,7,-1
 75 0 l 2,8,9
 40 0 40 0 40 35 c 2,10,-1
 40 665 l 2,11,0
 40 700 40 700 75 700 c 2,1,-1
91 668 m 128,-1,13
 90 666 90 666 92 664 c 2,14,-1
 508 65 l 2,15,16
 510 62 510 62 512 62.5 c 128,-1,17
 514 63 514 63 514 67 c 2,18,-1
 514 665 l 2,19,20
 514 670 514 670 509 670 c 2,21,-1
 95 670 l 2,22,12
 92 670 92 670 91 668 c 128,-1,13
75 30 m 2,24,-1
 488 30 l 2,25,26
 491 30 491 30 492 32 c 128,-1,27
 493 34 493 34 491 36 c 2,28,-1
 76 635 l 2,29,30
 74 638 74 638 72 637.5 c 128,-1,31
 70 637 70 637 70 633 c 2,32,-1
 70 35 l 2,33,23
 70 30 70 30 75 30 c 2,24,-1
EndSplineSet
Validated: 1
EndChar

StartChar: A
Encoding: 65 65 4
Width: 647
GlyphClass: 2
Flags: W
AnchorPoint: "Anchor-8" 0 0 basechar 0
AnchorPoint: "Anchor-7" 0 0 basechar 0
AnchorPoint: "Anchor-6" 324 700 basechar 0
AnchorPoint: "Anchor-5" 583 10 basechar 0
AnchorPoint: "Anchor-4" 324 0 basechar 0
LayerCount: 2
Fore
SplineSet
618 28 m 0,1,2
 618 15 618 15 609 7 c 128,-1,3
 600 -1 600 -1 588 -1 c 0,4,5
 578 -1 578 -1 570.5 4.5 c 128,-1,6
 563 10 563 10 559 19 c 2,7,-1
 484 202 l 1,8,-1
 159 202 l 1,9,-1
 85 19 l 2,10,11
 77 -1 77 -1 58 -1 c 0,12,13
 44 -1 44 -1 37 6 c 128,-1,14
 30 13 30 13 29 25 c 2,15,-1
 29 28 l 2,16,17
 29 34 29 34 30 37 c 2,18,-1
 294 683 l 2,19,20
 302 703 302 703 324 703 c 0,21,22
 334 703 334 703 341.5 697.5 c 128,-1,23
 349 692 349 692 353 683 c 2,24,-1
 616 40 l 2,25,0
 618 32 618 32 618 28 c 0,1,2
460 261 m 1,26,-1
 320 603 l 1,27,-1
 182 261 l 1,28,-1
 460 261 l 1,26,-1
EndSplineSet
Validated: 1
Substitution2: "Single Substitution lookup 20 subtable" ordfeminine
EndChar

StartChar: Aogonek
Encoding: 260 260 26
Width: 648
GlyphClass: 2
Flags: W
AnchorPoint: "Anchor-8" 0 0 basechar 0
AnchorPoint: "Anchor-7" 0 0 basechar 0
AnchorPoint: "Anchor-6" 324 700 basechar 0
AnchorPoint: "Anchor-5" 583 10 basechar 0
AnchorPoint: "Anchor-4" 324 0 basechar 0
LayerCount: 2
Fore
SplineSet
638.5 -119 m 128,-1,1
 645 -125 645 -125 645 -135 c 0,2,3
 645 -157 645 -157 619.5 -174 c 128,-1,4
 594 -191 594 -191 562 -191 c 0,5,6
 523 -191 523 -191 494.5 -164.5 c 128,-1,7
 466 -138 466 -138 466 -95 c 0,8,9
 466 -51 466 -51 492 -21 c 128,-1,10
 518 9 518 9 556 26 c 1,11,-1
 484 202 l 1,12,-1
 159 202 l 1,13,-1
 85 19 l 2,14,15
 77 -1 77 -1 58 -1 c 0,16,17
 31 -1 31 -1 29 24 c 2,18,-1
 29 27 l 2,19,20
 29 30 29 30 31 38 c 2,21,-1
 294 683 l 2,22,23
 302 703 302 703 324 703 c 0,24,25
 334 703 334 703 341.5 697.5 c 128,-1,26
 349 692 349 692 353 683 c 2,27,-1
 619 33 l 2,28,29
 621 27 621 27 621 22 c 0,30,31
 621 5 621 5 599 -1 c 0,32,33
 567 -8 567 -8 543.5 -32 c 128,-1,34
 520 -56 520 -56 520 -84 c 0,35,36
 520 -110 520 -110 534.5 -125 c 128,-1,37
 549 -140 549 -140 568 -140 c 0,38,39
 589 -140 589 -140 598 -128 c 0,40,41
 607 -113 607 -113 622 -113 c 0,42,0
 632 -113 632 -113 638.5 -119 c 128,-1,1
460 261 m 1,43,-1
 320 603 l 1,44,-1
 182 261 l 1,45,-1
 460 261 l 1,43,-1
EndSplineSet
Validated: 1
EndChar

StartChar: Aring
Encoding: 197 197 27
Width: 648
GlyphClass: 2
Flags: W
AnchorPoint: "Anchor-8" 0 0 basechar 0
AnchorPoint: "Anchor-7" 0 0 basechar 0
AnchorPoint: "Anchor-6" 324 857 basechar 0
AnchorPoint: "Anchor-5" 583 10 basechar 0
AnchorPoint: "Anchor-4" 0 0 basechar 0
LayerCount: 2
Fore
SplineSet
618 28 m 0,1,2
 618 15 618 15 609 7 c 128,-1,3
 600 -1 600 -1 588 -1 c 0,4,5
 578 -1 578 -1 570.5 4.5 c 128,-1,6
 563 10 563 10 559 19 c 2,7,-1
 484 202 l 1,8,-1
 159 202 l 1,9,-1
 85 19 l 2,10,11
 77 -1 77 -1 58 -1 c 0,12,13
 44 -1 44 -1 37 6 c 128,-1,14
 30 13 30 13 29 25 c 2,15,-1
 29 28 l 2,16,17
 29 34 29 34 30 37 c 2,18,-1
 288 669 l 1,19,20
 259 680 259 680 240.5 704.5 c 128,-1,21
 222 729 222 729 222 760 c 0,22,23
 222 800 222 800 252.5 829 c 128,-1,24
 283 858 283 858 324 858 c 256,25,26
 365 858 365 858 395.5 829 c 128,-1,27
 426 800 426 800 426 760 c 0,28,29
 426 729 426 729 407 704 c 128,-1,30
 388 679 388 679 359 668 c 1,31,-1
 616 40 l 2,32,0
 618 32 618 32 618 28 c 0,1,2
284 720.5 m 128,-1,34
 301 704 301 704 324 704 c 0,35,36
 348 704 348 704 365 720.5 c 128,-1,37
 382 737 382 737 382 760 c 0,38,39
 382 784 382 784 365 800.5 c 128,-1,40
 348 817 348 817 324 817 c 0,41,42
 301 817 301 817 284 800.5 c 128,-1,43
 267 784 267 784 267 760 c 0,44,33
 267 737 267 737 284 720.5 c 128,-1,34
460 261 m 1,45,-1
 320 603 l 1,46,-1
 182 261 l 1,47,-1
 460 261 l 1,45,-1
EndSplineSet
Validated: 1
EndChar

StartChar: AE
Encoding: 198 198 30
Width: 919
GlyphClass: 2
Flags: W
AnchorPoint: "Anchor-8" 0 0 basechar 0
AnchorPoint: "Anchor-7" 0 0 basechar 0
AnchorPoint: "Anchor-6" 624 700 basechar 0
AnchorPoint: "Anchor-5" 0 0 basechar 0
AnchorPoint: "Anchor-4" 463 0 basechar 0
LayerCount: 2
Fore
SplineSet
863.5 50 m 128,-1,1
 872 41 872 41 872 29 c 0,2,3
 872 16 872 16 863.5 8 c 128,-1,4
 855 0 855 0 842 0 c 2,5,-1
 488 0 l 2,6,7
 475 0 475 0 466 8.5 c 128,-1,8
 457 17 457 17 457 30 c 2,9,-1
 457 169 l 1,10,-1
 170 169 l 1,11,-1
 60 11 l 2,12,13
 51 -2 51 -2 36 -2 c 0,14,15
 25 -2 25 -2 16.5 6.5 c 128,-1,16
 8 15 8 15 8 27 c 0,17,18
 8 36 8 36 13 46 c 2,19,-1
 462 687 l 2,20,21
 472 700 472 700 489 700 c 2,22,-1
 842 700 l 2,23,24
 855 700 855 700 863.5 691.5 c 128,-1,25
 872 683 872 683 872 670 c 256,26,27
 872 657 872 657 863.5 649 c 128,-1,28
 855 641 855 641 842 641 c 2,29,-1
 519 641 l 1,30,-1
 519 388 l 1,31,-1
 797 388 l 2,32,33
 810 388 810 388 818.5 380 c 128,-1,34
 827 372 827 372 827 359 c 256,35,36
 827 346 827 346 818.5 338 c 128,-1,37
 810 330 810 330 797 330 c 2,38,-1
 519 330 l 1,39,-1
 519 59 l 1,40,-1
 842 59 l 2,41,0
 855 59 855 59 863.5 50 c 128,-1,1
210 227 m 1,42,-1
 457 227 l 1,43,-1
 457 583 l 1,44,-1
 210 227 l 1,42,-1
EndSplineSet
Validated: 1
EndChar

StartChar: B
Encoding: 66 66 32
Width: 651
GlyphClass: 2
Flags: W
AnchorPoint: "Anchor-8" 0 0 basechar 0
AnchorPoint: "Anchor-7" 0 0 basechar 0
AnchorPoint: "Anchor-6" 326 700 basechar 0
AnchorPoint: "Anchor-5" 0 0 basechar 0
AnchorPoint: "Anchor-4" 326 0 basechar 0
LayerCount: 2
Fore
SplineSet
566 312 m 128,-1,1
 604 267 604 267 604 195 c 0,2,3
 604 97 604 97 543.5 48.5 c 128,-1,4
 483 0 483 0 393 0 c 2,5,-1
 124 0 l 2,6,7
 111 0 111 0 102.5 8.5 c 128,-1,8
 94 17 94 17 94 30 c 2,9,-1
 94 670 l 2,10,11
 94 683 94 683 102.5 691.5 c 128,-1,12
 111 700 111 700 124 700 c 2,13,-1
 389 700 l 2,14,15
 473 700 473 700 520.5 654 c 128,-1,16
 568 608 568 608 568 528 c 0,17,18
 568 475 568 475 542 433 c 128,-1,19
 516 391 516 391 468 372 c 1,20,0
 528 357 528 357 566 312 c 128,-1,1
471.5 609.5 m 128,-1,22
 439 641 439 641 381 641 c 2,23,-1
 158 641 l 1,24,-1
 158 391 l 1,25,-1
 381 391 l 2,26,27
 435 392 435 392 469.5 426 c 128,-1,28
 504 460 504 460 504 523 c 0,29,21
 504 578 504 578 471.5 609.5 c 128,-1,22
498.5 93 m 128,-1,31
 540 127 540 127 540 195 c 0,32,33
 540 265 540 265 497.5 298 c 128,-1,34
 455 331 455 331 388 331 c 2,35,-1
 158 331 l 1,36,-1
 158 59 l 1,37,-1
 390 59 l 2,38,30
 457 59 457 59 498.5 93 c 128,-1,31
EndSplineSet
Validated: 1
EndChar

StartChar: C
Encoding: 67 67 33
Width: 653
GlyphClass: 2
Flags: W
AnchorPoint: "Anchor-8" 0 0 basechar 0
AnchorPoint: "Anchor-7" 0 0 basechar 0
AnchorPoint: "Anchor-6" 390 700 basechar 0
AnchorPoint: "Anchor-5" 0 0 basechar 0
AnchorPoint: "Anchor-4" 404 0 basechar 0
LayerCount: 2
Fore
SplineSet
620 623 m 0,1,2
 620 614 620 614 613 603 c 0,3,4
 604 592 604 592 590 592 c 0,5,6
 582 592 582 592 574 597 c 0,7,8
 494 650 494 650 399 650 c 0,9,10
 318 650 318 650 252.5 612 c 128,-1,11
 187 574 187 574 149.5 505.5 c 128,-1,12
 112 437 112 437 112 350 c 0,13,14
 112 261 112 261 150 192.5 c 128,-1,15
 188 124 188 124 253.5 86.5 c 128,-1,16
 319 49 319 49 399 49 c 0,17,18
 494 49 494 49 573 101 c 0,19,20
 581 106 581 106 590 106 c 0,21,22
 604 106 604 106 613 94 c 0,23,24
 620 86 620 86 620 75 c 0,25,26
 620 59 620 59 606 51 c 0,27,28
 567 25 567 25 510 7.5 c 128,-1,29
 453 -10 453 -10 399 -10 c 0,30,31
 304 -10 304 -10 223.5 35.5 c 128,-1,32
 143 81 143 81 95.5 163 c 128,-1,33
 48 245 48 245 48 350 c 0,34,35
 48 451 48 451 95 533.5 c 128,-1,36
 142 616 142 616 222 662.5 c 128,-1,37
 302 709 302 709 399 709 c 0,38,39
 455 709 455 709 508.5 693 c 128,-1,40
 562 677 562 677 605 648 c 0,41,0
 620 639 620 639 620 623 c 0,1,2
EndSplineSet
Validated: 1
EndChar

StartChar: Ccedilla
Encoding: 199 199 36
Width: 653
GlyphClass: 2
Flags: W
AnchorPoint: "Anchor-8" 0 0 basechar 0
AnchorPoint: "Anchor-7" 0 0 basechar 0
AnchorPoint: "Anchor-6" 0 0 basechar 0
AnchorPoint: "Anchor-5" 0 0 basechar 0
AnchorPoint: "Anchor-4" 391 -144 basechar 0
LayerCount: 2
Fore
SplineSet
620 75 m 0,1,2
 620 59 620 59 606 51 c 0,3,4
 569 27 569 27 518 10 c 128,-1,5
 467 -7 467 -7 417 -9 c 1,6,-1
 364 -124 l 2,7,8
 355 -144 355 -144 338 -144 c 0,9,10
 326 -144 326 -144 311 -134 c 128,-1,11
 296 -124 296 -124 296 -112 c 256,12,13
 296 -100 296 -100 302 -94 c 2,14,-1
 370 -9 l 1,15,16
 281 -2 281 -2 207.5 45 c 128,-1,17
 134 92 134 92 91 171.5 c 128,-1,18
 48 251 48 251 48 350 c 0,19,20
 48 451 48 451 95 533.5 c 128,-1,21
 142 616 142 616 222 662.5 c 128,-1,22
 302 709 302 709 399 709 c 0,23,24
 455 709 455 709 508.5 693 c 128,-1,25
 562 677 562 677 605 648 c 0,26,27
 620 639 620 639 620 623 c 0,28,29
 620 614 620 614 613 603 c 0,30,31
 604 592 604 592 590 592 c 0,32,33
 582 592 582 592 574 597 c 0,34,35
 494 650 494 650 399 650 c 0,36,37
 318 650 318 650 252.5 612 c 128,-1,38
 187 574 187 574 149.5 505.5 c 128,-1,39
 112 437 112 437 112 350 c 0,40,41
 112 261 112 261 150 192.5 c 128,-1,42
 188 124 188 124 253.5 86.5 c 128,-1,43
 319 49 319 49 399 49 c 0,44,45
 494 49 494 49 573 101 c 0,46,47
 581 106 581 106 590 106 c 0,48,49
 604 106 604 106 613 94 c 0,50,0
 620 86 620 86 620 75 c 0,1,2
EndSplineSet
Validated: 1
EndChar

StartChar: uni1E08
Encoding: 7688 7688 37
Width: 653
GlyphClass: 2
Flags: W
AnchorPoint: "Anchor-8" 0 0 basechar 0
AnchorPoint: "Anchor-7" 0 0 basechar 0
AnchorPoint: "Anchor-6" 0 0 basechar 0
AnchorPoint: "Anchor-5" 0 0 basechar 0
AnchorPoint: "Anchor-4" 391 -144 basechar 0
LayerCount: 2
Fore
SplineSet
379.5 751 m 128,-1,1
 374 756 374 756 374 764 c 256,2,3
 374 772 374 772 384 782 c 2,4,-1
 473 851 l 2,5,6
 488 862 488 862 502 862 c 0,7,8
 515 862 515 862 524 853.5 c 128,-1,9
 533 845 533 845 533 832 c 0,10,11
 533 812 533 812 513 801 c 2,12,-1
 415 752 l 2,13,14
 403 746 403 746 394 746 c 256,15,0
 385 746 385 746 379.5 751 c 128,-1,1
620 75 m 0,17,18
 620 59 620 59 606 51 c 0,19,20
 569 27 569 27 518 10 c 128,-1,21
 467 -7 467 -7 417 -9 c 1,22,-1
 364 -124 l 2,23,24
 355 -144 355 -144 338 -144 c 0,25,26
 326 -144 326 -144 311 -134 c 128,-1,27
 296 -124 296 -124 296 -112 c 256,28,29
 296 -100 296 -100 302 -94 c 2,30,-1
 370 -9 l 1,31,32
 281 -2 281 -2 207.5 45 c 128,-1,33
 134 92 134 92 91 171.5 c 128,-1,34
 48 251 48 251 48 350 c 0,35,36
 48 451 48 451 95 533.5 c 128,-1,37
 142 616 142 616 222 662.5 c 128,-1,38
 302 709 302 709 399 709 c 0,39,40
 455 709 455 709 508.5 693 c 128,-1,41
 562 677 562 677 605 648 c 0,42,43
 620 639 620 639 620 623 c 0,44,45
 620 614 620 614 613 603 c 0,46,47
 604 592 604 592 590 592 c 0,48,49
 582 592 582 592 574 597 c 0,50,51
 494 650 494 650 399 650 c 0,52,53
 318 650 318 650 252.5 612 c 128,-1,54
 187 574 187 574 149.5 505.5 c 128,-1,55
 112 437 112 437 112 350 c 0,56,57
 112 261 112 261 150 192.5 c 128,-1,58
 188 124 188 124 253.5 86.5 c 128,-1,59
 319 49 319 49 399 49 c 0,60,61
 494 49 494 49 573 101 c 0,62,63
 581 106 581 106 590 106 c 0,64,65
 604 106 604 106 613 94 c 0,66,16
 620 86 620 86 620 75 c 0,17,18
EndSplineSet
Validated: 1
EndChar

StartChar: D
Encoding: 68 68 40
Width: 719
GlyphClass: 2
Flags: W
AnchorPoint: "Anchor-8" 0 0 basechar 0
AnchorPoint: "Anchor-7" 127 350 basechar 0
AnchorPoint: "Anchor-6" 312 700 basechar 0
AnchorPoint: "Anchor-5" 0 0 basechar 0
AnchorPoint: "Anchor-4" 320 0 basechar 0
LayerCount: 2
Fore
SplineSet
540.5 652.5 m 128,-1,1
 606 605 606 605 638.5 525.5 c 128,-1,2
 671 446 671 446 671 350 c 0,3,4
 671 251 671 251 638.5 172 c 128,-1,5
 606 93 606 93 540.5 46.5 c 128,-1,6
 475 0 475 0 379 0 c 2,7,-1
 124 0 l 2,8,9
 111 0 111 0 102.5 8.5 c 128,-1,10
 94 17 94 17 94 30 c 2,11,-1
 94 670 l 2,12,13
 94 683 94 683 102.5 691.5 c 128,-1,14
 111 700 111 700 124 700 c 2,15,-1
 379 700 l 2,16,0
 475 700 475 700 540.5 652.5 c 128,-1,1
548 139.5 m 128,-1,18
 607 220 607 220 607 350 c 0,19,20
 607 431 607 431 582 496.5 c 128,-1,21
 557 562 557 562 503.5 601.5 c 128,-1,22
 450 641 450 641 369 641 c 2,23,-1
 157 641 l 1,24,-1
 157 59 l 1,25,-1
 369 59 l 2,26,17
 489 59 489 59 548 139.5 c 128,-1,18
EndSplineSet
Validated: 1
EndChar

StartChar: Eth
Encoding: 208 208 42
Width: 719
GlyphClass: 2
Flags: W
AnchorPoint: "Anchor-8" 0 0 basechar 0
AnchorPoint: "Anchor-7" 127 350 basechar 0
AnchorPoint: "Anchor-6" 312 700 basechar 0
AnchorPoint: "Anchor-5" 0 0 basechar 0
AnchorPoint: "Anchor-4" 320 0 basechar 0
LayerCount: 2
Fore
SplineSet
540.5 652.5 m 128,-1,1
 606 605 606 605 638.5 525.5 c 128,-1,2
 671 446 671 446 671 350 c 0,3,4
 671 251 671 251 638.5 172 c 128,-1,5
 606 93 606 93 540.5 46.5 c 128,-1,6
 475 0 475 0 379 0 c 2,7,-1
 124 0 l 2,8,9
 111 0 111 0 102.5 8.5 c 128,-1,10
 94 17 94 17 94 30 c 2,11,-1
 94 323 l 1,12,-1
 47 323 l 2,13,14
 33 323 33 323 25 331 c 128,-1,15
 17 339 17 339 17 352 c 0,16,17
 17 364 17 364 25.5 371.5 c 128,-1,18
 34 379 34 379 47 379 c 2,19,-1
 94 379 l 1,20,-1
 94 670 l 2,21,22
 94 683 94 683 102.5 691.5 c 128,-1,23
 111 700 111 700 124 700 c 2,24,-1
 379 700 l 2,25,0
 475 700 475 700 540.5 652.5 c 128,-1,1
548 139.5 m 128,-1,27
 607 220 607 220 607 350 c 0,28,29
 607 431 607 431 582 496.5 c 128,-1,30
 557 562 557 562 503.5 601.5 c 128,-1,31
 450 641 450 641 369 641 c 2,32,-1
 157 641 l 1,33,-1
 157 379 l 1,34,-1
 211 379 l 2,35,36
 225 379 225 379 233 371.5 c 128,-1,37
 241 364 241 364 241 351 c 256,38,39
 241 338 241 338 233 330.5 c 128,-1,40
 225 323 225 323 211 323 c 2,41,-1
 157 323 l 1,42,-1
 157 59 l 1,43,-1
 369 59 l 2,44,26
 489 59 489 59 548 139.5 c 128,-1,27
EndSplineSet
Validated: 1
EndChar

StartChar: E
Encoding: 69 69 49
Width: 568
GlyphClass: 2
Flags: W
AnchorPoint: "Anchor-8" 0 0 basechar 0
AnchorPoint: "Anchor-7" 0 0 basechar 0
AnchorPoint: "Anchor-6" 318 700 basechar 0
AnchorPoint: "Anchor-5" 489 10 basechar 0
AnchorPoint: "Anchor-4" 312 0 basechar 0
LayerCount: 2
Fore
SplineSet
512.5 50 m 128,-1,1
 521 41 521 41 521 29 c 0,2,3
 521 16 521 16 512.5 8 c 128,-1,4
 504 0 504 0 491 0 c 2,5,-1
 124 0 l 2,6,7
 111 0 111 0 102.5 8.5 c 128,-1,8
 94 17 94 17 94 30 c 2,9,-1
 94 670 l 2,10,11
 94 683 94 683 102.5 691.5 c 128,-1,12
 111 700 111 700 124 700 c 2,13,-1
 491 700 l 2,14,15
 504 700 504 700 512.5 691.5 c 128,-1,16
 521 683 521 683 521 670 c 256,17,18
 521 657 521 657 512.5 649 c 128,-1,19
 504 641 504 641 491 641 c 2,20,-1
 157 641 l 1,21,-1
 157 390 l 1,22,-1
 446 390 l 2,23,24
 459 390 459 390 467.5 381.5 c 128,-1,25
 476 373 476 373 476 360 c 256,26,27
 476 347 476 347 467.5 339 c 128,-1,28
 459 331 459 331 446 331 c 2,29,-1
 157 331 l 1,30,-1
 157 59 l 1,31,-1
 491 59 l 2,32,0
 504 59 504 59 512.5 50 c 128,-1,1
EndSplineSet
Validated: 1
EndChar

StartChar: uni1E1C
Encoding: 7708 7708 53
Width: 568
GlyphClass: 2
Flags: W
AnchorPoint: "Anchor-8" 0 0 basechar 0
AnchorPoint: "Anchor-7" 0 0 basechar 0
AnchorPoint: "Anchor-6" 0 0 basechar 0
AnchorPoint: "Anchor-5" 489 10 basechar 0
AnchorPoint: "Anchor-4" 298 -144 basechar 0
LayerCount: 2
Fore
SplineSet
230.5 801.5 m 128,-1,1
 195 828 195 828 181 875 c 0,2,3
 179 883 179 883 179 886 c 0,4,5
 179 895 179 895 184.5 900 c 128,-1,6
 190 905 190 905 200 905 c 0,7,8
 211 905 211 905 216.5 900.5 c 128,-1,9
 222 896 222 896 230 884 c 0,10,11
 256 825 256 825 318 825 c 256,12,13
 380 825 380 825 406 884 c 0,14,15
 411 895 411 895 418 900 c 128,-1,16
 425 905 425 905 436 905 c 0,17,18
 457 905 457 905 457 887 c 0,19,20
 457 884 457 884 455 876 c 0,21,22
 441 828 441 828 405.5 801.5 c 128,-1,23
 370 775 370 775 318 775 c 256,24,0
 266 775 266 775 230.5 801.5 c 128,-1,1
512.5 50 m 128,-1,26
 521 41 521 41 521 29 c 0,27,28
 521 16 521 16 512.5 8 c 128,-1,29
 504 0 504 0 491 0 c 2,30,-1
 328 0 l 1,31,-1
 271 -124 l 2,32,33
 263 -144 263 -144 245 -144 c 0,34,35
 233 -144 233 -144 218 -134 c 128,-1,36
 203 -124 203 -124 203 -112 c 0,37,38
 203 -101 203 -101 210 -94 c 2,39,-1
 285 0 l 1,40,-1
 124 0 l 2,41,42
 111 0 111 0 102.5 8.5 c 128,-1,43
 94 17 94 17 94 30 c 2,44,-1
 94 670 l 2,45,46
 94 683 94 683 102.5 691.5 c 128,-1,47
 111 700 111 700 124 700 c 2,48,-1
 491 700 l 2,49,50
 504 700 504 700 512.5 691.5 c 128,-1,51
 521 683 521 683 521 670 c 256,52,53
 521 657 521 657 512.5 649 c 128,-1,54
 504 641 504 641 491 641 c 2,55,-1
 157 641 l 1,56,-1
 157 390 l 1,57,-1
 446 390 l 2,58,59
 459 390 459 390 467.5 381.5 c 128,-1,60
 476 373 476 373 476 360 c 256,61,62
 476 347 476 347 467.5 339 c 128,-1,63
 459 331 459 331 446 331 c 2,64,-1
 157 331 l 1,65,-1
 157 59 l 1,66,-1
 491 59 l 2,67,25
 504 59 504 59 512.5 50 c 128,-1,26
EndSplineSet
Validated: 1
EndChar

StartChar: Eogonek
Encoding: 280 280 70
Width: 579
GlyphClass: 2
Flags: W
AnchorPoint: "Anchor-8" 0 0 basechar 0
AnchorPoint: "Anchor-7" 0 0 basechar 0
AnchorPoint: "Anchor-6" 300 700 basechar 0
AnchorPoint: "Anchor-5" 489 10 basechar 0
AnchorPoint: "Anchor-4" 312 0 basechar 0
LayerCount: 2
Fore
SplineSet
519.5 -119 m 128,-1,1
 525 -125 525 -125 525 -135 c 0,2,3
 525 -157 525 -157 500.5 -174 c 128,-1,4
 476 -191 476 -191 442 -191 c 0,5,6
 403 -191 403 -191 374.5 -164.5 c 128,-1,7
 346 -138 346 -138 346 -95 c 0,8,9
 346 -39 346 -39 401 0 c 1,10,-1
 124 0 l 2,11,12
 111 0 111 0 102.5 8.5 c 128,-1,13
 94 17 94 17 94 30 c 2,14,-1
 94 670 l 2,15,16
 94 683 94 683 102.5 691.5 c 128,-1,17
 111 700 111 700 124 700 c 2,18,-1
 491 700 l 2,19,20
 504 700 504 700 512.5 691.5 c 128,-1,21
 521 683 521 683 521 670 c 0,22,23
 521 658 521 658 512.5 650 c 128,-1,24
 504 642 504 642 491 642 c 2,25,-1
 157 642 l 1,26,-1
 157 390 l 1,27,-1
 446 390 l 2,28,29
 459 390 459 390 467.5 381.5 c 128,-1,30
 476 373 476 373 476 360 c 0,31,32
 476 348 476 348 467.5 339.5 c 128,-1,33
 459 331 459 331 446 331 c 2,34,-1
 157 331 l 1,35,-1
 157 59 l 1,36,-1
 491 59 l 2,37,38
 504 59 504 59 512.5 50.5 c 128,-1,39
 521 42 521 42 521 29 c 0,40,41
 521 4 521 4 487 -1 c 0,42,43
 454 -5 454 -5 427 -29 c 128,-1,44
 400 -53 400 -53 400 -83 c 0,45,46
 400 -109 400 -109 414.5 -124.5 c 128,-1,47
 429 -140 429 -140 449 -140 c 0,48,49
 471 -140 471 -140 478 -128 c 0,50,51
 489 -113 489 -113 504 -113 c 0,52,0
 514 -113 514 -113 519.5 -119 c 128,-1,1
EndSplineSet
Validated: 1
EndChar

StartChar: F
Encoding: 70 70 72
Width: 566
GlyphClass: 2
Flags: W
AnchorPoint: "Anchor-8" 0 0 basechar 0
AnchorPoint: "Anchor-7" 128 207 basechar 0
AnchorPoint: "Anchor-6" 283 700 basechar 0
AnchorPoint: "Anchor-5" 0 0 basechar 0
AnchorPoint: "Anchor-4" 283 0 basechar 0
LayerCount: 2
Fore
SplineSet
509.5 691.5 m 128,-1,1
 518 683 518 683 518 670 c 0,2,3
 518 658 518 658 509.5 649.5 c 128,-1,4
 501 641 501 641 488 641 c 2,5,-1
 155 641 l 1,6,-1
 155 390 l 1,7,-1
 443 390 l 2,8,9
 456 390 456 390 464.5 382 c 128,-1,10
 473 374 473 374 473 361 c 256,11,12
 473 348 473 348 464.5 340 c 128,-1,13
 456 332 456 332 443 332 c 2,14,-1
 155 332 l 1,15,-1
 155 30 l 2,16,17
 155 17 155 17 146.5 8.5 c 128,-1,18
 138 0 138 0 125 0 c 0,19,20
 111 0 111 0 102.5 8.5 c 128,-1,21
 94 17 94 17 94 30 c 2,22,-1
 94 670 l 2,23,24
 94 683 94 683 102.5 691.5 c 128,-1,25
 111 700 111 700 124 700 c 2,26,-1
 488 700 l 2,27,0
 501 700 501 700 509.5 691.5 c 128,-1,1
EndSplineSet
Validated: 1
EndChar

StartChar: G
Encoding: 71 71 73
Width: 695
GlyphClass: 2
Flags: W
AnchorPoint: "Anchor-8" 0 0 basechar 0
AnchorPoint: "Anchor-7" 0 0 basechar 0
AnchorPoint: "Anchor-6" 380 700 basechar 0
AnchorPoint: "Anchor-5" 0 0 basechar 0
AnchorPoint: "Anchor-4" 392 0 basechar 0
LayerCount: 2
Fore
SplineSet
626.5 344.5 m 128,-1,1
 635 336 635 336 635 323 c 2,2,-1
 635 82 l 2,3,4
 635 65 635 65 620 55 c 0,5,6
 575 24 575 24 520 7 c 128,-1,7
 465 -10 465 -10 408 -10 c 0,8,9
 306 -10 306 -10 224 37 c 128,-1,10
 142 84 142 84 95 166 c 128,-1,11
 48 248 48 248 48 350 c 256,12,13
 48 452 48 452 95 534 c 128,-1,14
 142 616 142 616 224 663 c 128,-1,15
 306 710 306 710 408 710 c 0,16,17
 461 710 461 710 510.5 697 c 128,-1,18
 560 684 560 684 599 660 c 0,19,20
 613 651 613 651 613 635 c 0,21,22
 613 622 613 622 604.5 613 c 128,-1,23
 596 604 596 604 585 604 c 0,24,25
 575 604 575 604 567 609 c 0,26,27
 492 650 492 650 408 650 c 0,28,29
 323 650 323 650 255.5 611 c 128,-1,30
 188 572 188 572 150 503.5 c 128,-1,31
 112 435 112 435 112 350 c 256,32,33
 112 265 112 265 150 196.5 c 128,-1,34
 188 128 188 128 255.5 89 c 128,-1,35
 323 50 323 50 408 50 c 0,36,37
 451 50 451 50 494.5 62 c 128,-1,38
 538 74 538 74 572 95 c 1,39,-1
 572 293 l 1,40,-1
 414 293 l 2,41,42
 401 293 401 293 392 301.5 c 128,-1,43
 383 310 383 310 383 323 c 256,44,45
 383 336 383 336 392 344.5 c 128,-1,46
 401 353 401 353 414 353 c 2,47,-1
 605 353 l 2,48,0
 618 353 618 353 626.5 344.5 c 128,-1,1
EndSplineSet
Validated: 1
EndChar

StartChar: H
Encoding: 72 72 80
Width: 720
GlyphClass: 2
Flags: W
AnchorPoint: "Anchor-8" 0 0 basechar 0
AnchorPoint: "Anchor-7" 360 350 basechar 0
AnchorPoint: "Anchor-6" 360 700 basechar 0
AnchorPoint: "Anchor-5" 0 0 basechar 0
AnchorPoint: "Anchor-4" 360 0 basechar 0
LayerCount: 2
Fore
SplineSet
617.5 691.5 m 128,-1,1
 626 683 626 683 626 669 c 2,2,-1
 626 31 l 2,3,4
 625 17 625 17 616 8.5 c 128,-1,5
 607 0 607 0 594 0 c 256,6,7
 581 0 581 0 572 9 c 128,-1,8
 563 18 563 18 563 31 c 2,9,-1
 563 329 l 1,10,-1
 157 329 l 1,11,-1
 157 31 l 2,12,13
 156 18 156 18 147 9 c 128,-1,14
 138 0 138 0 125 0 c 0,15,16
 111 0 111 0 102.5 8.5 c 128,-1,17
 94 17 94 17 94 31 c 2,18,-1
 94 669 l 2,19,20
 94 683 94 683 103 691.5 c 128,-1,21
 112 700 112 700 126 700 c 0,22,23
 139 700 139 700 148 691 c 128,-1,24
 157 682 157 682 157 669 c 2,25,-1
 157 387 l 1,26,-1
 563 387 l 1,27,-1
 563 669 l 2,28,29
 563 682 563 682 572.5 691 c 128,-1,30
 582 700 582 700 595 700 c 0,31,0
 609 700 609 700 617.5 691.5 c 128,-1,1
EndSplineSet
Validated: 1
EndChar

StartChar: Hbar
Encoding: 294 294 81
Width: 832
GlyphClass: 2
Flags: W
AnchorPoint: "Anchor-8" 0 0 basechar 0
AnchorPoint: "Anchor-7" 416 350 basechar 0
AnchorPoint: "Anchor-6" 416 700 basechar 0
AnchorPoint: "Anchor-5" 0 0 basechar 0
AnchorPoint: "Anchor-4" 416 0 basechar 0
LayerCount: 2
Fore
SplineSet
739 536 m 128,-1,1
 747 528 747 528 747 517 c 0,2,3
 747 505 747 505 739 497 c 128,-1,4
 731 489 731 489 719 489 c 2,5,-1
 682 489 l 1,6,-1
 682 31 l 2,7,8
 681 17 681 17 672 8.5 c 128,-1,9
 663 0 663 0 650 0 c 256,10,11
 637 0 637 0 628 9 c 128,-1,12
 619 18 619 18 619 31 c 2,13,-1
 619 329 l 1,14,-1
 212 329 l 1,15,-1
 212 31 l 2,16,17
 212 18 212 18 202.5 9 c 128,-1,18
 193 0 193 0 181 0 c 0,19,20
 167 0 167 0 158.5 8.5 c 128,-1,21
 150 17 150 17 150 31 c 2,22,-1
 150 489 l 1,23,-1
 113 489 l 2,24,25
 101 489 101 489 93 497 c 128,-1,26
 85 505 85 505 85 517 c 256,27,28
 85 529 85 529 93 536.5 c 128,-1,29
 101 544 101 544 113 544 c 2,30,-1
 150 544 l 1,31,-1
 150 669 l 2,32,33
 150 683 150 683 159 691.5 c 128,-1,34
 168 700 168 700 181 700 c 256,35,36
 194 700 194 700 203 691 c 128,-1,37
 212 682 212 682 212 669 c 2,38,-1
 212 544 l 1,39,-1
 619 544 l 1,40,-1
 619 669 l 2,41,42
 619 682 619 682 628 691 c 128,-1,43
 637 700 637 700 651 700 c 256,44,45
 665 700 665 700 673.5 691.5 c 128,-1,46
 682 683 682 683 682 669 c 2,47,-1
 682 544 l 1,48,-1
 719 544 l 2,49,0
 731 544 731 544 739 536 c 128,-1,1
619 489 m 1,50,-1
 212 489 l 1,51,-1
 212 387 l 1,52,-1
 619 387 l 1,53,-1
 619 489 l 1,50,-1
EndSplineSet
Validated: 1
EndChar

StartChar: I
Encoding: 73 73 85
Width: 250
GlyphClass: 2
Flags: W
AnchorPoint: "Anchor-8" 0 0 basechar 0
AnchorPoint: "Anchor-7" 0 0 basechar 0
AnchorPoint: "Anchor-6" 126 700 basechar 0
AnchorPoint: "Anchor-5" 227 10 basechar 0
AnchorPoint: "Anchor-4" 126 0 basechar 0
LayerCount: 2
Fore
SplineSet
147 9 m 128,-1,1
 138 0 138 0 125 0 c 0,2,3
 111 0 111 0 102.5 8.5 c 128,-1,4
 94 17 94 17 94 31 c 2,5,-1
 94 669 l 2,6,7
 94 683 94 683 103 691.5 c 128,-1,8
 112 700 112 700 126 700 c 0,9,10
 139 700 139 700 148 691 c 128,-1,11
 157 682 157 682 157 669 c 2,12,-1
 157 31 l 2,13,0
 156 18 156 18 147 9 c 128,-1,1
EndSplineSet
Validated: 1
EndChar

StartChar: IJ
Encoding: 306 306 86
Width: 599
GlyphClass: 2
Flags: W
AnchorPoint: "Anchor-8" 0 0 basechar 0
AnchorPoint: "Anchor-7" 0 0 basechar 0
AnchorPoint: "Anchor-6" 336 700 basechar 0
AnchorPoint: "Anchor-5" 177 10 basechar 0
AnchorPoint: "Anchor-4" 77 60 basechar 0
LayerCount: 2
Fore
SplineSet
175 24.5 m 128,-1,1
 125 59 125 59 98 117 c 0,2,3
 94 127 94 127 94 133 c 0,4,5
 94 145 94 145 103 153 c 128,-1,6
 112 161 112 161 123 161 c 0,7,8
 140 161 140 161 152 144 c 1,9,10
 171 101 171 101 207 75.5 c 128,-1,11
 243 50 243 50 287 50 c 0,12,13
 357 50 357 50 400 92.5 c 128,-1,14
 443 135 443 135 443 204 c 2,15,-1
 443 670 l 2,16,17
 443 683 443 683 452 691.5 c 128,-1,18
 461 700 461 700 475 700 c 0,19,20
 488 700 488 700 496.5 691.5 c 128,-1,21
 505 683 505 683 505 670 c 2,22,-1
 505 204 l 2,23,24
 505 143 505 143 477 94 c 128,-1,25
 449 45 449 45 399.5 17.5 c 128,-1,26
 350 -10 350 -10 287 -10 c 0,27,0
 225 -10 225 -10 175 24.5 c 128,-1,1
160 245 m 128,-1,29
 151 236 151 236 139 236 c 0,30,31
 125 236 125 236 116 244.5 c 128,-1,32
 107 253 107 253 107 267 c 2,33,-1
 107 669 l 2,34,35
 107 682 107 682 116 691 c 128,-1,36
 125 700 125 700 139 700 c 0,37,38
 152 700 152 700 161 691 c 128,-1,39
 170 682 170 682 170 669 c 2,40,-1
 170 267 l 2,41,28
 169 254 169 254 160 245 c 128,-1,29
EndSplineSet
Validated: 1
EndChar

StartChar: Iogonek
Encoding: 302 302 100
Width: 235
GlyphClass: 2
Flags: W
AnchorPoint: "Anchor-8" 0 0 basechar 0
AnchorPoint: "Anchor-7" 0 0 basechar 0
AnchorPoint: "Anchor-6" 124 700 basechar 0
AnchorPoint: "Anchor-5" 225 10 basechar 0
AnchorPoint: "Anchor-4" 127 0 basechar 0
LayerCount: 2
Fore
SplineSet
178 -119 m 128,-1,1
 184 -125 184 -125 184 -135 c 0,2,3
 184 -157 184 -157 159.5 -174 c 128,-1,4
 135 -191 135 -191 101 -191 c 0,5,6
 62 -191 62 -191 33.5 -164.5 c 128,-1,7
 5 -138 5 -138 5 -95 c 0,8,9
 5 -51 5 -51 29.5 -21 c 128,-1,10
 54 9 54 9 92 25 c 1,11,-1
 92 669 l 2,12,13
 92 682 92 682 101.5 691 c 128,-1,14
 111 700 111 700 125 700 c 256,15,16
 139 700 139 700 147.5 691.5 c 128,-1,17
 156 683 156 683 156 669 c 2,18,-1
 156 31 l 2,19,20
 156 20 156 20 151.5 14 c 128,-1,21
 147 8 147 8 135 4 c 0,22,23
 104 -7 104 -7 81 -30.5 c 128,-1,24
 58 -54 58 -54 58 -83 c 0,25,26
 58 -109 58 -109 72.5 -124.5 c 128,-1,27
 87 -140 87 -140 107 -140 c 0,28,29
 120 -140 120 -140 127 -136 c 128,-1,30
 134 -132 134 -132 142 -124 c 0,31,32
 146 -120 146 -120 151 -116.5 c 128,-1,33
 156 -113 156 -113 162 -113 c 0,34,0
 172 -113 172 -113 178 -119 c 128,-1,1
EndSplineSet
Validated: 1
EndChar

StartChar: J
Encoding: 74 74 102
Width: 572
GlyphClass: 2
Flags: W
AnchorPoint: "Anchor-8" 0 0 basechar 0
AnchorPoint: "Anchor-7" 0 0 basechar 0
AnchorPoint: "Anchor-6" 447 700 basechar 0
AnchorPoint: "Anchor-5" 0 0 basechar 0
AnchorPoint: "Anchor-4" 286 0 basechar 0
LayerCount: 2
Fore
SplineSet
148 24.5 m 128,-1,1
 98 59 98 59 71 117 c 0,2,3
 66 125 66 125 66 133 c 0,4,5
 66 145 66 145 75.5 153 c 128,-1,6
 85 161 85 161 96 161 c 0,7,8
 112 161 112 161 124 144 c 1,9,10
 143 101 143 101 179 75.5 c 128,-1,11
 215 50 215 50 260 50 c 0,12,13
 329 50 329 50 372 92.5 c 128,-1,14
 415 135 415 135 415 204 c 2,15,-1
 415 670 l 2,16,17
 415 683 415 683 424 691.5 c 128,-1,18
 433 700 433 700 447 700 c 256,19,20
 461 700 461 700 469.5 691.5 c 128,-1,21
 478 683 478 683 478 670 c 2,22,-1
 478 204 l 2,23,24
 478 143 478 143 450 94 c 128,-1,25
 422 45 422 45 372.5 17.5 c 128,-1,26
 323 -10 323 -10 260 -10 c 0,27,0
 198 -10 198 -10 148 24.5 c 128,-1,1
EndSplineSet
Validated: 1
EndChar

StartChar: K
Encoding: 75 75 104
Width: 675
GlyphClass: 2
Flags: W
AnchorPoint: "Anchor-8" 0 0 basechar 0
AnchorPoint: "Anchor-7" 0 0 basechar 0
AnchorPoint: "Anchor-6" 338 700 basechar 0
AnchorPoint: "Anchor-5" 0 0 basechar 0
AnchorPoint: "Anchor-4" 307 0 basechar 0
LayerCount: 2
Fore
SplineSet
628 28 m 0,1,2
 628 13 628 13 617.5 4.5 c 128,-1,3
 607 -4 607 -4 594 -4 c 256,4,5
 581 -4 581 -4 572 7 c 2,6,-1
 293 358 l 1,7,-1
 157 230 l 1,8,-1
 157 31 l 2,9,10
 156 17 156 17 147 8.5 c 128,-1,11
 138 0 138 0 125 0 c 0,12,13
 111 0 111 0 102.5 8.5 c 128,-1,14
 94 17 94 17 94 31 c 2,15,-1
 94 669 l 2,16,17
 94 683 94 683 103 691.5 c 128,-1,18
 112 700 112 700 126 700 c 256,19,20
 140 700 140 700 148.5 691.5 c 128,-1,21
 157 683 157 683 157 669 c 2,22,-1
 157 306 l 1,23,-1
 561 688 l 2,24,25
 570 698 570 698 583 698 c 0,26,27
 595 698 595 698 603.5 689 c 128,-1,28
 612 680 612 680 612 669 c 0,29,30
 612 657 612 657 603 648 c 2,31,-1
 341 403 l 1,32,-1
 621 49 l 2,33,0
 628 39 628 39 628 28 c 0,1,2
EndSplineSet
Validated: 1
EndChar

StartChar: L
Encoding: 76 76 106
Width: 532
GlyphClass: 2
Flags: W
AnchorPoint: "Anchor-8" 512 700 basechar 0
AnchorPoint: "Anchor-7" 266 350 basechar 0
AnchorPoint: "Anchor-6" 116 700 basechar 0
AnchorPoint: "Anchor-5" 0 0 basechar 0
AnchorPoint: "Anchor-4" 285 0 basechar 0
LayerCount: 2
Fore
SplineSet
502.5 51 m 128,-1,1
 511 43 511 43 511 30 c 256,2,3
 511 17 511 17 502.5 8.5 c 128,-1,4
 494 0 494 0 481 0 c 2,5,-1
 124 0 l 2,6,7
 111 0 111 0 102.5 8.5 c 128,-1,8
 94 17 94 17 94 30 c 2,9,-1
 94 670 l 2,10,11
 94 683 94 683 103 691.5 c 128,-1,12
 112 700 112 700 126 700 c 0,13,14
 139 700 139 700 148 691.5 c 128,-1,15
 157 683 157 683 157 670 c 2,16,-1
 157 59 l 1,17,-1
 481 59 l 2,18,0
 494 59 494 59 502.5 51 c 128,-1,1
EndSplineSet
Validated: 1
EndChar

StartChar: Lcaron
Encoding: 317 317 109
Width: 533
Flags: W
LayerCount: 2
Fore
SplineSet
502.5 51.5 m 128,-1,1
 511 43 511 43 511 30 c 256,2,3
 511 17 511 17 502.5 8.5 c 128,-1,4
 494 0 494 0 481 0 c 2,5,-1
 124 0 l 2,6,7
 111 0 111 0 102.5 8.5 c 128,-1,8
 94 17 94 17 94 30 c 2,9,-1
 94 670 l 2,10,11
 94 683 94 683 102.5 691.5 c 128,-1,12
 111 700 111 700 124 700 c 256,13,14
 137 700 137 700 145.5 691.5 c 128,-1,15
 154 683 154 683 154 670 c 2,16,-1
 154 66 l 2,17,18
 154 60 154 60 160 60 c 2,19,-1
 481 60 l 2,20,0
 494 60 494 60 502.5 51.5 c 128,-1,1
496.5 579 m 128,-1,22
 482 551 482 551 460 533 c 128,-1,23
 438 515 438 515 417 515 c 0,24,25
 406 515 406 515 399 520.5 c 128,-1,26
 392 526 392 526 392 537 c 0,27,28
 392 547 392 547 397 551 c 128,-1,29
 402 555 402 555 412.5 558 c 128,-1,30
 423 561 423 561 428 564 c 0,31,32
 441 571 441 571 449 585 c 128,-1,33
 457 599 457 599 457 614 c 0,34,35
 457 625 457 625 450.5 632 c 128,-1,36
 444 639 444 639 434 639 c 0,37,38
 428 639 428 639 420 636.5 c 128,-1,39
 412 634 412 634 408 630 c 1,40,41
 395 642 395 642 396 657 c 0,42,43
 397 673 397 673 414.5 685.5 c 128,-1,44
 432 698 432 698 452 698 c 0,45,46
 479 698 479 698 495 681.5 c 128,-1,47
 511 665 511 665 511 636 c 256,48,21
 511 607 511 607 496.5 579 c 128,-1,22
EndSplineSet
Validated: 1
EndChar

StartChar: Lslash
Encoding: 321 321 115
Width: 579
Flags: W
LayerCount: 2
Fore
SplineSet
549.5 51.5 m 128,-1,1
 558 43 558 43 558 30 c 256,2,3
 558 17 558 17 549.5 8.5 c 128,-1,4
 541 0 541 0 528 0 c 2,5,-1
 171 0 l 2,6,7
 158 0 158 0 149.5 8.5 c 128,-1,8
 141 17 141 17 141 30 c 2,9,-1
 141 356 l 1,10,-1
 85 331 l 2,11,12
 81 329 81 329 73 329 c 0,13,14
 60 329 60 329 53 337 c 128,-1,15
 46 345 46 345 46 356 c 0,16,17
 46 373 46 373 63 381 c 2,18,-1
 141 415 l 1,19,-1
 141 670 l 2,20,21
 141 683 141 683 149.5 691.5 c 128,-1,22
 158 700 158 700 171 700 c 256,23,24
 184 700 184 700 192.5 691.5 c 128,-1,25
 201 683 201 683 201 670 c 2,26,-1
 201 442 l 1,27,-1
 287 480 l 2,28,29
 295 483 295 483 301 483 c 0,30,31
 313 483 313 483 320 474 c 128,-1,32
 327 465 327 465 327 455 c 0,33,34
 327 438 327 438 309 430 c 2,35,-1
 201 382 l 1,36,-1
 201 60 l 1,37,-1
 528 60 l 2,38,0
 541 60 541 60 549.5 51.5 c 128,-1,1
EndSplineSet
Validated: 1
EndChar

StartChar: M
Encoding: 77 77 116
Width: 827
GlyphClass: 2
Flags: W
AnchorPoint: "Anchor-8" 0 0 basechar 0
AnchorPoint: "Anchor-7" 0 0 basechar 0
AnchorPoint: "Anchor-6" 414 700 basechar 0
AnchorPoint: "Anchor-5" 0 0 basechar 0
AnchorPoint: "Anchor-4" 414 0 basechar 0
LayerCount: 2
Fore
SplineSet
724.5 691.5 m 128,-1,1
 733 683 733 683 733 670 c 2,2,-1
 733 30 l 2,3,4
 733 17 733 17 724 8.5 c 128,-1,5
 715 0 715 0 702 0 c 0,6,7
 688 0 688 0 679 8.5 c 128,-1,8
 670 17 670 17 670 30 c 2,9,-1
 670 580 l 1,10,-1
 435 224 l 2,11,12
 425 211 425 211 412 212 c 2,13,-1
 410 212 l 2,14,15
 398 212 398 212 388 224 c 2,16,-1
 153 582 l 1,17,-1
 153 30 l 2,18,19
 153 17 153 17 144.5 8.5 c 128,-1,20
 136 0 136 0 123 0 c 256,21,22
 110 0 110 0 102 8.5 c 128,-1,23
 94 17 94 17 94 30 c 2,24,-1
 94 670 l 2,25,26
 94 682 94 682 102.5 691 c 128,-1,27
 111 700 111 700 124 700 c 0,28,29
 131 700 131 700 139 696.5 c 128,-1,30
 147 693 147 693 151 687 c 2,31,-1
 413 294 l 1,32,-1
 677 687 l 2,33,34
 688 702 688 702 704 700 c 0,35,0
 716 700 716 700 724.5 691.5 c 128,-1,1
EndSplineSet
Validated: 1
EndChar

StartChar: N
Encoding: 78 78 118
Width: 728
GlyphClass: 2
Flags: W
AnchorPoint: "Anchor-8" 0 0 basechar 0
AnchorPoint: "Anchor-7" 0 0 basechar 0
AnchorPoint: "Anchor-6" 364 700 basechar 0
AnchorPoint: "Anchor-5" 0 0 basechar 0
AnchorPoint: "Anchor-4" 364 0 basechar 0
LayerCount: 2
Fore
SplineSet
626.5 692 m 128,-1,1
 634 684 634 684 634 672 c 2,2,-1
 634 32 l 2,3,4
 634 17 634 17 625 8.5 c 128,-1,5
 616 0 616 0 603 0 c 0,6,7
 596 0 596 0 589.5 3 c 128,-1,8
 583 6 583 6 579 10 c 2,9,-1
 150 588 l 1,10,-1
 150 27 l 2,11,12
 150 16 150 16 141.5 8 c 128,-1,13
 133 0 133 0 122 0 c 0,14,15
 110 0 110 0 102 8 c 128,-1,16
 94 16 94 16 94 27 c 2,17,-1
 94 670 l 2,18,19
 94 684 94 684 102.5 692 c 128,-1,20
 111 700 111 700 123 700 c 0,21,22
 139 700 139 700 147 689 c 2,23,-1
 578 108 l 1,24,-1
 578 672 l 2,25,26
 578 684 578 684 586 692 c 128,-1,27
 594 700 594 700 606 700 c 0,28,0
 619 700 619 700 626.5 692 c 128,-1,1
EndSplineSet
Validated: 1
EndChar

StartChar: Eng
Encoding: 330 330 125
Width: 748
Flags: W
LayerCount: 2
Fore
SplineSet
645.5 688.5 m 128,-1,1
 654 680 654 680 654 667 c 2,2,-1
 654 -37 l 2,3,4
 654 -112 654 -112 611.5 -156 c 128,-1,5
 569 -200 569 -200 478 -200 c 0,6,7
 464 -200 464 -200 455 -192.5 c 128,-1,8
 446 -185 446 -185 446 -172 c 256,9,10
 446 -159 446 -159 454.5 -151 c 128,-1,11
 463 -143 463 -143 476 -143 c 0,12,13
 544 -142 544 -142 568.5 -116 c 128,-1,14
 593 -90 593 -90 594 -38 c 2,15,-1
 595 18 l 1,16,-1
 154 586 l 1,17,-1
 154 30 l 2,18,19
 154 17 154 17 145.5 8.5 c 128,-1,20
 137 0 137 0 124 0 c 256,21,22
 111 0 111 0 102.5 8.5 c 128,-1,23
 94 17 94 17 94 30 c 2,24,-1
 94 670 l 2,25,26
 94 683 94 683 103 691.5 c 128,-1,27
 112 700 112 700 125 700 c 0,28,29
 132 700 132 700 139 696 c 128,-1,30
 146 692 146 692 149 687 c 2,31,-1
 594 114 l 1,32,-1
 594 667 l 2,33,34
 594 680 594 680 602.5 688.5 c 128,-1,35
 611 697 611 697 624 697 c 256,36,0
 637 697 637 697 645.5 688.5 c 128,-1,1
EndSplineSet
Validated: 1
EndChar

StartChar: uni019D
Encoding: 413 413 126
Width: 728
GlyphClass: 2
Flags: W
AnchorPoint: "Anchor-8" 0 0 basechar 0
AnchorPoint: "Anchor-7" 0 0 basechar 0
AnchorPoint: "Anchor-6" 347 700 basechar 0
AnchorPoint: "Anchor-5" 0 0 basechar 0
AnchorPoint: "Anchor-4" 347 0 basechar 0
LayerCount: 2
Fore
SplineSet
626.5 692 m 128,-1,1
 634 684 634 684 634 672 c 2,2,-1
 634 32 l 2,3,4
 634 17 634 17 625 8.5 c 128,-1,5
 616 0 616 0 603 0 c 0,6,7
 596 0 596 0 589.5 3 c 128,-1,8
 583 6 583 6 579 10 c 2,9,-1
 151 587 l 1,10,-1
 151 -46 l 2,11,12
 151 -120 151 -120 107.5 -154.5 c 128,-1,13
 64 -189 64 -189 11 -198 c 0,14,15
 -2 -199 -2 -199 -11 -190.5 c 128,-1,16
 -20 -182 -20 -182 -20 -170 c 0,17,18
 -20 -143 -20 -143 7 -138 c 0,19,20
 44 -130 44 -130 69 -105 c 128,-1,21
 94 -80 94 -80 94 -37 c 2,22,-1
 94 670 l 2,23,24
 94 684 94 684 102.5 692 c 128,-1,25
 111 700 111 700 123 700 c 0,26,27
 139 700 139 700 147 689 c 2,28,-1
 577 110 l 1,29,-1
 577 672 l 2,30,31
 577 684 577 684 585.5 692 c 128,-1,32
 594 700 594 700 606 700 c 0,33,0
 619 700 619 700 626.5 692 c 128,-1,1
EndSplineSet
Validated: 1
EndChar

StartChar: O
Encoding: 79 79 130
Width: 766
GlyphClass: 2
Flags: W
AnchorPoint: "Anchor-8" 388 700 basechar 0
AnchorPoint: "Anchor-7" 383 350 basechar 0
AnchorPoint: "Anchor-6" 383 700 basechar 0
AnchorPoint: "Anchor-5" 689 10 basechar 0
AnchorPoint: "Anchor-4" 383 0 basechar 0
LayerCount: 2
Fore
SplineSet
675 165 m 128,-1,1
 632 83 632 83 556 36.5 c 128,-1,2
 480 -10 480 -10 383 -10 c 256,3,4
 286 -10 286 -10 210 36.5 c 128,-1,5
 134 83 134 83 91 165 c 128,-1,6
 48 247 48 247 48 350 c 0,7,8
 48 454 48 454 91 536 c 128,-1,9
 134 618 134 618 210 664 c 128,-1,10
 286 710 286 710 383 710 c 256,11,12
 480 710 480 710 556 664 c 128,-1,13
 632 618 632 618 675 536 c 128,-1,14
 718 454 718 454 718 350 c 0,15,0
 718 247 718 247 675 165 c 128,-1,1
619.5 505.5 m 128,-1,17
 585 574 585 574 523.5 612 c 128,-1,18
 462 650 462 650 383 650 c 256,19,20
 304 650 304 650 242.5 612 c 128,-1,21
 181 574 181 574 146.5 505.5 c 128,-1,22
 112 437 112 437 112 350 c 256,23,24
 112 263 112 263 146.5 194.5 c 128,-1,25
 181 126 181 126 242.5 88 c 128,-1,26
 304 50 304 50 383 50 c 256,27,28
 462 50 462 50 523.5 88 c 128,-1,29
 585 126 585 126 619.5 194.5 c 128,-1,30
 654 263 654 263 654 350 c 256,31,16
 654 437 654 437 619.5 505.5 c 128,-1,17
EndSplineSet
Validated: 1
Substitution2: "Single Substitution lookup 20 subtable" ordmasculine
EndChar

StartChar: Ohorn
Encoding: 416 416 147
Width: 766
GlyphClass: 2
Flags: W
AnchorPoint: "Anchor-8" 388 700 basechar 0
AnchorPoint: "Anchor-7" 383 350 basechar 0
AnchorPoint: "Anchor-6" 383 700 basechar 0
AnchorPoint: "Anchor-5" 689 10 basechar 0
AnchorPoint: "Anchor-4" 383 0 basechar 0
LayerCount: 2
Fore
SplineSet
673 539 m 128,-1,1
 718 456 718 456 718 350 c 0,2,3
 718 247 718 247 675 165 c 128,-1,4
 632 83 632 83 556 36.5 c 128,-1,5
 480 -10 480 -10 383 -10 c 256,6,7
 286 -10 286 -10 210 36.5 c 128,-1,8
 134 83 134 83 91 165 c 128,-1,9
 48 247 48 247 48 350 c 0,10,11
 48 454 48 454 91 536 c 128,-1,12
 134 618 134 618 210 664 c 128,-1,13
 286 710 286 710 383 710 c 0,14,15
 427 710 427 710 471 699 c 1,16,17
 514 701 514 701 535 719 c 128,-1,18
 556 737 556 737 556 776 c 0,19,20
 556 791 556 791 562.5 801.5 c 128,-1,21
 569 812 569 812 582 812 c 0,22,23
 608 812 608 812 608 776 c 0,24,25
 608 739 608 739 593 711 c 128,-1,26
 578 683 578 683 550 667 c 1,27,0
 628 622 628 622 673 539 c 128,-1,1
523.5 88 m 128,-1,29
 585 126 585 126 619.5 194.5 c 128,-1,30
 654 263 654 263 654 350 c 256,31,32
 654 437 654 437 619.5 505.5 c 128,-1,33
 585 574 585 574 523.5 612 c 128,-1,34
 462 650 462 650 383 650 c 256,35,36
 304 650 304 650 242.5 612 c 128,-1,37
 181 574 181 574 146.5 505.5 c 128,-1,38
 112 437 112 437 112 350 c 256,39,40
 112 263 112 263 146.5 194.5 c 128,-1,41
 181 126 181 126 242.5 88 c 128,-1,42
 304 50 304 50 383 50 c 256,43,28
 462 50 462 50 523.5 88 c 128,-1,29
EndSplineSet
Validated: 1
EndChar

StartChar: uni01EA
Encoding: 490 490 158
Width: 766
GlyphClass: 2
Flags: W
AnchorPoint: "Anchor-8" 388 700 basechar 0
AnchorPoint: "Anchor-7" 383 350 basechar 0
AnchorPoint: "Anchor-6" 383 700 basechar 0
AnchorPoint: "Anchor-5" 689 10 basechar 0
AnchorPoint: "Anchor-4" 383 0 basechar 0
LayerCount: 2
Fore
SplineSet
398.5 -37.5 m 128,-1,1
 381 -59 381 -59 381 -83 c 0,2,3
 381 -109 381 -109 395.5 -124.5 c 128,-1,4
 410 -140 410 -140 430 -140 c 0,5,6
 440 -140 440 -140 446 -138.5 c 128,-1,7
 452 -137 452 -137 456 -131 c 0,8,9
 471 -113 471 -113 485 -113 c 0,10,11
 495 -113 495 -113 501 -119 c 128,-1,12
 507 -125 507 -125 507 -135 c 0,13,14
 507 -157 507 -157 482.5 -174 c 128,-1,15
 458 -191 458 -191 424 -191 c 0,16,17
 385 -191 385 -191 356.5 -164.5 c 128,-1,18
 328 -138 328 -138 328 -95 c 0,19,20
 328 -44 328 -44 364 -10 c 1,21,22
 272 -5 272 -5 200 42.5 c 128,-1,23
 128 90 128 90 88 170 c 128,-1,24
 48 250 48 250 48 350 c 0,25,26
 48 454 48 454 91 536 c 128,-1,27
 134 618 134 618 210 664 c 128,-1,28
 286 710 286 710 383 710 c 256,29,30
 480 710 480 710 556 664 c 128,-1,31
 632 618 632 618 675 536 c 128,-1,32
 718 454 718 454 718 350 c 0,33,34
 718 258 718 258 683.5 182 c 128,-1,35
 649 106 649 106 586.5 57 c 128,-1,36
 524 8 524 8 443 -5 c 1,37,0
 416 -16 416 -16 398.5 -37.5 c 128,-1,1
146.5 194.5 m 128,-1,39
 181 126 181 126 242.5 88 c 128,-1,40
 304 50 304 50 383 50 c 256,41,42
 462 50 462 50 523.5 88 c 128,-1,43
 585 126 585 126 619.5 194.5 c 128,-1,44
 654 263 654 263 654 350 c 256,45,46
 654 437 654 437 619.5 505.5 c 128,-1,47
 585 574 585 574 523.5 612 c 128,-1,48
 462 650 462 650 383 650 c 256,49,50
 304 650 304 650 242.5 612 c 128,-1,51
 181 574 181 574 146.5 505.5 c 128,-1,52
 112 437 112 437 112 350 c 256,53,38
 112 263 112 263 146.5 194.5 c 128,-1,39
EndSplineSet
Validated: 1
EndChar

StartChar: Oslash
Encoding: 216 216 159
Width: 726
GlyphClass: 2
Flags: W
AnchorPoint: "Anchor-8" 388 700 basechar 0
AnchorPoint: "Anchor-7" 383 350 basechar 0
AnchorPoint: "Anchor-6" 363 700 basechar 0
AnchorPoint: "Anchor-5" 689 10 basechar 0
AnchorPoint: "Anchor-4" 363 0 basechar 0
LayerCount: 2
Fore
SplineSet
691.5 498.5 m 128,-1,1
 718 430 718 430 718 350 c 0,2,3
 718 247 718 247 675 165 c 128,-1,4
 632 83 632 83 556 36.5 c 128,-1,5
 480 -10 480 -10 383 -10 c 0,6,7
 319 -10 319 -10 263.5 10.5 c 128,-1,8
 208 31 208 31 165 70 c 1,9,-1
 102 -6 l 2,10,11
 89 -23 89 -23 73 -23 c 0,12,13
 63 -23 63 -23 55.5 -15 c 128,-1,14
 48 -7 48 -7 48 3 c 256,15,16
 48 13 48 13 55 21 c 2,17,-1
 127 109 l 1,18,19
 89 156 89 156 68.5 217.5 c 128,-1,20
 48 279 48 279 48 350 c 0,21,22
 48 454 48 454 91 536 c 128,-1,23
 134 618 134 618 210 664 c 128,-1,24
 286 710 286 710 383 710 c 0,25,26
 494 710 494 710 576 651 c 1,27,-1
 627 713 l 2,28,29
 633 721 633 721 638.5 723.5 c 128,-1,30
 644 726 644 726 653 726 c 0,31,32
 663 726 663 726 671 719 c 128,-1,33
 679 712 679 712 679 702 c 0,34,35
 679 691 679 691 671 682 c 2,36,-1
 617 616 l 1,37,0
 665 567 665 567 691.5 498.5 c 128,-1,1
168 158 m 1,39,-1
 536 603 l 1,40,41
 470 650 470 650 383 650 c 0,42,43
 304 650 304 650 242.5 612 c 128,-1,44
 181 574 181 574 146.5 505.5 c 128,-1,45
 112 437 112 437 112 350 c 0,46,38
 112 237 112 237 168 158 c 1,39,-1
523.5 88 m 128,-1,48
 585 126 585 126 619.5 194.5 c 128,-1,49
 654 263 654 263 654 350 c 0,50,51
 654 416 654 416 634 472 c 128,-1,52
 614 528 614 528 577 568 c 1,53,-1
 204 117 l 1,54,55
 239 85 239 85 284.5 67.5 c 128,-1,56
 330 50 330 50 383 50 c 0,57,47
 462 50 462 50 523.5 88 c 128,-1,48
EndSplineSet
Validated: 1
EndChar

StartChar: OE
Encoding: 338 338 165
Width: 990
GlyphClass: 2
Flags: W
AnchorPoint: "Anchor-8" 0 0 basechar 0
AnchorPoint: "Anchor-7" 0 0 basechar 0
AnchorPoint: "Anchor-6" 492 700 basechar 0
AnchorPoint: "Anchor-5" 0 0 basechar 0
AnchorPoint: "Anchor-4" 492 0 basechar 0
LayerCount: 2
Fore
SplineSet
934.5 51.5 m 128,-1,1
 943 43 943 43 943 30 c 256,2,3
 943 17 943 17 934.5 8.5 c 128,-1,4
 926 0 926 0 913 0 c 2,5,-1
 340 0 l 2,6,7
 244 0 244 0 178.5 46.5 c 128,-1,8
 113 93 113 93 80.5 172 c 128,-1,9
 48 251 48 251 48 350 c 0,10,11
 48 446 48 446 80.5 525.5 c 128,-1,12
 113 605 113 605 178.5 652.5 c 128,-1,13
 244 700 244 700 340 700 c 2,14,-1
 913 700 l 2,15,16
 926 700 926 700 934.5 691.5 c 128,-1,17
 943 683 943 683 943 670 c 256,18,19
 943 657 943 657 934.5 648.5 c 128,-1,20
 926 640 926 640 913 640 c 2,21,-1
 586 640 l 1,22,-1
 586 391 l 1,23,-1
 868 391 l 2,24,25
 881 391 881 391 889.5 382 c 128,-1,26
 898 373 898 373 898 360 c 256,27,28
 898 347 898 347 889.5 339 c 128,-1,29
 881 331 881 331 868 331 c 2,30,-1
 586 331 l 1,31,-1
 586 60 l 1,32,-1
 913 60 l 2,33,0
 926 60 926 60 934.5 51.5 c 128,-1,1
167.5 140.5 m 128,-1,35
 227 60 227 60 348 60 c 2,36,-1
 525 60 l 1,37,-1
 525 640 l 1,38,-1
 348 640 l 2,39,40
 267 640 267 640 213 601 c 128,-1,41
 159 562 159 562 133.5 496 c 128,-1,42
 108 430 108 430 108 350 c 0,43,34
 108 221 108 221 167.5 140.5 c 128,-1,35
EndSplineSet
Validated: 1
EndChar

StartChar: P
Encoding: 80 80 166
Width: 596
GlyphClass: 2
Flags: W
AnchorPoint: "Anchor-8" 0 0 basechar 0
AnchorPoint: "Anchor-7" 128 168 basechar 0
AnchorPoint: "Anchor-6" 298 700 basechar 0
AnchorPoint: "Anchor-5" 0 0 basechar 0
AnchorPoint: "Anchor-4" 298 0 basechar 0
LayerCount: 2
Fore
SplineSet
460 674.5 m 128,-1,1
 504 649 504 649 528.5 603.5 c 128,-1,2
 553 558 553 558 553 501 c 256,3,4
 553 444 553 444 528.5 397 c 128,-1,5
 504 350 504 350 460 323 c 128,-1,6
 416 296 416 296 361 296 c 2,7,-1
 154 296 l 1,8,-1
 154 30 l 2,9,10
 154 17 154 17 145.5 8.5 c 128,-1,11
 137 0 137 0 124 0 c 256,12,13
 111 0 111 0 102.5 8.5 c 128,-1,14
 94 17 94 17 94 30 c 2,15,-1
 94 670 l 2,16,17
 94 683 94 683 102.5 691.5 c 128,-1,18
 111 700 111 700 124 700 c 2,19,-1
 361 700 l 2,20,0
 416 700 416 700 460 674.5 c 128,-1,1
455 396 m 128,-1,22
 491 438 491 438 491 501 c 0,23,24
 491 563 491 563 455 602 c 128,-1,25
 419 641 419 641 361 641 c 2,26,-1
 154 641 l 1,27,-1
 154 354 l 1,28,-1
 361 354 l 2,29,21
 419 354 419 354 455 396 c 128,-1,22
EndSplineSet
Validated: 1
EndChar

StartChar: Thorn
Encoding: 222 222 167
Width: 588
GlyphClass: 2
Flags: W
AnchorPoint: "Anchor-8" 0 0 basechar 0
AnchorPoint: "Anchor-7" 0 0 basechar 0
AnchorPoint: "Anchor-6" 265 700 basechar 0
AnchorPoint: "Anchor-5" 0 0 basechar 0
AnchorPoint: "Anchor-4" 265 0 basechar 0
LayerCount: 2
Fore
SplineSet
451.5 567 m 128,-1,1
 495 541 495 541 519.5 495.5 c 128,-1,2
 544 450 544 450 544 393 c 256,3,4
 544 336 544 336 519.5 289.5 c 128,-1,5
 495 243 495 243 451.5 216 c 128,-1,6
 408 189 408 189 353 189 c 2,7,-1
 154 189 l 1,8,-1
 154 30 l 2,9,10
 154 17 154 17 145.5 8.5 c 128,-1,11
 137 0 137 0 124 0 c 256,12,13
 111 0 111 0 102.5 8.5 c 128,-1,14
 94 17 94 17 94 30 c 2,15,-1
 94 710 l 2,16,17
 94 723 94 723 102.5 731.5 c 128,-1,18
 111 740 111 740 124 740 c 256,19,20
 137 740 137 740 145.5 731.5 c 128,-1,21
 154 723 154 723 154 710 c 2,22,-1
 154 593 l 1,23,-1
 353 593 l 2,24,0
 408 593 408 593 451.5 567 c 128,-1,1
447 290 m 128,-1,26
 483 331 483 331 483 393 c 256,27,28
 483 455 483 455 447 494 c 128,-1,29
 411 533 411 533 353 533 c 2,30,-1
 154 533 l 1,31,-1
 154 249 l 1,32,-1
 353 249 l 2,33,25
 411 249 411 249 447 290 c 128,-1,26
EndSplineSet
Validated: 1
EndChar

StartChar: Q
Encoding: 81 81 168
Width: 775
GlyphClass: 2
Flags: W
AnchorPoint: "Anchor-8" 0 0 basechar 0
AnchorPoint: "Anchor-7" 0 0 basechar 0
AnchorPoint: "Anchor-6" 388 700 basechar 0
AnchorPoint: "Anchor-5" 0 0 basechar 0
AnchorPoint: "Anchor-4" 388 0 basechar 0
LayerCount: 2
Fore
SplineSet
785 -64 m 128,-1,1
 793 -72 793 -72 793 -83 c 0,2,3
 793 -105 793 -105 763.5 -126 c 128,-1,4
 734 -147 734 -147 690.5 -160.5 c 128,-1,5
 647 -174 647 -174 610 -174 c 0,6,7
 553 -174 553 -174 514.5 -161.5 c 128,-1,8
 476 -149 476 -149 430 -126 c 0,9,10
 393 -106 393 -106 367 -97 c 128,-1,11
 341 -88 341 -88 306 -88 c 0,12,13
 293 -88 293 -88 282.5 -91 c 128,-1,14
 272 -94 272 -94 257 -101 c 0,15,16
 235 -111 235 -111 225 -111 c 0,17,18
 213 -111 213 -111 204.5 -102 c 128,-1,19
 196 -93 196 -93 196 -81 c 0,20,21
 196 -61 196 -61 213 -55 c 2,22,-1
 344 -8 l 1,23,24
 257 1 257 1 190 49.5 c 128,-1,25
 123 98 123 98 85.5 176 c 128,-1,26
 48 254 48 254 48 350 c 0,27,28
 48 454 48 454 91 536 c 128,-1,29
 134 618 134 618 210 664 c 128,-1,30
 286 710 286 710 383 710 c 256,31,32
 480 710 480 710 556 664 c 128,-1,33
 632 618 632 618 675 536 c 128,-1,34
 718 454 718 454 718 350 c 0,35,36
 718 261 718 261 685.5 187 c 128,-1,37
 653 113 653 113 595 64 c 128,-1,38
 537 15 537 15 460 -2 c 1,39,-1
 355 -37 l 1,40,41
 384 -40 384 -40 407.5 -49.5 c 128,-1,42
 431 -59 431 -59 467 -76 c 0,43,44
 508 -97 508 -97 540 -107.5 c 128,-1,45
 572 -118 572 -118 612 -118 c 0,46,47
 646 -118 646 -118 670.5 -109 c 128,-1,48
 695 -100 695 -100 718 -86 c 0,49,50
 727 -81 727 -81 737 -71 c 0,51,52
 744 -65 744 -65 751.5 -60.5 c 128,-1,53
 759 -56 759 -56 766 -56 c 0,54,0
 777 -56 777 -56 785 -64 c 128,-1,1
146.5 194.5 m 128,-1,56
 181 126 181 126 242.5 88 c 128,-1,57
 304 50 304 50 383 50 c 256,58,59
 462 50 462 50 523.5 88 c 128,-1,60
 585 126 585 126 619.5 194.5 c 128,-1,61
 654 263 654 263 654 350 c 256,62,63
 654 437 654 437 619.5 505.5 c 128,-1,64
 585 574 585 574 523.5 612 c 128,-1,65
 462 650 462 650 383 650 c 256,66,67
 304 650 304 650 242.5 612 c 128,-1,68
 181 574 181 574 146.5 505.5 c 128,-1,69
 112 437 112 437 112 350 c 256,70,55
 112 263 112 263 146.5 194.5 c 128,-1,56
EndSplineSet
Validated: 1
EndChar

StartChar: R
Encoding: 82 82 169
Width: 670
GlyphClass: 2
Flags: W
AnchorPoint: "Anchor-8" 0 0 basechar 0
AnchorPoint: "Anchor-7" 0 0 basechar 0
AnchorPoint: "Anchor-6" 331 700 basechar 0
AnchorPoint: "Anchor-5" 0 0 basechar 0
AnchorPoint: "Anchor-4" 331 0 basechar 0
LayerCount: 2
Fore
SplineSet
620 29 m 0,1,2
 620 24 620 24 616 16 c 0,3,4
 612 9 612 9 605 5 c 128,-1,5
 598 1 598 1 590 1 c 0,6,7
 580 1 580 1 573 5 c 0,8,9
 545 21 545 21 528 57 c 128,-1,10
 511 93 511 93 511 172 c 0,11,12
 511 242 511 242 472 270.5 c 128,-1,13
 433 299 433 299 379 299 c 2,14,-1
 157 299 l 1,15,-1
 157 30 l 2,16,17
 157 17 157 17 149 8.5 c 128,-1,18
 141 0 141 0 128 0 c 0,19,20
 114 0 114 0 104 8.5 c 128,-1,21
 94 17 94 17 94 30 c 2,22,-1
 94 670 l 2,23,24
 94 683 94 683 102.5 691.5 c 128,-1,25
 111 700 111 700 124 700 c 2,26,-1
 394 700 l 2,27,28
 451 700 451 700 496 675.5 c 128,-1,29
 541 651 541 651 566.5 608 c 128,-1,30
 592 565 592 565 592 511 c 0,31,32
 592 447 592 447 558.5 398.5 c 128,-1,33
 525 350 525 350 471 332 c 1,34,35
 515 315 515 315 543 274.5 c 128,-1,36
 571 234 571 234 572 176 c 0,37,38
 573 114 573 114 580.5 89 c 128,-1,39
 588 64 588 64 605 54 c 0,40,0
 620 44 620 44 620 29 c 0,1,2
397 354 m 2,41,42
 432 357 432 357 462 377 c 128,-1,43
 492 397 492 397 510 431 c 128,-1,44
 528 465 528 465 528 509 c 0,45,46
 528 566 528 566 489.5 603.5 c 128,-1,47
 451 641 451 641 389 641 c 2,48,-1
 157 641 l 1,49,-1
 157 354 l 1,50,-1
 397 354 l 2,41,42
EndSplineSet
Validated: 1
EndChar

StartChar: S
Encoding: 83 83 177
Width: 562
GlyphClass: 2
Flags: W
AnchorPoint: "Anchor-8" 0 0 basechar 0
AnchorPoint: "Anchor-7" 0 0 basechar 0
AnchorPoint: "Anchor-6" 281 700 basechar 0
AnchorPoint: "Anchor-5" 0 0 basechar 0
AnchorPoint: "Anchor-4" 281 0 basechar 0
LayerCount: 2
Fore
SplineSet
155.5 14 m 128,-1,1
 100 38 100 38 48 89 c 0,2,3
 36 99 36 99 36 113 c 0,4,5
 36 125 36 125 45.5 135 c 128,-1,6
 55 145 55 145 67 145 c 256,7,8
 79 145 79 145 89 135 c 0,9,10
 167 49 167 49 284 49 c 0,11,12
 356 49 356 49 403.5 83 c 128,-1,13
 451 117 451 117 451 172 c 0,14,15
 451 215 451 215 427.5 243.5 c 128,-1,16
 404 272 404 272 366 290 c 128,-1,17
 328 308 328 308 269 327 c 0,18,19
 205 346 205 346 161.5 369 c 128,-1,20
 118 392 118 392 91 430.5 c 128,-1,21
 64 469 64 469 64 528 c 0,22,23
 64 581 64 581 92.5 622 c 128,-1,24
 121 663 121 663 172.5 686.5 c 128,-1,25
 224 710 224 710 291 710 c 0,26,27
 352 710 352 710 405.5 689.5 c 128,-1,28
 459 669 459 669 491 631 c 0,29,30
 506 614 506 614 506 602 c 0,31,32
 506 591 506 591 496 581.5 c 128,-1,33
 486 572 486 572 474 572 c 0,34,35
 464 572 464 572 457 579 c 0,36,37
 430 611 430 611 385 631 c 128,-1,38
 340 651 340 651 291 651 c 0,39,40
 218 651 218 651 172 618.5 c 128,-1,41
 126 586 126 586 126 530 c 0,42,43
 126 472 126 472 170 441 c 128,-1,44
 214 410 214 410 296 384 c 0,45,46
 367 363 367 363 412 341 c 128,-1,47
 457 319 457 319 485.5 278.5 c 128,-1,48
 514 238 514 238 514 172 c 0,49,50
 514 121 514 121 484.5 79.5 c 128,-1,51
 455 38 455 38 402.5 14 c 128,-1,52
 350 -10 350 -10 283 -10 c 0,53,0
 211 -10 211 -10 155.5 14 c 128,-1,1
EndSplineSet
Validated: 1
EndChar

StartChar: Scedilla
Encoding: 350 350 182
Width: 562
GlyphClass: 2
Flags: W
AnchorPoint: "Anchor-8" 0 0 basechar 0
AnchorPoint: "Anchor-7" 0 0 basechar 0
AnchorPoint: "Anchor-6" 0 0 basechar 0
AnchorPoint: "Anchor-5" 0 0 basechar 0
AnchorPoint: "Anchor-4" 268 -144 basechar 0
LayerCount: 2
Fore
SplineSet
486 82 m 128,-1,1
 458 41 458 41 408 16.5 c 128,-1,2
 358 -8 358 -8 294 -10 c 1,3,-1
 241 -124 l 2,4,5
 232 -144 232 -144 215 -144 c 0,6,7
 203 -144 203 -144 187.5 -134 c 128,-1,8
 172 -124 172 -124 172 -112 c 0,9,10
 172 -101 172 -101 179 -94 c 2,11,-1
 247 -9 l 1,12,13
 188 -3 188 -3 140.5 21 c 128,-1,14
 93 45 93 45 48 89 c 0,15,16
 36 99 36 99 36 113 c 0,17,18
 36 125 36 125 45.5 135 c 128,-1,19
 55 145 55 145 67 145 c 256,20,21
 79 145 79 145 89 135 c 0,22,23
 167 49 167 49 284 49 c 0,24,25
 356 49 356 49 403.5 83 c 128,-1,26
 451 117 451 117 451 172 c 0,27,28
 451 215 451 215 427.5 243.5 c 128,-1,29
 404 272 404 272 366 290 c 128,-1,30
 328 308 328 308 269 327 c 0,31,32
 205 346 205 346 161.5 369 c 128,-1,33
 118 392 118 392 91 430.5 c 128,-1,34
 64 469 64 469 64 528 c 0,35,36
 64 581 64 581 92.5 622 c 128,-1,37
 121 663 121 663 172.5 686.5 c 128,-1,38
 224 710 224 710 291 710 c 0,39,40
 352 710 352 710 405.5 689.5 c 128,-1,41
 459 669 459 669 491 631 c 0,42,43
 506 614 506 614 506 602 c 0,44,45
 506 591 506 591 496 581.5 c 128,-1,46
 486 572 486 572 474 572 c 0,47,48
 464 572 464 572 457 579 c 0,49,50
 430 611 430 611 385 631 c 128,-1,51
 340 651 340 651 291 651 c 0,52,53
 218 651 218 651 172 618.5 c 128,-1,54
 126 586 126 586 126 530 c 0,55,56
 126 472 126 472 170 441 c 128,-1,57
 214 410 214 410 296 384 c 0,58,59
 367 363 367 363 412 341 c 128,-1,60
 457 319 457 319 485.5 278.5 c 128,-1,61
 514 238 514 238 514 172 c 0,62,0
 514 123 514 123 486 82 c 128,-1,1
EndSplineSet
Validated: 1
Substitution2: "'locl' Localized Forms in Latin lookup 2 subtable" uni0218
Substitution2: "'locl' Localized Forms in Latin lookup 1 subtable" uni0218
EndChar

StartChar: uni1E9E
Encoding: 7838 7838 188
Width: 706
Flags: W
LayerCount: 2
Fore
SplineSet
585.5 324 m 128,-1,1
 615 303 615 303 636 265.5 c 128,-1,2
 657 228 657 228 657 170 c 0,3,4
 657 122 657 122 631.5 80.5 c 128,-1,5
 606 39 606 39 560.5 14.5 c 128,-1,6
 515 -10 515 -10 458 -10 c 0,7,8
 353 -10 353 -10 287 75 c 0,9,10
 278 89 278 89 278 101 c 256,11,12
 278 113 278 113 287.5 123 c 128,-1,13
 297 133 297 133 309 133 c 0,14,15
 322 133 322 133 332 122 c 0,16,17
 356 89 356 89 389.5 69.5 c 128,-1,18
 423 50 423 50 457 50 c 0,19,20
 515 50 515 50 554 82.5 c 128,-1,21
 593 115 593 115 593 167 c 0,22,23
 592 204 592 204 575 230 c 128,-1,24
 558 256 558 256 534.5 272 c 128,-1,25
 511 288 511 288 469 311 c 0,26,27
 427 335 427 335 401 355 c 128,-1,28
 375 375 375 375 357 406.5 c 128,-1,29
 339 438 339 438 339 483 c 0,30,31
 339 550 339 550 389 592.5 c 128,-1,32
 439 635 439 635 523 647 c 1,33,34
 467 672 467 672 393 672 c 0,35,36
 273 672 273 672 216 610 c 128,-1,37
 159 548 159 548 158 450 c 2,38,-1
 156 33 l 2,39,40
 156 19 156 19 147.5 11 c 128,-1,41
 139 3 139 3 125 3 c 256,42,43
 111 3 111 3 102.5 11 c 128,-1,44
 94 19 94 19 94 33 c 2,45,-1
 96 441 l 2,46,47
 96 517 96 517 126 581.5 c 128,-1,48
 156 646 156 646 223 686 c 128,-1,49
 290 726 290 726 393 726 c 0,50,51
 448 726 448 726 499.5 712 c 128,-1,52
 551 698 551 698 585 676 c 0,53,54
 600 666 600 666 606.5 657.5 c 128,-1,55
 613 649 613 649 613 638 c 0,56,57
 613 625 613 625 604 620 c 128,-1,58
 595 615 595 615 574 611 c 0,59,60
 492 600 492 600 448 569.5 c 128,-1,61
 404 539 404 539 404 493 c 0,62,63
 404 462 404 462 418 440 c 128,-1,64
 432 418 432 418 452.5 403.5 c 128,-1,65
 473 389 473 389 508 370 c 0,66,0
 556 345 556 345 585.5 324 c 128,-1,1
EndSplineSet
Validated: 1
EndChar

StartChar: uni018F
Encoding: 399 399 189
Width: 759
Flags: W
LayerCount: 2
Fore
SplineSet
545 661.5 m 128,-1,1
 621 613 621 613 666 530.5 c 128,-1,2
 711 448 711 448 711 350 c 256,3,4
 711 252 711 252 666.5 169.5 c 128,-1,5
 622 87 622 87 545.5 38.5 c 128,-1,6
 469 -10 469 -10 379 -10 c 0,7,8
 293 -10 293 -10 218 34.5 c 128,-1,9
 143 79 143 79 97 156 c 128,-1,10
 51 233 51 233 48 326 c 2,11,-1
 48 345 l 2,12,13
 48 359 48 359 57.5 367.5 c 128,-1,14
 67 376 67 376 81 376 c 2,15,-1
 646 376 l 1,16,17
 640 456 640 456 602.5 518.5 c 128,-1,18
 565 581 565 581 506 615.5 c 128,-1,19
 447 650 447 650 378 650 c 0,20,21
 302 650 302 650 245.5 624 c 128,-1,22
 189 598 189 598 143 542 c 0,23,24
 131 532 131 532 120 532 c 0,25,26
 112 532 112 532 103 538 c 0,27,28
 90 548 90 548 90 562 c 0,29,30
 90 574 90 574 99 583 c 0,31,32
 153 648 153 648 221 679 c 128,-1,33
 289 710 289 710 378 710 c 0,34,0
 469 710 469 710 545 661.5 c 128,-1,1
504.5 84 m 128,-1,36
 563 118 563 118 600.5 178.5 c 128,-1,37
 638 239 638 239 645 316 c 1,38,-1
 111 316 l 1,39,40
 117 243 117 243 154.5 182 c 128,-1,41
 192 121 192 121 251.5 85.5 c 128,-1,42
 311 50 311 50 379 50 c 0,43,35
 446 50 446 50 504.5 84 c 128,-1,36
EndSplineSet
Validated: 1
EndChar

StartChar: T
Encoding: 84 84 190
Width: 604
GlyphClass: 2
Flags: W
AnchorPoint: "Anchor-8" 0 0 basechar 0
AnchorPoint: "Anchor-7" 302 350 basechar 0
AnchorPoint: "Anchor-6" 302 700 basechar 0
AnchorPoint: "Anchor-5" 0 0 basechar 0
AnchorPoint: "Anchor-4" 302 0 basechar 0
LayerCount: 2
Fore
SplineSet
561.5 692 m 128,-1,1
 570 684 570 684 570 671 c 256,2,3
 570 658 570 658 561.5 650.5 c 128,-1,4
 553 643 553 643 540 643 c 2,5,-1
 333 643 l 1,6,-1
 333 30 l 2,7,8
 333 17 333 17 324 8.5 c 128,-1,9
 315 0 315 0 302 0 c 0,10,11
 288 0 288 0 279.5 8.5 c 128,-1,12
 271 17 271 17 271 30 c 2,13,-1
 271 643 l 1,14,-1
 64 643 l 2,15,16
 51 643 51 643 42.5 651 c 128,-1,17
 34 659 34 659 34 672 c 0,18,19
 34 684 34 684 42.5 692 c 128,-1,20
 51 700 51 700 64 700 c 2,21,-1
 540 700 l 2,22,0
 553 700 553 700 561.5 692 c 128,-1,1
EndSplineSet
Validated: 1
EndChar

StartChar: Tbar
Encoding: 358 358 191
Width: 604
GlyphClass: 2
Flags: W
AnchorPoint: "Anchor-8" 0 0 basechar 0
AnchorPoint: "Anchor-7" 302 350 basechar 0
AnchorPoint: "Anchor-6" 302 700 basechar 0
AnchorPoint: "Anchor-5" 0 0 basechar 0
AnchorPoint: "Anchor-4" 302 0 basechar 0
LayerCount: 2
Fore
SplineSet
561.5 692 m 128,-1,1
 570 684 570 684 570 671 c 256,2,3
 570 658 570 658 561.5 650.5 c 128,-1,4
 553 643 553 643 540 643 c 2,5,-1
 333 643 l 1,6,-1
 333 358 l 1,7,-1
 387 358 l 2,8,9
 401 358 401 358 409 350.5 c 128,-1,10
 417 343 417 343 417 330 c 256,11,12
 417 317 417 317 409 309.5 c 128,-1,13
 401 302 401 302 387 302 c 2,14,-1
 333 302 l 1,15,-1
 333 30 l 2,16,17
 333 17 333 17 324 8.5 c 128,-1,18
 315 0 315 0 302 0 c 0,19,20
 288 0 288 0 279.5 8.5 c 128,-1,21
 271 17 271 17 271 30 c 2,22,-1
 271 302 l 1,23,-1
 223 302 l 2,24,25
 209 302 209 302 201 310 c 128,-1,26
 193 318 193 318 193 331 c 0,27,28
 193 343 193 343 201.5 350.5 c 128,-1,29
 210 358 210 358 223 358 c 2,30,-1
 271 358 l 1,31,-1
 271 643 l 1,32,-1
 64 643 l 2,33,34
 51 643 51 643 42.5 651 c 128,-1,35
 34 659 34 659 34 672 c 0,36,37
 34 684 34 684 42.5 692 c 128,-1,38
 51 700 51 700 64 700 c 2,39,-1
 540 700 l 2,40,0
 553 700 553 700 561.5 692 c 128,-1,1
EndSplineSet
Validated: 1
EndChar

StartChar: uni0162
Encoding: 354 354 193
Width: 604
GlyphClass: 2
Flags: W
AnchorPoint: "Anchor-8" 0 0 basechar 0
AnchorPoint: "Anchor-7" 302 350 basechar 0
AnchorPoint: "Anchor-6" 0 0 basechar 0
AnchorPoint: "Anchor-5" 0 0 basechar 0
AnchorPoint: "Anchor-4" 288 -144 basechar 0
LayerCount: 2
Fore
SplineSet
561.5 692 m 128,-1,1
 570 684 570 684 570 671 c 256,2,3
 570 658 570 658 561.5 650.5 c 128,-1,4
 553 643 553 643 540 643 c 2,5,-1
 333 643 l 1,6,-1
 333 30 l 2,7,8
 333 16 333 16 322 7 c 1,9,-1
 262 -124 l 2,10,11
 253 -144 253 -144 236 -144 c 0,12,13
 224 -144 224 -144 208.5 -134 c 128,-1,14
 193 -124 193 -124 193 -112 c 0,15,16
 193 -101 193 -101 200 -94 c 2,17,-1
 281 7 l 1,18,19
 271 17 271 17 271 30 c 2,20,-1
 271 643 l 1,21,-1
 64 643 l 2,22,23
 51 643 51 643 42.5 651 c 128,-1,24
 34 659 34 659 34 672 c 0,25,26
 34 684 34 684 42.5 692 c 128,-1,27
 51 700 51 700 64 700 c 2,28,-1
 540 700 l 2,29,0
 553 700 553 700 561.5 692 c 128,-1,1
EndSplineSet
Validated: 1
Substitution2: "'locl' Localized Forms in Latin lookup 2 subtable" uni021A
Substitution2: "'locl' Localized Forms in Latin lookup 1 subtable" uni021A
EndChar

StartChar: U
Encoding: 85 85 197
Width: 713
GlyphClass: 2
Flags: W
AnchorPoint: "Anchor-8" 512 701 basechar 0
AnchorPoint: "Anchor-7" 0 0 basechar 0
AnchorPoint: "Anchor-6" 357 700 basechar 0
AnchorPoint: "Anchor-5" 641 10 basechar 0
AnchorPoint: "Anchor-4" 357 0 basechar 0
LayerCount: 2
Fore
SplineSet
610.5 691.5 m 128,-1,1
 619 683 619 683 619 670 c 2,2,-1
 619 256 l 2,3,4
 619 183 619 183 584 122 c 128,-1,5
 549 61 549 61 489 26 c 128,-1,6
 429 -9 429 -9 357 -9 c 0,7,8
 284 -9 284 -9 224 26 c 128,-1,9
 164 61 164 61 129 122 c 128,-1,10
 94 183 94 183 94 256 c 2,11,-1
 94 670 l 2,12,13
 94 683 94 683 102.5 691.5 c 128,-1,14
 111 700 111 700 126 700 c 0,15,16
 138 700 138 700 147 691.5 c 128,-1,17
 156 683 156 683 156 670 c 2,18,-1
 156 256 l 2,19,20
 156 200 156 200 183 153 c 128,-1,21
 210 106 210 106 256.5 78.5 c 128,-1,22
 303 51 303 51 357 51 c 0,23,24
 412 51 412 51 458.5 78.5 c 128,-1,25
 505 106 505 106 532.5 153 c 128,-1,26
 560 200 560 200 560 256 c 2,27,-1
 560 670 l 2,28,29
 560 683 560 683 568 691.5 c 128,-1,30
 576 700 576 700 589 700 c 256,31,0
 602 700 602 700 610.5 691.5 c 128,-1,1
EndSplineSet
Validated: 1
EndChar

StartChar: Uhorn
Encoding: 431 431 207
Width: 713
GlyphClass: 2
Flags: W
AnchorPoint: "Anchor-8" 512 701 basechar 0
AnchorPoint: "Anchor-7" 0 0 basechar 0
AnchorPoint: "Anchor-6" 359 700 basechar 0
AnchorPoint: "Anchor-5" 641 10 basechar 0
AnchorPoint: "Anchor-4" 359 0 basechar 0
LayerCount: 2
Fore
SplineSet
702.5 691 m 128,-1,1
 673 657 673 657 619 649 c 1,2,-1
 619 256 l 2,3,4
 619 183 619 183 584 122 c 128,-1,5
 549 61 549 61 489 26 c 128,-1,6
 429 -9 429 -9 357 -9 c 0,7,8
 284 -9 284 -9 224 26 c 128,-1,9
 164 61 164 61 129 122 c 128,-1,10
 94 183 94 183 94 256 c 2,11,-1
 94 670 l 2,12,13
 94 683 94 683 102.5 691.5 c 128,-1,14
 111 700 111 700 126 700 c 0,15,16
 138 700 138 700 147 691.5 c 128,-1,17
 156 683 156 683 156 670 c 2,18,-1
 156 256 l 2,19,20
 156 200 156 200 183 153 c 128,-1,21
 210 106 210 106 256.5 78.5 c 128,-1,22
 303 51 303 51 357 51 c 0,23,24
 412 51 412 51 458.5 78.5 c 128,-1,25
 505 106 505 106 532.5 153 c 128,-1,26
 560 200 560 200 560 256 c 2,27,-1
 560 670 l 2,28,29
 560 682 560 682 567.5 690 c 128,-1,30
 575 698 575 698 586 700 c 0,31,32
 635 700 635 700 657.5 718 c 128,-1,33
 680 736 680 736 680 777 c 0,34,35
 680 792 680 792 687 802.5 c 128,-1,36
 694 813 694 813 707 813 c 0,37,38
 732 813 732 813 732 777 c 0,39,0
 732 725 732 725 702.5 691 c 128,-1,1
EndSplineSet
Validated: 1
EndChar

StartChar: Uogonek
Encoding: 370 370 217
Width: 713
GlyphClass: 2
Flags: W
AnchorPoint: "Anchor-8" 693 700 basechar 0
AnchorPoint: "Anchor-7" 0 0 basechar 0
AnchorPoint: "Anchor-6" 357 700 basechar 0
AnchorPoint: "Anchor-5" 641 10 basechar 0
AnchorPoint: "Anchor-4" 357 0 basechar 0
LayerCount: 2
Fore
SplineSet
610.5 691.5 m 128,-1,1
 619 683 619 683 619 670 c 2,2,-1
 619 256 l 2,3,4
 619 183 619 183 584.5 120.5 c 128,-1,5
 550 58 550 58 489 27 c 0,6,7
 442 2 442 2 415.5 -21.5 c 128,-1,8
 389 -45 389 -45 389 -83 c 0,9,10
 389 -109 389 -109 403.5 -124.5 c 128,-1,11
 418 -140 418 -140 438 -140 c 0,12,13
 460 -140 460 -140 467 -129 c 0,14,15
 477 -113 477 -113 493 -113 c 0,16,17
 503 -113 503 -113 509 -119 c 128,-1,18
 515 -125 515 -125 515 -135 c 0,19,20
 515 -157 515 -157 490.5 -174 c 128,-1,21
 466 -191 466 -191 432 -191 c 0,22,23
 393 -191 393 -191 364.5 -164.5 c 128,-1,24
 336 -138 336 -138 336 -95 c 0,25,26
 336 -45 336 -45 372 -9 c 1,27,-1
 357 -9 l 2,28,29
 284 -9 284 -9 224 26 c 128,-1,30
 164 61 164 61 129 122 c 128,-1,31
 94 183 94 183 94 256 c 2,32,-1
 94 670 l 2,33,34
 94 683 94 683 102.5 691.5 c 128,-1,35
 111 700 111 700 126 700 c 0,36,37
 139 700 139 700 147.5 691.5 c 128,-1,38
 156 683 156 683 156 670 c 2,39,-1
 156 256 l 2,40,41
 156 200 156 200 183 153 c 128,-1,42
 210 106 210 106 256.5 78.5 c 128,-1,43
 303 51 303 51 357 51 c 0,44,45
 413 51 413 51 459.5 78 c 128,-1,46
 506 105 506 105 533 152 c 128,-1,47
 560 199 560 199 560 256 c 2,48,-1
 560 670 l 2,49,50
 560 683 560 683 568.5 691.5 c 128,-1,51
 577 700 577 700 589 700 c 0,52,0
 602 700 602 700 610.5 691.5 c 128,-1,1
EndSplineSet
Validated: 1
EndChar

StartChar: V
Encoding: 86 86 221
Width: 665
GlyphClass: 2
Flags: W
AnchorPoint: "Anchor-8" 0 0 basechar 0
AnchorPoint: "Anchor-7" 0 0 basechar 0
AnchorPoint: "Anchor-6" 332 700 basechar 0
AnchorPoint: "Anchor-5" 0 0 basechar 0
AnchorPoint: "Anchor-4" 332 0 basechar 0
LayerCount: 2
Fore
SplineSet
622 692.5 m 128,-1,1
 631 684 631 684 631 673 c 0,2,3
 631 666 631 666 628 658 c 2,4,-1
 361 20 l 2,5,6
 357 11 357 11 349 5.5 c 128,-1,7
 341 0 341 0 332 0 c 256,8,9
 323 0 323 0 315.5 5 c 128,-1,10
 308 10 308 10 304 19 c 2,11,-1
 38 656 l 2,12,13
 35 662 35 662 35 672 c 0,14,15
 35 685 35 685 44 693 c 128,-1,16
 53 701 53 701 64 701 c 0,17,18
 85 701 85 701 94 679 c 2,19,-1
 335 103 l 1,20,-1
 572 681 l 2,21,22
 577 690 577 690 584.5 695.5 c 128,-1,23
 592 701 592 701 600 701 c 0,24,0
 613 701 613 701 622 692.5 c 128,-1,1
EndSplineSet
Validated: 1
EndChar

StartChar: W
Encoding: 87 87 222
Width: 966
GlyphClass: 2
Flags: W
AnchorPoint: "Anchor-8" 0 0 basechar 0
AnchorPoint: "Anchor-7" 0 0 basechar 0
AnchorPoint: "Anchor-6" 483 700 basechar 0
AnchorPoint: "Anchor-5" 0 0 basechar 0
AnchorPoint: "Anchor-4" 483 0 basechar 0
LayerCount: 2
Fore
SplineSet
927 694 m 128,-1,1
 936 686 936 686 936 672 c 2,2,-1
 934 659 l 1,3,-1
 713 19 l 2,4,5
 710 10 710 10 702.5 5 c 128,-1,6
 695 0 695 0 686 0 c 0,7,8
 663 0 663 0 656 19 c 2,9,-1
 483 446 l 1,10,-1
 310 19 l 2,11,12
 301 0 301 0 280 0 c 0,13,14
 271 0 271 0 263.5 5 c 128,-1,15
 256 10 256 10 254 19 c 2,16,-1
 33 659 l 2,17,18
 30 665 30 665 30 671 c 0,19,20
 30 685 30 685 40.5 693.5 c 128,-1,21
 51 702 51 702 63 702 c 0,22,23
 73 702 73 702 81 697 c 128,-1,24
 89 692 89 692 92 683 c 2,25,-1
 288 111 l 1,26,-1
 456 530 l 2,27,28
 465 550 465 550 484 549 c 0,29,30
 494 550 494 550 501.5 544.5 c 128,-1,31
 509 539 509 539 513 530 c 2,32,-1
 680 111 l 1,33,-1
 874 683 l 2,34,35
 882 702 882 702 904 702 c 0,36,0
 918 702 918 702 927 694 c 128,-1,1
EndSplineSet
Validated: 33
EndChar

StartChar: X
Encoding: 88 88 227
Width: 606
GlyphClass: 2
Flags: W
AnchorPoint: "Anchor-8" 0 0 basechar 0
AnchorPoint: "Anchor-7" 0 0 basechar 0
AnchorPoint: "Anchor-6" 303 700 basechar 0
AnchorPoint: "Anchor-5" 0 0 basechar 0
AnchorPoint: "Anchor-4" 303 0 basechar 0
LayerCount: 2
Fore
SplineSet
565 45 m 2,0,1
 572 35 572 35 572 27 c 0,2,3
 572 13 572 13 562.5 4.5 c 128,-1,4
 553 -4 553 -4 541 -4 c 0,5,6
 526 -4 526 -4 517 9 c 2,7,-1
 301 302 l 1,8,-1
 86 10 l 2,9,10
 77 -4 77 -4 62 -4 c 0,11,12
 50 -4 50 -4 42.5 4.5 c 128,-1,13
 35 13 35 13 35 23 c 256,14,15
 35 33 35 33 42 43 c 2,16,-1
 267 349 l 1,17,-1
 41 655 l 2,18,19
 34 663 34 663 34 673 c 0,20,21
 34 685 34 685 43.5 694 c 128,-1,22
 53 703 53 703 65 703 c 0,23,24
 80 703 80 703 90 691 c 2,25,-1
 305 398 l 1,26,-1
 519 690 l 2,27,28
 530 703 530 703 543 703 c 0,29,30
 555 703 555 703 563.5 695.5 c 128,-1,31
 572 688 572 688 572 677 c 0,32,33
 572 669 572 669 565 658 c 2,34,-1
 340 351 l 1,35,-1
 565 45 l 2,0,1
EndSplineSet
Validated: 1
EndChar

StartChar: Y
Encoding: 89 89 228
Width: 559
GlyphClass: 2
Flags: W
AnchorPoint: "Anchor-8" 0 0 basechar 0
AnchorPoint: "Anchor-7" 0 0 basechar 0
AnchorPoint: "Anchor-6" 280 700 basechar 0
AnchorPoint: "Anchor-5" 0 0 basechar 0
AnchorPoint: "Anchor-4" 281 0 basechar 0
LayerCount: 2
Fore
SplineSet
535 655 m 2,1,-1
 312 348 l 1,2,-1
 312 30 l 2,3,4
 312 17 312 17 303 8.5 c 128,-1,5
 294 0 294 0 281 0 c 256,6,7
 268 0 268 0 259.5 8.5 c 128,-1,8
 251 17 251 17 251 30 c 2,9,-1
 251 347 l 1,10,-1
 27 653 l 2,11,12
 19 662 19 662 19 674 c 256,13,14
 19 686 19 686 29 695 c 128,-1,15
 39 704 39 704 51 704 c 0,16,17
 67 704 67 704 76 690 c 2,18,-1
 283 408 l 1,19,-1
 485 690 l 2,20,21
 496 704 496 704 511 704 c 0,22,23
 523 704 523 704 532 694.5 c 128,-1,24
 541 685 541 685 541 674 c 0,25,0
 541 667 541 667 535 655 c 2,1,-1
EndSplineSet
Validated: 1
EndChar

StartChar: Z
Encoding: 90 90 238
Width: 644
GlyphClass: 2
Flags: W
AnchorPoint: "Anchor-8" 0 0 basechar 0
AnchorPoint: "Anchor-7" 0 0 basechar 0
AnchorPoint: "Anchor-6" 323 700 basechar 0
AnchorPoint: "Anchor-5" 0 0 basechar 0
AnchorPoint: "Anchor-4" 323 0 basechar 0
LayerCount: 2
Fore
SplineSet
585.5 48.5 m 128,-1,1
 594 40 594 40 594 29 c 0,2,3
 594 16 594 16 585.5 8 c 128,-1,4
 577 0 577 0 564 0 c 2,5,-1
 85 0 l 2,6,7
 71 0 71 0 62.5 9.5 c 128,-1,8
 54 19 54 19 54 31 c 0,9,10
 54 40 54 40 60 49 c 2,11,-1
 510 643 l 1,12,-1
 110 643 l 2,13,14
 97 643 97 643 88.5 651 c 128,-1,15
 80 659 80 659 80 672 c 0,16,17
 80 684 80 684 88.5 692 c 128,-1,18
 97 700 97 700 110 700 c 2,19,-1
 565 700 l 2,20,21
 580 700 580 700 589 691 c 128,-1,22
 598 682 598 682 598 670 c 0,23,24
 598 661 598 661 592 652 c 2,25,-1
 143 57 l 1,26,-1
 564 57 l 2,27,0
 577 57 577 57 585.5 48.5 c 128,-1,1
EndSplineSet
Validated: 1
EndChar

StartChar: a
Encoding: 97 97 243
Width: 602
GlyphClass: 2
Flags: W
AnchorPoint: "Anchor-8" 0 0 basechar 0
AnchorPoint: "Anchor-7" 0 0 basechar 0
AnchorPoint: "Anchor-6" 292 503 basechar 0
AnchorPoint: "Anchor-5" 541 8 basechar 0
AnchorPoint: "Anchor-4" 287 0 basechar 0
LayerCount: 2
Fore
SplineSet
515.5 502 m 128,-1,1
 524 493 524 493 524 480 c 2,2,-1
 524 30 l 2,3,4
 524 17 524 17 515.5 8.5 c 128,-1,5
 507 0 507 0 494 0 c 256,6,7
 481 0 481 0 472.5 8.5 c 128,-1,8
 464 17 464 17 464 30 c 2,9,-1
 464 97 l 1,10,11
 439 52 439 52 389 21 c 128,-1,12
 339 -10 339 -10 280 -10 c 0,13,14
 213 -10 213 -10 159.5 25 c 128,-1,15
 106 60 106 60 75.5 121 c 128,-1,16
 45 182 45 182 45 258 c 256,17,18
 45 334 45 334 76 394.5 c 128,-1,19
 107 455 107 455 160.5 489 c 128,-1,20
 214 523 214 523 279 523 c 0,21,22
 339 523 339 523 389 494 c 128,-1,23
 439 465 439 465 464 418 c 1,24,-1
 464 480 l 2,25,26
 464 493 464 493 472.5 502 c 128,-1,27
 481 511 481 511 494 511 c 256,28,0
 507 511 507 511 515.5 502 c 128,-1,1
379.5 73.5 m 128,-1,30
 421 101 421 101 444.5 149.5 c 128,-1,31
 468 198 468 198 468 258 c 0,32,33
 468 316 468 316 444.5 364 c 128,-1,34
 421 412 421 412 379.5 439.5 c 128,-1,35
 338 467 338 467 286 467 c 256,36,37
 234 467 234 467 192.5 440 c 128,-1,38
 151 413 151 413 127.5 365.5 c 128,-1,39
 104 318 104 318 104 258 c 256,40,41
 104 198 104 198 127 149.5 c 128,-1,42
 150 101 150 101 191.5 73.5 c 128,-1,43
 233 46 233 46 286 46 c 0,44,29
 338 46 338 46 379.5 73.5 c 128,-1,30
EndSplineSet
Validated: 1
Substitution2: "Single Substitution lookup 20 subtable" ordfeminine
Substitution2: "'ss01' Style Set 1 lookup 17 subtable" a.ss01
Substitution2: "'salt' Stylistic Alternatives lookup 16 subtable" a.ss01
EndChar

StartChar: aogonek
Encoding: 261 261 265
Width: 601
GlyphClass: 2
Flags: W
AnchorPoint: "Anchor-8" 0 0 basechar 0
AnchorPoint: "Anchor-7" 0 0 basechar 0
AnchorPoint: "Anchor-6" 302 503 basechar 0
AnchorPoint: "Anchor-5" 541 8 basechar 0
AnchorPoint: "Anchor-4" 302 0 basechar 0
LayerCount: 2
Fore
SplineSet
546 -121.5 m 128,-1,1
 552 -128 552 -128 552 -138 c 0,2,3
 552 -159 552 -159 527 -176 c 128,-1,4
 502 -193 502 -193 469 -193 c 0,5,6
 429 -193 429 -193 401 -167 c 128,-1,7
 373 -141 373 -141 373 -97 c 0,8,9
 373 -17 373 -17 464 19 c 1,10,-1
 464 97 l 1,11,12
 439 52 439 52 389 21 c 128,-1,13
 339 -10 339 -10 280 -10 c 0,14,15
 213 -10 213 -10 159.5 25 c 128,-1,16
 106 60 106 60 75.5 121 c 128,-1,17
 45 182 45 182 45 258 c 256,18,19
 45 334 45 334 76 394.5 c 128,-1,20
 107 455 107 455 160.5 489 c 128,-1,21
 214 523 214 523 279 523 c 0,22,23
 339 523 339 523 389 494 c 128,-1,24
 439 465 439 465 464 418 c 1,25,-1
 464 480 l 2,26,27
 464 493 464 493 472.5 502 c 128,-1,28
 481 511 481 511 494 511 c 256,29,30
 507 511 507 511 515.5 502 c 128,-1,31
 524 493 524 493 524 480 c 2,32,-1
 524 21 l 2,33,34
 524 0 524 0 496 -9 c 0,35,36
 466 -19 466 -19 446 -40 c 128,-1,37
 426 -61 426 -61 426 -86 c 0,38,39
 426 -112 426 -112 440.5 -127 c 128,-1,40
 455 -142 455 -142 475 -142 c 0,41,42
 486 -142 486 -142 492.5 -139.5 c 128,-1,43
 499 -137 499 -137 504 -130 c 0,44,45
 517 -115 517 -115 530 -115 c 0,46,0
 540 -115 540 -115 546 -121.5 c 128,-1,1
379.5 73.5 m 128,-1,48
 421 101 421 101 444.5 149.5 c 128,-1,49
 468 198 468 198 468 258 c 0,50,51
 468 316 468 316 444.5 364 c 128,-1,52
 421 412 421 412 379.5 439.5 c 128,-1,53
 338 467 338 467 286 467 c 256,54,55
 234 467 234 467 192.5 440 c 128,-1,56
 151 413 151 413 127.5 365.5 c 128,-1,57
 104 318 104 318 104 258 c 256,58,59
 104 198 104 198 127 149.5 c 128,-1,60
 150 101 150 101 191.5 73.5 c 128,-1,61
 233 46 233 46 286 46 c 0,62,47
 338 46 338 46 379.5 73.5 c 128,-1,48
EndSplineSet
Validated: 1
Substitution2: "'ss01' Style Set 1 lookup 17 subtable" aogonek.ss01
Substitution2: "'salt' Stylistic Alternatives lookup 16 subtable" aogonek.ss01
EndChar

StartChar: ae
Encoding: 230 230 269
Width: 894
GlyphClass: 2
Flags: W
AnchorPoint: "Anchor-8" 0 0 basechar 0
AnchorPoint: "Anchor-7" 0 0 basechar 0
AnchorPoint: "Anchor-6" 447 515 basechar 0
AnchorPoint: "Anchor-5" 843 10 basechar 0
AnchorPoint: "Anchor-4" 409 0 basechar 0
LayerCount: 2
Fore
SplineSet
840.5 264.5 m 128,-1,1
 832 256 832 256 819 256 c 2,2,-1
 441 256 l 1,3,4
 441 196 441 196 465.5 148.5 c 128,-1,5
 490 101 490 101 535.5 73.5 c 128,-1,6
 581 46 581 46 643 46 c 0,7,8
 691 46 691 46 729 66 c 128,-1,9
 767 86 767 86 790 117 c 0,10,11
 801 126 801 126 812 126 c 0,12,13
 822 126 822 126 829.5 118 c 128,-1,14
 837 110 837 110 837 100 c 0,15,16
 837 89 837 89 827 79 c 0,17,18
 796 41 796 41 747 15.5 c 128,-1,19
 698 -10 698 -10 644 -10 c 0,20,21
 570 -10 570 -10 512 21 c 128,-1,22
 454 52 454 52 421 107 c 1,23,24
 385 58 385 58 332 24 c 128,-1,25
 279 -10 279 -10 206 -10 c 0,26,27
 167 -10 167 -10 130 7 c 128,-1,28
 93 24 93 24 69.5 58.5 c 128,-1,29
 46 93 46 93 46 141 c 0,30,31
 46 220 46 220 111.5 265 c 128,-1,32
 177 310 177 310 303 310 c 2,33,-1
 385 310 l 1,34,-1
 385 365 l 2,35,36
 385 422 385 422 350.5 444.5 c 128,-1,37
 316 467 316 467 266 467 c 0,38,39
 218 467 218 467 174 441 c 128,-1,40
 130 415 130 415 105 380 c 0,41,42
 95 368 95 368 81 368 c 0,43,44
 71 368 71 368 63 376 c 128,-1,45
 55 384 55 384 55 394 c 0,46,47
 55 403 55 403 62 413 c 0,48,49
 97 458 97 458 151.5 490.5 c 128,-1,50
 206 523 206 523 266 523 c 0,51,52
 329 523 329 523 375.5 501 c 128,-1,53
 422 479 422 479 436 429 c 1,54,55
 469 474 469 474 516.5 498.5 c 128,-1,56
 564 523 564 523 617 523 c 0,57,58
 677 523 677 523 730 495 c 128,-1,59
 783 467 783 467 815.5 413 c 128,-1,60
 848 359 848 359 850 285 c 0,61,0
 849 273 849 273 840.5 264.5 c 128,-1,1
509.5 425 m 128,-1,63
 460 385 460 385 446 310 c 1,64,-1
 787 310 l 1,65,-1
 787 318 l 1,66,67
 782 363 782 363 757 396.5 c 128,-1,68
 732 430 732 430 694.5 447.5 c 128,-1,69
 657 465 657 465 617 465 c 0,70,62
 559 465 559 465 509.5 425 c 128,-1,63
288.5 63.5 m 128,-1,72
 327 81 327 81 355.5 107.5 c 128,-1,73
 384 134 384 134 397 159 c 1,74,75
 383 204 383 204 383 253 c 2,76,-1
 383 256 l 1,77,-1
 302 256 l 2,78,79
 206 256 206 256 156 226 c 128,-1,80
 106 196 106 196 106 144 c 0,81,82
 106 97 106 97 137.5 71.5 c 128,-1,83
 169 46 169 46 210 46 c 0,84,71
 250 46 250 46 288.5 63.5 c 128,-1,72
EndSplineSet
Validated: 1
EndChar

StartChar: b
Encoding: 98 98 271
Width: 602
GlyphClass: 2
Flags: W
AnchorPoint: "Anchor-8" 0 0 basechar 0
AnchorPoint: "Anchor-7" 0 0 basechar 0
AnchorPoint: "Anchor-6" 302 503 basechar 0
AnchorPoint: "Anchor-5" 0 0 basechar 0
AnchorPoint: "Anchor-4" 302 0 basechar 0
LayerCount: 2
Fore
SplineSet
442 489 m 132,-1,1
 496 455 496 455 526.5 394.5 c 132,-1,2
 557 334 557 334 557 258 c 4,3,4
 557 183 557 183 526.5 121.5 c 132,-1,5
 496 60 496 60 442.5 25 c 132,-1,6
 389 -10 389 -10 323 -10 c 4,7,8
 266 -10 266 -10 217.5 18.5 c 132,-1,9
 169 47 169 47 139 94 c 5,10,-1
 139 28 l 6,11,12
 139 15 139 15 130.5 6 c 132,-1,13
 122 -3 122 -3 109 -3 c 260,14,15
 96 -3 96 -3 87.5 6 c 132,-1,16
 79 15 79 15 79 28 c 6,17,-1
 79 709 l 6,18,19
 79 722 79 722 87.5 730.5 c 132,-1,20
 96 739 96 739 109 739 c 260,21,22
 122 739 122 739 130.5 730.5 c 132,-1,23
 139 722 139 722 139 709 c 6,24,-1
 139 414 l 5,25,26
 166 463 166 463 215 493 c 132,-1,27
 264 523 264 523 322 523 c 4,28,0
 388 523 388 523 442 489 c 132,-1,1
410.5 74 m 128,-1,30
 452 102 452 102 475.5 150.5 c 128,-1,31
 499 199 499 199 499 258 c 0,32,33
 499 318 499 318 475.5 365.5 c 128,-1,34
 452 413 452 413 410.5 440 c 128,-1,35
 369 467 369 467 317 467 c 0,36,37
 264 467 264 467 222 440.5 c 128,-1,38
 180 414 180 414 157 366 c 128,-1,39
 134 318 134 318 134 258 c 256,40,41
 134 198 134 198 157.5 149.5 c 128,-1,42
 181 101 181 101 222.5 73.5 c 128,-1,43
 264 46 264 46 317 46 c 0,44,29
 369 46 369 46 410.5 74 c 128,-1,30
EndSplineSet
Validated: 1
EndChar

StartChar: c
Encoding: 99 99 272
Width: 514
GlyphClass: 2
Flags: W
AnchorPoint: "Anchor-8" 0 0 basechar 0
AnchorPoint: "Anchor-7" 0 0 basechar 0
AnchorPoint: "Anchor-6" 297 503 basechar 0
AnchorPoint: "Anchor-5" 0 0 basechar 0
AnchorPoint: "Anchor-4" 257 0 basechar 0
LayerCount: 2
Fore
SplineSet
387.5 512.5 m 128,-1,1
 428 502 428 502 452.5 484 c 128,-1,2
 477 466 477 466 477 445 c 0,3,4
 477 434 477 434 469.5 425 c 128,-1,5
 462 416 462 416 451 416 c 0,6,7
 441 416 441 416 434.5 420 c 128,-1,8
 428 424 428 424 420 432 c 0,9,10
 407 445 407 445 395 451 c 0,11,12
 380 458 380 458 355.5 462.5 c 128,-1,13
 331 467 331 467 303 467 c 0,14,15
 248 467 248 467 202.5 439 c 128,-1,16
 157 411 157 411 131 363 c 128,-1,17
 105 315 105 315 105 257 c 0,18,19
 105 197 105 197 130 149 c 128,-1,20
 155 101 155 101 199.5 73.5 c 128,-1,21
 244 46 244 46 301 46 c 0,22,23
 337 46 337 46 358.5 52 c 128,-1,24
 380 58 380 58 401 69 c 0,25,26
 408 73 408 73 425 87 c 0,27,28
 433 94 433 94 439 97.5 c 128,-1,29
 445 101 445 101 452 101 c 0,30,31
 464 101 464 101 471 93.5 c 128,-1,32
 478 86 478 86 478 74 c 0,33,34
 478 57 478 57 454 37.5 c 128,-1,35
 430 18 430 18 388 4 c 128,-1,36
 346 -10 346 -10 295 -10 c 0,37,38
 222 -10 222 -10 165 24.5 c 128,-1,39
 108 59 108 59 76.5 120 c 128,-1,40
 45 181 45 181 45 257 c 0,41,42
 45 330 45 330 77 390.5 c 128,-1,43
 109 451 109 451 167 487 c 128,-1,44
 225 523 225 523 300 523 c 0,45,0
 347 523 347 523 387.5 512.5 c 128,-1,1
EndSplineSet
Validated: 1
EndChar

StartChar: ccedilla
Encoding: 231 231 275
Width: 514
GlyphClass: 2
Flags: W
AnchorPoint: "Anchor-8" 0 0 basechar 0
AnchorPoint: "Anchor-7" 0 0 basechar 0
AnchorPoint: "Anchor-6" 0 0 basechar 0
AnchorPoint: "Anchor-5" 0 0 basechar 0
AnchorPoint: "Anchor-4" 257 -144 basechar 0
LayerCount: 2
Fore
SplineSet
456.5 39.5 m 128,-1,1
 435 21 435 21 397 7 c 128,-1,2
 359 -7 359 -7 313 -10 c 1,3,-1
 260 -124 l 2,4,5
 251 -144 251 -144 234 -144 c 0,6,7
 222 -144 222 -144 206.5 -134.5 c 128,-1,8
 191 -125 191 -125 191 -112 c 0,9,10
 191 -101 191 -101 198 -94 c 2,11,-1
 266 -9 l 1,12,13
 200 -2 200 -2 150 34 c 128,-1,14
 100 70 100 70 72.5 128 c 128,-1,15
 45 186 45 186 45 257 c 0,16,17
 45 330 45 330 77 390.5 c 128,-1,18
 109 451 109 451 167 487 c 128,-1,19
 225 523 225 523 300 523 c 0,20,21
 347 523 347 523 387.5 512.5 c 128,-1,22
 428 502 428 502 452.5 484 c 128,-1,23
 477 466 477 466 477 445 c 0,24,25
 477 434 477 434 469.5 425 c 128,-1,26
 462 416 462 416 451 416 c 0,27,28
 441 416 441 416 434.5 420 c 128,-1,29
 428 424 428 424 420 432 c 0,30,31
 407 445 407 445 395 451 c 0,32,33
 380 458 380 458 355.5 462.5 c 128,-1,34
 331 467 331 467 303 467 c 0,35,36
 248 467 248 467 202.5 439 c 128,-1,37
 157 411 157 411 131 363 c 128,-1,38
 105 315 105 315 105 257 c 0,39,40
 105 197 105 197 130 149 c 128,-1,41
 155 101 155 101 199.5 73.5 c 128,-1,42
 244 46 244 46 301 46 c 0,43,44
 337 46 337 46 358.5 52 c 128,-1,45
 380 58 380 58 401 69 c 0,46,47
 408 73 408 73 425 87 c 0,48,49
 433 94 433 94 439 97.5 c 128,-1,50
 445 101 445 101 452 101 c 0,51,52
 464 101 464 101 471 93.5 c 128,-1,53
 478 86 478 86 478 74 c 0,54,0
 478 58 478 58 456.5 39.5 c 128,-1,1
EndSplineSet
Validated: 1
EndChar

StartChar: uni1E09
Encoding: 7689 7689 276
Width: 514
GlyphClass: 2
Flags: W
AnchorPoint: "Anchor-8" 0 0 basechar 0
AnchorPoint: "Anchor-7" 0 0 basechar 0
AnchorPoint: "Anchor-6" 0 0 basechar 0
AnchorPoint: "Anchor-5" 0 0 basechar 0
AnchorPoint: "Anchor-4" 257 -144 basechar 0
LayerCount: 2
Fore
SplineSet
274 557 m 128,-1,1
 269 562 269 562 269 569 c 0,2,3
 269 574 269 574 274 584 c 2,4,-1
 335 679 l 2,5,6
 348 701 348 701 368 701 c 0,7,8
 383 701 383 701 392 692.5 c 128,-1,9
 401 684 401 684 401 670 c 0,10,11
 401 658 401 658 391 646 c 2,12,-1
 316 567 l 2,13,14
 301 552 301 552 285 552 c 0,15,0
 279 552 279 552 274 557 c 128,-1,1
456.5 39.5 m 128,-1,17
 435 21 435 21 397 7 c 128,-1,18
 359 -7 359 -7 313 -10 c 1,19,-1
 260 -124 l 2,20,21
 251 -144 251 -144 234 -144 c 0,22,23
 222 -144 222 -144 206.5 -134.5 c 128,-1,24
 191 -125 191 -125 191 -112 c 0,25,26
 191 -101 191 -101 198 -94 c 2,27,-1
 266 -9 l 1,28,29
 200 -2 200 -2 150 34 c 128,-1,30
 100 70 100 70 72.5 128 c 128,-1,31
 45 186 45 186 45 257 c 0,32,33
 45 330 45 330 77 390.5 c 128,-1,34
 109 451 109 451 167 487 c 128,-1,35
 225 523 225 523 300 523 c 0,36,37
 347 523 347 523 387.5 512.5 c 128,-1,38
 428 502 428 502 452.5 484 c 128,-1,39
 477 466 477 466 477 445 c 0,40,41
 477 434 477 434 469.5 425 c 128,-1,42
 462 416 462 416 451 416 c 0,43,44
 441 416 441 416 434.5 420 c 128,-1,45
 428 424 428 424 420 432 c 0,46,47
 407 445 407 445 395 451 c 0,48,49
 380 458 380 458 355.5 462.5 c 128,-1,50
 331 467 331 467 303 467 c 0,51,52
 248 467 248 467 202.5 439 c 128,-1,53
 157 411 157 411 131 363 c 128,-1,54
 105 315 105 315 105 257 c 0,55,56
 105 197 105 197 130 149 c 128,-1,57
 155 101 155 101 199.5 73.5 c 128,-1,58
 244 46 244 46 301 46 c 0,59,60
 337 46 337 46 358.5 52 c 128,-1,61
 380 58 380 58 401 69 c 0,62,63
 408 73 408 73 425 87 c 0,64,65
 433 94 433 94 439 97.5 c 128,-1,66
 445 101 445 101 452 101 c 0,67,68
 464 101 464 101 471 93.5 c 128,-1,69
 478 86 478 86 478 74 c 0,70,16
 478 58 478 58 456.5 39.5 c 128,-1,17
EndSplineSet
Validated: 1
EndChar

StartChar: d
Encoding: 100 100 279
Width: 602
GlyphClass: 2
Flags: W
AnchorPoint: "Anchor-8" 582 503 basechar 0
AnchorPoint: "Anchor-7" 470 614 basechar 0
AnchorPoint: "Anchor-6" 302 503 basechar 0
AnchorPoint: "Anchor-5" 0 0 basechar 0
AnchorPoint: "Anchor-4" 302 0 basechar 0
LayerCount: 2
Fore
SplineSet
515.5 731.5 m 128,-1,1
 524 723 524 723 524 710 c 2,2,-1
 524 30 l 2,3,4
 524 17 524 17 515.5 8.5 c 128,-1,5
 507 0 507 0 494 0 c 256,6,7
 481 0 481 0 472.5 8.5 c 128,-1,8
 464 17 464 17 464 30 c 2,9,-1
 464 100 l 1,10,11
 439 54 439 54 389.5 22 c 128,-1,12
 340 -10 340 -10 280 -10 c 0,13,14
 214 -10 214 -10 160.5 24.5 c 128,-1,15
 107 59 107 59 76 120 c 128,-1,16
 45 181 45 181 45 257 c 0,17,18
 45 332 45 332 76 393 c 128,-1,19
 107 454 107 454 160.5 488.5 c 128,-1,20
 214 523 214 523 279 523 c 0,21,22
 338 523 338 523 388 493.5 c 128,-1,23
 438 464 438 464 464 417 c 1,24,-1
 464 710 l 2,25,26
 464 723 464 723 472.5 731.5 c 128,-1,27
 481 740 481 740 494 740 c 256,28,0
 507 740 507 740 515.5 731.5 c 128,-1,1
379.5 73 m 128,-1,30
 421 100 421 100 444.5 148.5 c 128,-1,31
 468 197 468 197 468 257 c 0,32,33
 468 316 468 316 444.5 364 c 128,-1,34
 421 412 421 412 379.5 439.5 c 128,-1,35
 338 467 338 467 286 467 c 256,36,37
 234 467 234 467 192.5 439.5 c 128,-1,38
 151 412 151 412 127.5 364 c 128,-1,39
 104 316 104 316 104 257 c 0,40,41
 104 197 104 197 127.5 149 c 128,-1,42
 151 101 151 101 192.5 73.5 c 128,-1,43
 234 46 234 46 286 46 c 256,44,29
 338 46 338 46 379.5 73 c 128,-1,30
EndSplineSet
Validated: 1
EndChar

StartChar: eth
Encoding: 240 240 280
Width: 565
Flags: W
LayerCount: 2
Fore
SplineSet
492 451.5 m 128,-1,1
 520 362 520 362 520 284 c 0,2,3
 520 200 520 200 488.5 135 c 128,-1,4
 457 70 457 70 402.5 33.5 c 128,-1,5
 348 -3 348 -3 282 -3 c 0,6,7
 217 -3 217 -3 162.5 33 c 128,-1,8
 108 69 108 69 76.5 129.5 c 128,-1,9
 45 190 45 190 45 261 c 0,10,11
 45 331 45 331 77 390 c 128,-1,12
 109 449 109 449 162.5 483.5 c 128,-1,13
 216 518 216 518 278 518 c 0,14,15
 326 518 326 518 364.5 497.5 c 128,-1,16
 403 477 403 477 431 442 c 1,17,18
 406 533 406 533 352 592 c 1,19,-1
 217 547 l 2,20,21
 209 545 209 545 206 545 c 0,22,23
 195 545 195 545 188.5 551.5 c 128,-1,24
 182 558 182 558 182 570 c 0,25,26
 182 589 182 589 202 594 c 2,27,-1
 309 630 l 1,28,29
 260 667 260 667 193 680 c 0,30,31
 167 688 167 688 167 709 c 0,32,33
 167 722 167 722 174 731 c 128,-1,34
 181 740 181 740 194 740 c 0,35,36
 202 740 202 740 207 738 c 0,37,38
 300 717 300 717 370 652 c 1,39,-1
 453 679 l 2,40,41
 461 681 461 681 464 681 c 0,42,43
 474 681 474 681 481 674.5 c 128,-1,44
 488 668 488 668 488 656 c 0,45,46
 488 647 488 647 482.5 640.5 c 128,-1,47
 477 634 477 634 468 632 c 2,48,-1
 408 611 l 1,49,0
 464 541 464 541 492 451.5 c 128,-1,1
370.5 83 m 128,-1,51
 411 111 411 111 435 158.5 c 128,-1,52
 459 206 459 206 459 261 c 0,53,54
 459 313 459 313 435.5 359 c 128,-1,55
 412 405 412 405 371 432.5 c 128,-1,56
 330 460 330 460 282 460 c 0,57,58
 233 460 233 460 192.5 433.5 c 128,-1,59
 152 407 152 407 128.5 361.5 c 128,-1,60
 105 316 105 316 105 261 c 256,61,62
 105 206 105 206 129 158.5 c 128,-1,63
 153 111 153 111 193.5 83 c 128,-1,64
 234 55 234 55 282 55 c 256,65,50
 330 55 330 55 370.5 83 c 128,-1,51
EndSplineSet
Validated: 1
EndChar

StartChar: dcroat
Encoding: 273 273 282
Width: 602
GlyphClass: 2
Flags: W
AnchorPoint: "Anchor-8" 582 503 basechar 0
AnchorPoint: "Anchor-7" 470 614 basechar 0
AnchorPoint: "Anchor-6" 302 503 basechar 0
AnchorPoint: "Anchor-5" 0 0 basechar 0
AnchorPoint: "Anchor-4" 302 0 basechar 0
LayerCount: 2
Fore
SplineSet
576 635.5 m 128,-1,1
 584 628 584 628 584 615 c 256,2,3
 584 602 584 602 576 594.5 c 128,-1,4
 568 587 568 587 554 587 c 2,5,-1
 524 587 l 1,6,-1
 524 30 l 2,7,8
 524 17 524 17 515.5 8.5 c 128,-1,9
 507 0 507 0 494 0 c 256,10,11
 481 0 481 0 472.5 8.5 c 128,-1,12
 464 17 464 17 464 30 c 2,13,-1
 464 100 l 1,14,15
 439 54 439 54 389.5 22 c 128,-1,16
 340 -10 340 -10 280 -10 c 0,17,18
 214 -10 214 -10 160.5 24.5 c 128,-1,19
 107 59 107 59 76 120 c 128,-1,20
 45 181 45 181 45 257 c 0,21,22
 45 332 45 332 76 393 c 128,-1,23
 107 454 107 454 160.5 488.5 c 128,-1,24
 214 523 214 523 279 523 c 0,25,26
 338 523 338 523 388 493.5 c 128,-1,27
 438 464 438 464 464 417 c 1,28,-1
 464 587 l 1,29,-1
 391 587 l 2,30,31
 377 587 377 587 368.5 595 c 128,-1,32
 360 603 360 603 360 616 c 0,33,34
 360 628 360 628 368.5 635.5 c 128,-1,35
 377 643 377 643 391 643 c 2,36,-1
 464 643 l 1,37,-1
 464 710 l 2,38,39
 464 723 464 723 472.5 731.5 c 128,-1,40
 481 740 481 740 494 740 c 256,41,42
 507 740 507 740 515.5 731.5 c 128,-1,43
 524 723 524 723 524 710 c 2,44,-1
 524 643 l 1,45,-1
 554 643 l 2,46,0
 568 643 568 643 576 635.5 c 128,-1,1
379.5 73 m 128,-1,48
 421 100 421 100 444.5 148.5 c 128,-1,49
 468 197 468 197 468 257 c 0,50,51
 468 316 468 316 444.5 364 c 128,-1,52
 421 412 421 412 379.5 439.5 c 128,-1,53
 338 467 338 467 286 467 c 256,54,55
 234 467 234 467 192.5 439.5 c 128,-1,56
 151 412 151 412 127.5 364 c 128,-1,57
 104 316 104 316 104 257 c 0,58,59
 104 197 104 197 127.5 149 c 128,-1,60
 151 101 151 101 192.5 73.5 c 128,-1,61
 234 46 234 46 286 46 c 256,62,47
 338 46 338 46 379.5 73 c 128,-1,48
EndSplineSet
Validated: 1
EndChar

StartChar: e
Encoding: 101 101 286
Width: 556
GlyphClass: 2
Flags: W
AnchorPoint: "Anchor-8" 0 0 basechar 0
AnchorPoint: "Anchor-7" 0 0 basechar 0
AnchorPoint: "Anchor-6" 283 503 basechar 0
AnchorPoint: "Anchor-5" 500 10 basechar 0
AnchorPoint: "Anchor-4" 278 0 basechar 0
LayerCount: 2
Fore
SplineSet
502 264.5 m 128,-1,1
 493 256 493 256 481 256 c 2,2,-1
 103 256 l 1,3,4
 103 196 103 196 127.5 148.5 c 128,-1,5
 152 101 152 101 197.5 73.5 c 128,-1,6
 243 46 243 46 305 46 c 0,7,8
 353 46 353 46 391 66 c 128,-1,9
 429 86 429 86 452 117 c 0,10,11
 463 126 463 126 473 126 c 256,12,13
 483 126 483 126 491 118 c 128,-1,14
 499 110 499 110 499 100 c 0,15,16
 499 89 499 89 489 79 c 0,17,18
 457 40 457 40 408.5 15 c 128,-1,19
 360 -10 360 -10 306 -10 c 0,20,21
 229 -10 229 -10 170 23 c 128,-1,22
 111 56 111 56 78 115.5 c 128,-1,23
 45 175 45 175 45 253 c 0,24,25
 45 335 45 335 77.5 396.5 c 128,-1,26
 110 458 110 458 164 490.5 c 128,-1,27
 218 523 218 523 279 523 c 0,28,29
 339 523 339 523 391.5 495 c 128,-1,30
 444 467 444 467 477 413 c 128,-1,31
 510 359 510 359 511 285 c 0,32,0
 511 273 511 273 502 264.5 c 128,-1,1
171.5 425 m 128,-1,34
 122 385 122 385 108 310 c 1,35,-1
 449 310 l 1,36,-1
 449 318 l 1,37,38
 444 363 444 363 419 396.5 c 128,-1,39
 394 430 394 430 356.5 447.5 c 128,-1,40
 319 465 319 465 279 465 c 0,41,33
 221 465 221 465 171.5 425 c 128,-1,34
EndSplineSet
Validated: 1
EndChar

StartChar: uni1E1D
Encoding: 7709 7709 290
Width: 556
GlyphClass: 2
Flags: W
AnchorPoint: "Anchor-8" 0 0 basechar 0
AnchorPoint: "Anchor-7" 0 0 basechar 0
AnchorPoint: "Anchor-6" 0 0 basechar 0
AnchorPoint: "Anchor-5" 500 10 basechar 0
AnchorPoint: "Anchor-4" 278 -144 basechar 0
LayerCount: 2
Fore
SplineSet
187 608 m 128,-1,1
 150 643 150 643 145 693 c 0,2,3
 143 704 143 704 149.5 712.5 c 128,-1,4
 156 721 156 721 167 721 c 0,5,6
 188 721 188 721 197 697 c 1,7,8
 204 662 204 662 225 642 c 128,-1,9
 246 622 246 622 275 622 c 256,10,11
 304 622 304 622 325 642 c 128,-1,12
 346 662 346 662 353 697 c 0,13,14
 358 709 358 709 365 715 c 128,-1,15
 372 721 372 721 384 721 c 0,16,17
 395 721 395 721 401.5 713 c 128,-1,18
 408 705 408 705 406 694 c 0,19,20
 401 644 401 644 364 608.5 c 128,-1,21
 327 573 327 573 275 573 c 0,22,0
 224 573 224 573 187 608 c 128,-1,1
502 264.5 m 128,-1,24
 493 256 493 256 481 256 c 2,25,-1
 103 256 l 1,26,27
 103 196 103 196 127.5 148.5 c 128,-1,28
 152 101 152 101 197.5 73.5 c 128,-1,29
 243 46 243 46 305 46 c 0,30,31
 353 46 353 46 391 66 c 128,-1,32
 429 86 429 86 452 117 c 0,33,34
 463 126 463 126 473 126 c 256,35,36
 483 126 483 126 491 118 c 128,-1,37
 499 110 499 110 499 100 c 0,38,39
 499 89 499 89 489 79 c 0,40,41
 461 45 461 45 420.5 21.5 c 128,-1,42
 380 -2 380 -2 334 -8 c 1,43,-1
 281 -124 l 2,44,45
 272 -144 272 -144 255 -144 c 0,46,47
 243 -144 243 -144 227.5 -134.5 c 128,-1,48
 212 -125 212 -125 212 -112 c 0,49,50
 212 -101 212 -101 219 -94 c 2,51,-1
 287 -9 l 1,52,53
 215 -5 215 -5 160 29 c 128,-1,54
 105 63 105 63 75 121 c 128,-1,55
 45 179 45 179 45 253 c 0,56,57
 45 335 45 335 77.5 396.5 c 128,-1,58
 110 458 110 458 164 490.5 c 128,-1,59
 218 523 218 523 279 523 c 0,60,61
 339 523 339 523 391.5 495 c 128,-1,62
 444 467 444 467 477 413 c 128,-1,63
 510 359 510 359 511 285 c 0,64,23
 511 273 511 273 502 264.5 c 128,-1,24
171.5 425 m 128,-1,66
 122 385 122 385 108 310 c 1,67,-1
 449 310 l 1,68,-1
 449 318 l 1,69,70
 444 363 444 363 419 396.5 c 128,-1,71
 394 430 394 430 356.5 447.5 c 128,-1,72
 319 465 319 465 279 465 c 0,73,65
 221 465 221 465 171.5 425 c 128,-1,66
EndSplineSet
Validated: 1
EndChar

StartChar: eogonek
Encoding: 281 281 307
Width: 556
GlyphClass: 2
Flags: W
AnchorPoint: "Anchor-8" 0 0 basechar 0
AnchorPoint: "Anchor-7" 0 0 basechar 0
AnchorPoint: "Anchor-6" 279 503 basechar 0
AnchorPoint: "Anchor-5" 500 10 basechar 0
AnchorPoint: "Anchor-4" 278 0 basechar 0
LayerCount: 2
Fore
SplineSet
502 264.5 m 128,-1,1
 493 256 493 256 481 256 c 2,2,-1
 103 256 l 1,3,4
 103 196 103 196 127.5 148.5 c 128,-1,5
 152 101 152 101 197.5 73.5 c 128,-1,6
 243 46 243 46 305 46 c 0,7,8
 353 46 353 46 391 66 c 128,-1,9
 429 86 429 86 452 117 c 0,10,11
 463 126 463 126 473 126 c 0,12,13
 484 126 484 126 492 117.5 c 128,-1,14
 500 109 500 109 500 99 c 0,15,16
 500 88 500 88 489 79 c 0,17,18
 473 61 473 61 442 30 c 0,19,20
 405 -6 405 -6 388.5 -29.5 c 128,-1,21
 372 -53 372 -53 372 -85 c 0,22,23
 372 -109 372 -109 386.5 -124.5 c 128,-1,24
 401 -140 401 -140 424 -140 c 0,25,26
 446 -140 446 -140 453 -128 c 0,27,28
 465 -113 465 -113 479 -113 c 0,29,30
 490 -113 490 -113 496 -119 c 128,-1,31
 502 -125 502 -125 502 -135 c 0,32,33
 502 -147 502 -147 489 -160 c 128,-1,34
 476 -173 476 -173 456.5 -182 c 128,-1,35
 437 -191 437 -191 418 -191 c 0,36,37
 378 -191 378 -191 348.5 -164.5 c 128,-1,38
 319 -138 319 -138 319 -95 c 0,39,40
 319 -41 319 -41 366 -2 c 1,41,42
 336 -10 336 -10 306 -10 c 0,43,44
 229 -10 229 -10 170 23 c 128,-1,45
 111 56 111 56 78 115.5 c 128,-1,46
 45 175 45 175 45 253 c 0,47,48
 45 335 45 335 77.5 396.5 c 128,-1,49
 110 458 110 458 164 490.5 c 128,-1,50
 218 523 218 523 279 523 c 0,51,52
 339 523 339 523 391.5 495 c 128,-1,53
 444 467 444 467 477 413 c 128,-1,54
 510 359 510 359 511 285 c 0,55,0
 511 273 511 273 502 264.5 c 128,-1,1
169 424.5 m 128,-1,57
 121 384 121 384 108 310 c 1,58,-1
 449 310 l 1,59,-1
 449 318 l 1,60,61
 444 363 444 363 419 396.5 c 128,-1,62
 394 430 394 430 356.5 447.5 c 128,-1,63
 319 465 319 465 279 465 c 0,64,56
 217 465 217 465 169 424.5 c 128,-1,57
EndSplineSet
Validated: 1
EndChar

StartChar: uni0259
Encoding: 601 601 309
Width: 556
GlyphClass: 2
Flags: W
AnchorPoint: "Anchor-8" 0 0 basechar 0
AnchorPoint: "Anchor-7" 0 0 basechar 0
AnchorPoint: "Anchor-6" 278 506 basechar 0
AnchorPoint: "Anchor-5" 56 496 basechar 0
AnchorPoint: "Anchor-4" 273 3 basechar 0
LayerCount: 2
Fore
SplineSet
386 483 m 128,-1,1
 445 450 445 450 478 391 c 128,-1,2
 511 332 511 332 511 254 c 0,3,4
 511 172 511 172 478.5 110.5 c 128,-1,5
 446 49 446 49 392.5 16 c 128,-1,6
 339 -17 339 -17 278 -17 c 256,7,8
 217 -17 217 -17 164.5 11 c 128,-1,9
 112 39 112 39 79.5 93 c 128,-1,10
 47 147 47 147 45 221 c 0,11,12
 45 233 45 233 54 241.5 c 128,-1,13
 63 250 63 250 75 250 c 2,14,-1
 453 250 l 1,15,16
 453 310 453 310 429 357.5 c 128,-1,17
 405 405 405 405 359.5 432.5 c 128,-1,18
 314 460 314 460 252 460 c 0,19,20
 204 460 204 460 165.5 440 c 128,-1,21
 127 420 127 420 104 389 c 0,22,23
 93 380 93 380 83 380 c 256,24,25
 73 380 73 380 65 388 c 128,-1,26
 57 396 57 396 57 406 c 0,27,28
 57 418 57 418 67 427 c 0,29,30
 99 466 99 466 147.5 491 c 128,-1,31
 196 516 196 516 250 516 c 0,32,0
 327 516 327 516 386 483 c 128,-1,1
385.5 81 m 128,-1,34
 435 121 435 121 449 197 c 1,35,-1
 108 197 l 1,36,-1
 108 188 l 1,37,38
 112 143 112 143 137 109.5 c 128,-1,39
 162 76 162 76 199.5 58.5 c 128,-1,40
 237 41 237 41 278 41 c 0,41,33
 336 41 336 41 385.5 81 c 128,-1,34
EndSplineSet
Validated: 1
EndChar

StartChar: f
Encoding: 102 102 310
Width: 353
GlyphClass: 2
Flags: W
AnchorPoint: "Anchor-8" 0 0 basechar 0
AnchorPoint: "Anchor-7" 0 0 basechar 0
AnchorPoint: "Anchor-6" 177 503 basechar 0
AnchorPoint: "Anchor-5" 0 0 basechar 0
AnchorPoint: "Anchor-4" 177 0 basechar 0
LayerCount: 2
Fore
SplineSet
207.5 662 m 128,-1,1
 190 641 190 641 190 604 c 2,2,-1
 190 501 l 1,3,-1
 302 501 l 2,4,5
 313 501 313 501 321.5 493 c 128,-1,6
 330 485 330 485 330 473 c 256,7,8
 330 461 330 461 321.5 453 c 128,-1,9
 313 445 313 445 302 445 c 2,10,-1
 190 445 l 1,11,-1
 190 30 l 2,12,13
 190 17 190 17 181.5 8.5 c 128,-1,14
 173 0 173 0 160 0 c 256,15,16
 147 0 147 0 138.5 8.5 c 128,-1,17
 130 17 130 17 130 30 c 2,18,-1
 130 445 l 1,19,-1
 57 445 l 2,20,21
 45 445 45 445 37 453.5 c 128,-1,22
 29 462 29 462 29 473 c 0,23,24
 29 486 29 486 37 493.5 c 128,-1,25
 45 501 45 501 57 501 c 2,26,-1
 130 501 l 1,27,-1
 130 604 l 2,28,29
 130 667 130 667 166.5 701.5 c 128,-1,30
 203 736 203 736 264 736 c 0,31,32
 292 736 292 736 316 727.5 c 128,-1,33
 340 719 340 719 340 700 c 0,34,35
 340 688 340 688 332 680 c 128,-1,36
 324 672 324 672 314 672 c 0,37,38
 305 672 305 672 292 677 c 0,39,40
 270 683 270 683 257 683 c 0,41,0
 225 683 225 683 207.5 662 c 128,-1,1
EndSplineSet
Validated: 1
EndChar

StartChar: g
Encoding: 103 103 311
Width: 620
GlyphClass: 2
Flags: W
AnchorPoint: "Anchor-8" 0 0 basechar 0
AnchorPoint: "Anchor-7" 0 0 basechar 0
AnchorPoint: "Anchor-6" 310 503 basechar 0
AnchorPoint: "Anchor-5" 0 0 basechar 0
AnchorPoint: "Anchor-4" 310 0 basechar 0
LayerCount: 2
Fore
SplineSet
532.5 502.5 m 128,-1,1
 541 494 541 494 541 480 c 2,2,-1
 541 47 l 2,3,4
 541 -31 541 -31 508.5 -86.5 c 128,-1,5
 476 -142 476 -142 419.5 -171 c 128,-1,6
 363 -200 363 -200 290 -200 c 0,7,8
 255 -200 255 -200 216.5 -191 c 128,-1,9
 178 -182 178 -182 150.5 -168 c 128,-1,10
 123 -154 123 -154 119 -139 c 1,11,12
 112 -132 112 -132 112 -123 c 0,13,14
 112 -113 112 -113 121 -107 c 0,15,16
 125 -104 125 -104 131 -104 c 256,17,18
 137 -104 137 -104 154 -111 c 2,19,-1
 175 -120 l 2,20,21
 237 -144 237 -144 291 -144 c 0,22,23
 380 -144 380 -144 430.5 -93.5 c 128,-1,24
 481 -43 481 -43 481 43 c 2,25,-1
 481 105 l 1,26,27
 456 51 456 51 402 20.5 c 128,-1,28
 348 -10 348 -10 289 -10 c 0,29,30
 220 -10 220 -10 164.5 24.5 c 128,-1,31
 109 59 109 59 77 120 c 128,-1,32
 45 181 45 181 45 257 c 0,33,34
 45 332 45 332 77 393 c 128,-1,35
 109 454 109 454 164.5 488.5 c 128,-1,36
 220 523 220 523 288 523 c 0,37,38
 351 523 351 523 403.5 491.5 c 128,-1,39
 456 460 456 460 481 416 c 1,40,-1
 481 480 l 2,41,42
 481 493 481 493 489.5 502 c 128,-1,43
 498 511 498 511 511 511 c 256,44,0
 524 511 524 511 532.5 502.5 c 128,-1,1
392.5 72.5 m 128,-1,46
 436 99 436 99 460.5 147.5 c 128,-1,47
 485 196 485 196 485 257 c 256,48,49
 485 318 485 318 460.5 366 c 128,-1,50
 436 414 436 414 392.5 440.5 c 128,-1,51
 349 467 349 467 294 467 c 0,52,53
 240 467 240 467 196.5 439.5 c 128,-1,54
 153 412 153 412 128.5 364 c 128,-1,55
 104 316 104 316 104 257 c 0,56,57
 104 197 104 197 128.5 149 c 128,-1,58
 153 101 153 101 196.5 73.5 c 128,-1,59
 240 46 240 46 294 46 c 0,60,45
 349 46 349 46 392.5 72.5 c 128,-1,46
EndSplineSet
Validated: 1
Substitution2: "'ss01' Style Set 1 lookup 17 subtable" g.ss01
Substitution2: "'salt' Stylistic Alternatives lookup 16 subtable" g.ss01
EndChar

StartChar: uni0123
Encoding: 291 291 315
Width: 620
GlyphClass: 2
Flags: W
AnchorPoint: "Anchor-8" 0 0 basechar 0
AnchorPoint: "Anchor-7" 0 0 basechar 0
AnchorPoint: "Anchor-6" 310 503 basechar 0
AnchorPoint: "Anchor-5" 0 0 basechar 0
AnchorPoint: "Anchor-4" 310 0 basechar 0
LayerCount: 2
Fore
SplineSet
270 596.5 m 128,-1,1
 254 613 254 613 254 642 c 256,2,3
 254 671 254 671 268.5 699.5 c 128,-1,4
 283 728 283 728 305 746 c 128,-1,5
 327 764 327 764 348 764 c 0,6,7
 359 764 359 764 366 758.5 c 128,-1,8
 373 753 373 753 373 742 c 0,9,10
 373 732 373 732 368 728 c 128,-1,11
 363 724 363 724 352.5 721 c 128,-1,12
 342 718 342 718 337 715 c 0,13,14
 324 708 324 708 316.5 694 c 128,-1,15
 309 680 309 680 309 665 c 0,16,17
 309 654 309 654 315 647 c 128,-1,18
 321 640 321 640 331 640 c 0,19,20
 347 640 347 640 357 648 c 1,21,22
 370 638 370 638 370 622 c 0,23,24
 369 605 369 605 351 592.5 c 128,-1,25
 333 580 333 580 313 580 c 0,26,0
 286 580 286 580 270 596.5 c 128,-1,1
532.5 502.5 m 128,-1,28
 541 494 541 494 541 480 c 2,29,-1
 541 47 l 2,30,31
 541 -31 541 -31 508.5 -86.5 c 128,-1,32
 476 -142 476 -142 419.5 -171 c 128,-1,33
 363 -200 363 -200 290 -200 c 0,34,35
 255 -200 255 -200 216.5 -191 c 128,-1,36
 178 -182 178 -182 150.5 -168 c 128,-1,37
 123 -154 123 -154 119 -139 c 1,38,39
 112 -132 112 -132 112 -123 c 0,40,41
 112 -113 112 -113 121 -107 c 0,42,43
 125 -104 125 -104 131 -104 c 256,44,45
 137 -104 137 -104 154 -111 c 2,46,-1
 175 -120 l 2,47,48
 237 -144 237 -144 291 -144 c 0,49,50
 380 -144 380 -144 430.5 -93.5 c 128,-1,51
 481 -43 481 -43 481 43 c 2,52,-1
 481 105 l 1,53,54
 456 51 456 51 402 20.5 c 128,-1,55
 348 -10 348 -10 289 -10 c 0,56,57
 220 -10 220 -10 164.5 24.5 c 128,-1,58
 109 59 109 59 77 120 c 128,-1,59
 45 181 45 181 45 257 c 0,60,61
 45 332 45 332 77 393 c 128,-1,62
 109 454 109 454 164.5 488.5 c 128,-1,63
 220 523 220 523 288 523 c 0,64,65
 351 523 351 523 403.5 491.5 c 128,-1,66
 456 460 456 460 481 416 c 1,67,-1
 481 480 l 2,68,69
 481 493 481 493 489.5 502 c 128,-1,70
 498 511 498 511 511 511 c 256,71,27
 524 511 524 511 532.5 502.5 c 128,-1,28
392.5 72.5 m 128,-1,73
 436 99 436 99 460.5 147.5 c 128,-1,74
 485 196 485 196 485 257 c 256,75,76
 485 318 485 318 460.5 366 c 128,-1,77
 436 414 436 414 392.5 440.5 c 128,-1,78
 349 467 349 467 294 467 c 0,79,80
 240 467 240 467 196.5 439.5 c 128,-1,81
 153 412 153 412 128.5 364 c 128,-1,82
 104 316 104 316 104 257 c 0,83,84
 104 197 104 197 128.5 149 c 128,-1,85
 153 101 153 101 196.5 73.5 c 128,-1,86
 240 46 240 46 294 46 c 0,87,72
 349 46 349 46 392.5 72.5 c 128,-1,73
EndSplineSet
Validated: 1
Substitution2: "'ss01' Style Set 1 lookup 17 subtable" uni0123.ss01
Substitution2: "'salt' Stylistic Alternatives lookup 16 subtable" uni0123.ss01
EndChar

StartChar: h
Encoding: 104 104 318
Width: 568
GlyphClass: 2
Flags: W
AnchorPoint: "Anchor-8" 0 0 basechar 0
AnchorPoint: "Anchor-7" 122 590 basechar 0
AnchorPoint: "Anchor-6" 109 710 basechar 0
AnchorPoint: "Anchor-5" 0 0 basechar 0
AnchorPoint: "Anchor-4" 284 0 basechar 0
LayerCount: 2
Fore
SplineSet
446 458.5 m 128,-1,1
 490 402 490 402 490 313 c 2,2,-1
 490 30 l 2,3,4
 490 17 490 17 481.5 8.5 c 128,-1,5
 473 0 473 0 460 0 c 256,6,7
 447 0 447 0 438.5 8.5 c 128,-1,8
 430 17 430 17 430 30 c 2,9,-1
 430 313 l 2,10,11
 430 378 430 378 399 418.5 c 128,-1,12
 368 459 368 459 302 459 c 0,13,14
 260 459 260 459 222.5 439 c 128,-1,15
 185 419 185 419 162 385.5 c 128,-1,16
 139 352 139 352 139 313 c 2,17,-1
 139 30 l 2,18,19
 139 17 139 17 130.5 8.5 c 128,-1,20
 122 0 122 0 109 0 c 256,21,22
 96 0 96 0 87.5 8.5 c 128,-1,23
 79 17 79 17 79 30 c 2,24,-1
 79 710 l 2,25,26
 79 723 79 723 87.5 731.5 c 128,-1,27
 96 740 96 740 109 740 c 256,28,29
 122 740 122 740 130.5 731.5 c 128,-1,30
 139 723 139 723 139 710 c 2,31,-1
 139 417 l 1,32,33
 166 460 166 460 214 487.5 c 128,-1,34
 262 515 262 515 312 515 c 0,35,0
 402 515 402 515 446 458.5 c 128,-1,1
EndSplineSet
Validated: 1
EndChar

StartChar: hbar
Encoding: 295 295 319
Width: 568
GlyphClass: 2
Flags: W
AnchorPoint: "Anchor-8" 0 0 basechar 0
AnchorPoint: "Anchor-7" 122 590 basechar 0
AnchorPoint: "Anchor-6" 109 710 basechar 0
AnchorPoint: "Anchor-5" 0 0 basechar 0
AnchorPoint: "Anchor-4" 284 0 basechar 0
LayerCount: 2
Fore
SplineSet
446 458.5 m 128,-1,1
 490 402 490 402 490 313 c 2,2,-1
 490 30 l 2,3,4
 490 17 490 17 481.5 8.5 c 128,-1,5
 473 0 473 0 460 0 c 256,6,7
 447 0 447 0 438.5 8.5 c 128,-1,8
 430 17 430 17 430 30 c 2,9,-1
 430 313 l 2,10,11
 430 378 430 378 399 418.5 c 128,-1,12
 368 459 368 459 302 459 c 0,13,14
 260 459 260 459 222.5 439 c 128,-1,15
 185 419 185 419 162 385.5 c 128,-1,16
 139 352 139 352 139 313 c 2,17,-1
 139 30 l 2,18,19
 139 17 139 17 130.5 8.5 c 128,-1,20
 122 0 122 0 109 0 c 256,21,22
 96 0 96 0 87.5 8.5 c 128,-1,23
 79 17 79 17 79 30 c 2,24,-1
 79 564 l 1,25,-1
 43 564 l 2,26,27
 29 564 29 564 21 571.5 c 128,-1,28
 13 579 13 579 13 592 c 256,29,30
 13 605 13 605 21 612.5 c 128,-1,31
 29 620 29 620 43 620 c 2,32,-1
 79 620 l 1,33,-1
 79 710 l 2,34,35
 79 723 79 723 87.5 731.5 c 128,-1,36
 96 740 96 740 109 740 c 256,37,38
 122 740 122 740 130.5 731.5 c 128,-1,39
 139 723 139 723 139 710 c 2,40,-1
 139 620 l 1,41,-1
 206 620 l 2,42,43
 220 620 220 620 228.5 612 c 128,-1,44
 237 604 237 604 237 591 c 256,45,46
 237 578 237 578 228.5 571 c 128,-1,47
 220 564 220 564 206 564 c 2,48,-1
 139 564 l 1,49,-1
 139 417 l 1,50,51
 166 460 166 460 214 487.5 c 128,-1,52
 262 515 262 515 312 515 c 0,53,0
 402 515 402 515 446 458.5 c 128,-1,1
EndSplineSet
Validated: 1
EndChar

StartChar: dotlessi
Encoding: 305 305 324
Width: 214
GlyphClass: 2
Flags: W
AnchorPoint: "Anchor-8" 0 0 basechar 0
AnchorPoint: "Anchor-7" 0 0 basechar 0
AnchorPoint: "Anchor-6" 107 503 basechar 0
AnchorPoint: "Anchor-5" 177 10 basechar 0
AnchorPoint: "Anchor-4" 107 0 basechar 0
LayerCount: 2
Fore
SplineSet
128.5 8.5 m 128,-1,1
 120 0 120 0 107 0 c 256,2,3
 94 0 94 0 85.5 8.5 c 128,-1,4
 77 17 77 17 77 30 c 2,5,-1
 77 490 l 2,6,7
 77 503 77 503 85.5 511.5 c 128,-1,8
 94 520 94 520 107 520 c 256,9,10
 120 520 120 520 128.5 511.5 c 128,-1,11
 137 503 137 503 137 490 c 2,12,-1
 137 30 l 2,13,0
 137 17 137 17 128.5 8.5 c 128,-1,1
EndSplineSet
Validated: 1
EndChar

StartChar: iogonek
Encoding: 303 303 339
Width: 214
GlyphClass: 2
Flags: W
AnchorPoint: "Anchor-8" 0 0 basechar 0
AnchorPoint: "Anchor-7" 0 0 basechar 0
AnchorPoint: "Anchor-6" 107 503 basechar 0
AnchorPoint: "Anchor-5" 177 10 basechar 0
AnchorPoint: "Anchor-4" 109 0 basechar 0
LayerCount: 2
Fore
SplineSet
76 596.5 m 128,-1,1
 65 606 65 606 65 624 c 2,2,-1
 65 635 l 2,3,4
 65 652 65 652 76.5 661.5 c 128,-1,5
 88 671 88 671 108 671 c 0,6,7
 127 671 127 671 137.5 661.5 c 128,-1,8
 148 652 148 652 148 635 c 2,9,-1
 148 624 l 2,10,11
 148 606 148 606 137.5 596.5 c 128,-1,12
 127 587 127 587 107 587 c 256,13,0
 87 587 87 587 76 596.5 c 128,-1,1
158 -119 m 128,-1,15
 164 -125 164 -125 164 -135 c 0,16,17
 164 -157 164 -157 139.5 -174 c 128,-1,18
 115 -191 115 -191 81 -191 c 0,19,20
 42 -191 42 -191 13.5 -164.5 c 128,-1,21
 -15 -138 -15 -138 -15 -95 c 0,22,23
 -15 -16 -15 -16 77 18 c 1,24,-1
 77 490 l 2,25,26
 77 503 77 503 85.5 511.5 c 128,-1,27
 94 520 94 520 107 520 c 256,28,29
 120 520 120 520 128.5 511.5 c 128,-1,30
 137 503 137 503 137 490 c 2,31,-1
 137 37 l 2,32,33
 137 20 137 20 126 9.5 c 128,-1,34
 115 -1 115 -1 92 -15 c 0,35,36
 65 -30 65 -30 51.5 -44 c 128,-1,37
 38 -58 38 -58 38 -83 c 0,38,39
 38 -109 38 -109 52.5 -124.5 c 128,-1,40
 67 -140 67 -140 87 -140 c 0,41,42
 97 -140 97 -140 103.5 -138.5 c 128,-1,43
 110 -137 110 -137 113 -131 c 0,44,45
 128 -113 128 -113 142 -113 c 0,46,14
 152 -113 152 -113 158 -119 c 128,-1,15
EndSplineSet
Validated: 1
EndChar

StartChar: uni0237
Encoding: 567 567 342
Width: 241
GlyphClass: 2
Flags: W
AnchorPoint: "Anchor-8" 0 0 basechar 0
AnchorPoint: "Anchor-7" 0 0 basechar 0
AnchorPoint: "Anchor-6" 122 504 basechar 0
AnchorPoint: "Anchor-5" 0 0 basechar 0
AnchorPoint: "Anchor-4" 126 0 basechar 0
LayerCount: 2
Fore
SplineSet
-12 -190 m 128,-1,1
 -20 -182 -20 -182 -20 -170 c 2,2,-1
 -20 -166 l 2,3,4
 -20 -155 -20 -155 -13 -147.5 c 128,-1,5
 -6 -140 -6 -140 6 -138 c 0,6,7
 43 -131 43 -131 67.5 -105.5 c 128,-1,8
 92 -80 92 -80 92 -37 c 2,9,-1
 92 479 l 2,10,11
 92 492 92 492 100.5 500.5 c 128,-1,12
 109 509 109 509 122 509 c 256,13,14
 135 509 135 509 143.5 500.5 c 128,-1,15
 152 492 152 492 152 479 c 2,16,-1
 152 -46 l 2,17,18
 152 -92 152 -92 130.5 -126.5 c 128,-1,19
 109 -161 109 -161 75.5 -179.5 c 128,-1,20
 42 -198 42 -198 8 -198 c 0,21,0
 -4 -198 -4 -198 -12 -190 c 128,-1,1
EndSplineSet
Validated: 1
EndChar

StartChar: k
Encoding: 107 107 344
Width: 535
GlyphClass: 2
Flags: W
AnchorPoint: "Anchor-8" 0 0 basechar 0
AnchorPoint: "Anchor-7" 0 0 basechar 0
AnchorPoint: "Anchor-6" 268 503 basechar 0
AnchorPoint: "Anchor-5" 0 0 basechar 0
AnchorPoint: "Anchor-4" 268 0 basechar 0
LayerCount: 2
Fore
SplineSet
493 30 m 256,1,2
 493 17 493 17 482.5 8.5 c 128,-1,3
 472 0 472 0 463 0 c 0,4,5
 450 0 450 0 441 11 c 2,6,-1
 220 245 l 1,7,-1
 145 181 l 1,8,-1
 145 30 l 2,9,10
 145 17 145 17 136.5 8.5 c 128,-1,11
 128 0 128 0 115 0 c 256,12,13
 102 0 102 0 93.5 8.5 c 128,-1,14
 85 17 85 17 85 30 c 2,15,-1
 85 710 l 2,16,17
 85 723 85 723 93.5 731.5 c 128,-1,18
 102 740 102 740 115 740 c 256,19,20
 128 740 128 740 136.5 731.5 c 128,-1,21
 145 723 145 723 145 710 c 2,22,-1
 145 254 l 1,23,-1
 434 503 l 2,24,25
 443 513 443 513 455 513 c 0,26,27
 466 513 466 513 475 503.5 c 128,-1,28
 484 494 484 494 484 483 c 0,29,30
 484 471 484 471 473 460 c 2,31,-1
 267 285 l 1,32,-1
 484 53 l 2,33,0
 493 43 493 43 493 30 c 256,1,2
EndSplineSet
Validated: 1
EndChar

StartChar: kgreenlandic
Encoding: 312 312 346
Width: 535
GlyphClass: 2
Flags: W
AnchorPoint: "Anchor-8" 0 0 basechar 0
AnchorPoint: "Anchor-7" 0 0 basechar 0
AnchorPoint: "Anchor-6" 300 503 basechar 0
AnchorPoint: "Anchor-5" 0 0 basechar 0
AnchorPoint: "Anchor-4" 300 0 basechar 0
LayerCount: 2
Fore
SplineSet
493 30 m 256,1,2
 493 17 493 17 482.5 8.5 c 128,-1,3
 472 0 472 0 463 0 c 0,4,5
 450 0 450 0 441 11 c 2,6,-1
 220 245 l 1,7,-1
 145 181 l 1,8,-1
 145 30 l 2,9,10
 145 17 145 17 136.5 8.5 c 128,-1,11
 128 0 128 0 115 0 c 256,12,13
 102 0 102 0 93.5 8.5 c 128,-1,14
 85 17 85 17 85 30 c 2,15,-1
 85 478 l 2,16,17
 85 491 85 491 93.5 499.5 c 128,-1,18
 102 508 102 508 115 508 c 256,19,20
 128 508 128 508 136.5 499.5 c 128,-1,21
 145 491 145 491 145 478 c 2,22,-1
 145 254 l 1,23,-1
 434 503 l 2,24,25
 443 513 443 513 455 513 c 0,26,27
 466 513 466 513 475 503.5 c 128,-1,28
 484 494 484 494 484 483 c 0,29,30
 484 471 484 471 473 460 c 2,31,-1
 267 285 l 1,32,-1
 484 53 l 2,33,0
 493 43 493 43 493 30 c 256,1,2
EndSplineSet
Validated: 1
EndChar

StartChar: l
Encoding: 108 108 347
Width: 230
GlyphClass: 2
Flags: W
AnchorPoint: "Anchor-8" 210 684 basechar 0
AnchorPoint: "Anchor-7" 115 339 basechar 0
AnchorPoint: "Anchor-6" 115 740 basechar 0
AnchorPoint: "Anchor-5" 0 0 basechar 0
AnchorPoint: "Anchor-4" 115 0 basechar 0
LayerCount: 2
Fore
SplineSet
136.5 8.5 m 128,-1,1
 128 0 128 0 115 0 c 256,2,3
 102 0 102 0 93.5 8.5 c 128,-1,4
 85 17 85 17 85 30 c 2,5,-1
 85 710 l 2,6,7
 85 723 85 723 93.5 731.5 c 128,-1,8
 102 740 102 740 115 740 c 256,9,10
 128 740 128 740 136.5 731.5 c 128,-1,11
 145 723 145 723 145 710 c 2,12,-1
 145 30 l 2,13,0
 145 17 145 17 136.5 8.5 c 128,-1,1
EndSplineSet
Validated: 1
EndChar

StartChar: lcaron
Encoding: 318 318 349
Width: 306
Flags: W
LayerCount: 2
Fore
SplineSet
132.5 8.5 m 128,-1,1
 124 0 124 0 111 0 c 256,2,3
 98 0 98 0 89.5 8.5 c 128,-1,4
 81 17 81 17 81 30 c 2,5,-1
 81 710 l 2,6,7
 81 723 81 723 89.5 731.5 c 128,-1,8
 98 740 98 740 111 740 c 256,9,10
 124 740 124 740 132.5 731.5 c 128,-1,11
 141 723 141 723 141 710 c 2,12,-1
 141 30 l 2,13,0
 141 17 141 17 132.5 8.5 c 128,-1,1
304.5 549.5 m 128,-1,15
 290 521 290 521 268.5 503 c 128,-1,16
 247 485 247 485 226 485 c 0,17,18
 215 485 215 485 207.5 490.5 c 128,-1,19
 200 496 200 496 200 507 c 0,20,21
 200 517 200 517 205 521 c 128,-1,22
 210 525 210 525 220.5 528 c 128,-1,23
 231 531 231 531 236 534 c 0,24,25
 250 541 250 541 257.5 554.5 c 128,-1,26
 265 568 265 568 265 584 c 0,27,28
 265 595 265 595 259 602 c 128,-1,29
 253 609 253 609 243 609 c 0,30,31
 229 609 229 609 216 600 c 1,32,33
 203 612 203 612 204 627 c 0,34,35
 205 644 205 644 223 656 c 128,-1,36
 241 668 241 668 261 668 c 0,37,38
 287 668 287 668 303 652 c 128,-1,39
 319 636 319 636 319 607 c 256,40,14
 319 578 319 578 304.5 549.5 c 128,-1,15
EndSplineSet
Validated: 1
EndChar

StartChar: lslash
Encoding: 322 322 355
Width: 231
GlyphClass: 2
Flags: W
AnchorPoint: "Anchor-8" 210 684 basechar 0
AnchorPoint: "Anchor-7" 115 339 basechar 0
AnchorPoint: "Anchor-6" 115 740 basechar 0
AnchorPoint: "Anchor-5" 0 0 basechar 0
AnchorPoint: "Anchor-4" 115 0 basechar 0
LayerCount: 2
Fore
SplineSet
235.5 465.5 m 128,-1,1
 242 458 242 458 242 448 c 0,2,3
 242 430 242 430 223 421 c 2,4,-1
 145 386 l 1,5,-1
 145 30 l 2,6,7
 145 17 145 17 136.5 8.5 c 128,-1,8
 128 0 128 0 115 0 c 256,9,10
 102 0 102 0 93.5 8.5 c 128,-1,11
 85 17 85 17 85 30 c 2,12,-1
 85 359 l 1,13,-1
 30 334 l 2,14,15
 23 330 23 330 16 330 c 0,16,17
 5 330 5 330 -2 338 c 128,-1,18
 -9 346 -9 346 -9 357 c 0,19,20
 -9 365 -9 365 -4 371.5 c 128,-1,21
 1 378 1 378 9 381 c 2,22,-1
 85 416 l 1,23,-1
 85 710 l 2,24,25
 85 723 85 723 93.5 731.5 c 128,-1,26
 102 740 102 740 115 740 c 256,27,28
 128 740 128 740 136.5 731.5 c 128,-1,29
 145 723 145 723 145 710 c 2,30,-1
 145 443 l 1,31,-1
 201 469 l 2,32,33
 211 473 211 473 218 473 c 0,34,0
 229 473 229 473 235.5 465.5 c 128,-1,1
EndSplineSet
Validated: 1
EndChar

StartChar: m
Encoding: 109 109 356
Width: 912
GlyphClass: 2
Flags: W
AnchorPoint: "Anchor-8" 0 0 basechar 0
AnchorPoint: "Anchor-7" 0 0 basechar 0
AnchorPoint: "Anchor-6" 457 503 basechar 0
AnchorPoint: "Anchor-5" 0 0 basechar 0
AnchorPoint: "Anchor-4" 457 0 basechar 0
LayerCount: 2
Fore
SplineSet
791.5 459.5 m 128,-1,1
 834 404 834 404 834 313 c 2,2,-1
 834 30 l 2,3,4
 834 17 834 17 825.5 8.5 c 128,-1,5
 817 0 817 0 804 0 c 256,6,7
 791 0 791 0 782.5 8.5 c 128,-1,8
 774 17 774 17 774 30 c 2,9,-1
 774 310 l 2,10,11
 774 376 774 376 742.5 417.5 c 128,-1,12
 711 459 711 459 645 459 c 0,13,14
 603 459 603 459 565.5 439 c 128,-1,15
 528 419 528 419 505 384.5 c 128,-1,16
 482 350 482 350 482 310 c 2,17,-1
 482 30 l 2,18,19
 482 17 482 17 473.5 8.5 c 128,-1,20
 465 0 465 0 452 0 c 256,21,22
 439 0 439 0 430.5 8.5 c 128,-1,23
 422 17 422 17 422 30 c 2,24,-1
 422 313 l 2,25,26
 422 378 422 378 392 418.5 c 128,-1,27
 362 459 362 459 298 459 c 0,28,29
 257 459 257 459 220.5 439 c 128,-1,30
 184 419 184 419 161.5 385.5 c 128,-1,31
 139 352 139 352 139 313 c 2,32,-1
 139 30 l 2,33,34
 139 17 139 17 130.5 8.5 c 128,-1,35
 122 0 122 0 109 0 c 256,36,37
 96 0 96 0 87.5 8.5 c 128,-1,38
 79 17 79 17 79 30 c 2,39,-1
 79 478 l 2,40,41
 79 491 79 491 87.5 499.5 c 128,-1,42
 96 508 96 508 109 508 c 256,43,44
 122 508 122 508 130.5 499.5 c 128,-1,45
 139 491 139 491 139 478 c 2,46,-1
 139 420 l 1,47,48
 166 461 166 461 212 488 c 128,-1,49
 258 515 258 515 309 515 c 0,50,51
 367 515 367 515 409 487 c 128,-1,52
 451 459 451 459 469 405 c 1,53,54
 490 449 490 449 546 482 c 128,-1,55
 602 515 602 515 659 515 c 0,56,0
 749 515 749 515 791.5 459.5 c 128,-1,1
EndSplineSet
Validated: 1
EndChar

StartChar: n
Encoding: 110 110 358
Width: 578
GlyphClass: 2
Flags: W
AnchorPoint: "Anchor-8" 0 0 basechar 0
AnchorPoint: "Anchor-7" 0 0 basechar 0
AnchorPoint: "Anchor-6" 289 503 basechar 0
AnchorPoint: "Anchor-5" 0 0 basechar 0
AnchorPoint: "Anchor-4" 289 0 basechar 0
LayerCount: 2
Fore
SplineSet
456.5 468.5 m 128,-1,1
 500 414 500 414 500 324 c 2,2,-1
 500 30 l 2,3,4
 500 17 500 17 491 8.5 c 128,-1,5
 482 0 482 0 470 0 c 0,6,7
 457 0 457 0 448.5 8.5 c 128,-1,8
 440 17 440 17 440 30 c 2,9,-1
 440 321 l 2,10,11
 440 386 440 386 407.5 426.5 c 128,-1,12
 375 467 375 467 307 467 c 0,13,14
 264 467 264 467 225.5 447 c 128,-1,15
 187 427 187 427 163 393.5 c 128,-1,16
 139 360 139 360 139 321 c 2,17,-1
 139 30 l 2,18,19
 139 17 139 17 130.5 8.5 c 128,-1,20
 122 0 122 0 109 0 c 256,21,22
 96 0 96 0 87.5 8.5 c 128,-1,23
 79 17 79 17 79 30 c 2,24,-1
 79 478 l 2,25,26
 79 491 79 491 87.5 499.5 c 128,-1,27
 96 508 96 508 109 508 c 256,28,29
 122 508 122 508 130.5 499.5 c 128,-1,30
 139 491 139 491 139 478 c 2,31,-1
 139 423 l 1,32,33
 166 466 166 466 216.5 494.5 c 128,-1,34
 267 523 267 523 320 523 c 0,35,0
 413 523 413 523 456.5 468.5 c 128,-1,1
EndSplineSet
Validated: 1
EndChar

StartChar: eng
Encoding: 331 331 365
Width: 578
GlyphClass: 2
Flags: W
AnchorPoint: "Anchor-8" 0 0 basechar 0
AnchorPoint: "Anchor-7" 0 0 basechar 0
AnchorPoint: "Anchor-6" 289 503 basechar 0
AnchorPoint: "Anchor-5" 0 0 basechar 0
AnchorPoint: "Anchor-4" 286 0 basechar 0
LayerCount: 2
Fore
SplineSet
456.5 468.5 m 128,-1,1
 500 414 500 414 500 324 c 2,2,-1
 500 -37 l 2,3,4
 500 -112 500 -112 456.5 -156 c 128,-1,5
 413 -200 413 -200 322 -200 c 0,6,7
 308 -200 308 -200 298.5 -192.5 c 128,-1,8
 289 -185 289 -185 289 -172 c 256,9,10
 289 -159 289 -159 297.5 -151 c 128,-1,11
 306 -143 306 -143 320 -143 c 0,12,13
 388 -142 388 -142 414 -115.5 c 128,-1,14
 440 -89 440 -89 440 -38 c 2,15,-1
 440 321 l 2,16,17
 440 386 440 386 407.5 426.5 c 128,-1,18
 375 467 375 467 307 467 c 0,19,20
 264 467 264 467 225.5 447 c 128,-1,21
 187 427 187 427 163 393.5 c 128,-1,22
 139 360 139 360 139 321 c 2,23,-1
 139 30 l 2,24,25
 139 17 139 17 130.5 8.5 c 128,-1,26
 122 0 122 0 109 0 c 256,27,28
 96 0 96 0 87.5 8.5 c 128,-1,29
 79 17 79 17 79 30 c 2,30,-1
 79 478 l 2,31,32
 79 491 79 491 87.5 499.5 c 128,-1,33
 96 508 96 508 109 508 c 256,34,35
 122 508 122 508 130.5 499.5 c 128,-1,36
 139 491 139 491 139 478 c 2,37,-1
 139 423 l 1,38,39
 166 466 166 466 216.5 494.5 c 128,-1,40
 267 523 267 523 320 523 c 0,41,0
 413 523 413 523 456.5 468.5 c 128,-1,1
EndSplineSet
Validated: 1
EndChar

StartChar: uni0272
Encoding: 626 626 366
Width: 579
Flags: W
LayerCount: 2
Fore
SplineSet
456.5 468.5 m 128,-1,1
 500 414 500 414 500 324 c 2,2,-1
 500 30 l 2,3,4
 500 17 500 17 491 8.5 c 128,-1,5
 482 0 482 0 470 0 c 0,6,7
 457 0 457 0 448.5 8.5 c 128,-1,8
 440 17 440 17 440 30 c 2,9,-1
 440 321 l 2,10,11
 440 386 440 386 407.5 426.5 c 128,-1,12
 375 467 375 467 307 467 c 0,13,14
 264 467 264 467 225.5 447 c 128,-1,15
 187 427 187 427 163 393.5 c 128,-1,16
 139 360 139 360 139 321 c 2,17,-1
 139 -46 l 2,18,19
 139 -108 139 -108 110.5 -142 c 128,-1,20
 82 -176 82 -176 48.5 -187 c 128,-1,21
 15 -198 15 -198 -7 -198 c 0,22,23
 -18 -198 -18 -198 -26 -189.5 c 128,-1,24
 -34 -181 -34 -181 -34 -170 c 0,25,26
 -34 -156 -34 -156 -27.5 -148.5 c 128,-1,27
 -21 -141 -21 -141 -7 -138 c 0,28,29
 30 -131 30 -131 54.5 -105.5 c 128,-1,30
 79 -80 79 -80 79 -37 c 2,31,-1
 79 478 l 2,32,33
 79 491 79 491 87.5 499.5 c 128,-1,34
 96 508 96 508 109 508 c 256,35,36
 122 508 122 508 130.5 499.5 c 128,-1,37
 139 491 139 491 139 478 c 2,38,-1
 139 423 l 1,39,40
 166 466 166 466 216.5 494.5 c 128,-1,41
 267 523 267 523 320 523 c 0,42,0
 413 523 413 523 456.5 468.5 c 128,-1,1
EndSplineSet
Validated: 1
EndChar

StartChar: o
Encoding: 111 111 370
Width: 595
GlyphClass: 2
Flags: W
AnchorPoint: "Anchor-8" 314 508 basechar 0
AnchorPoint: "Anchor-7" 298 252 basechar 0
AnchorPoint: "Anchor-6" 298 511 basechar 0
AnchorPoint: "Anchor-5" 536 10 basechar 0
AnchorPoint: "Anchor-4" 298 0 basechar 0
LayerCount: 2
Fore
SplineSet
518 120 m 128,-1,1
 485 59 485 59 427 24.5 c 128,-1,2
 369 -10 369 -10 298 -10 c 256,3,4
 227 -10 227 -10 169 24.5 c 128,-1,5
 111 59 111 59 78 120 c 128,-1,6
 45 181 45 181 45 256 c 256,7,8
 45 331 45 331 78 392 c 128,-1,9
 111 453 111 453 169 488 c 128,-1,10
 227 523 227 523 298 523 c 256,11,12
 369 523 369 523 427 488 c 128,-1,13
 485 453 485 453 518 392 c 128,-1,14
 551 331 551 331 551 256 c 256,15,0
 551 181 551 181 518 120 c 128,-1,1
466 364 m 128,-1,17
 441 412 441 412 396.5 439.5 c 128,-1,18
 352 467 352 467 298 467 c 256,19,20
 244 467 244 467 200 439.5 c 128,-1,21
 156 412 156 412 130.5 364 c 128,-1,22
 105 316 105 316 105 256 c 0,23,24
 105 197 105 197 130.5 149 c 128,-1,25
 156 101 156 101 200 73.5 c 128,-1,26
 244 46 244 46 298 46 c 256,27,28
 352 46 352 46 396.5 73 c 128,-1,29
 441 100 441 100 466 148 c 128,-1,30
 491 196 491 196 491 256 c 256,31,16
 491 316 491 316 466 364 c 128,-1,17
EndSplineSet
Validated: 1
Substitution2: "Single Substitution lookup 20 subtable" ordmasculine
EndChar

StartChar: ohorn
Encoding: 417 417 387
Width: 595
GlyphClass: 2
Flags: W
AnchorPoint: "Anchor-8" 314 508 basechar 0
AnchorPoint: "Anchor-7" 298 252 basechar 0
AnchorPoint: "Anchor-6" 300 503 basechar 0
AnchorPoint: "Anchor-5" 536 10 basechar 0
AnchorPoint: "Anchor-4" 300 0 basechar 0
LayerCount: 2
Fore
SplineSet
526.5 375 m 128,-1,1
 551 321 551 321 551 256 c 0,2,3
 551 181 551 181 518 120 c 128,-1,4
 485 59 485 59 427 24.5 c 128,-1,5
 369 -10 369 -10 298 -10 c 256,6,7
 227 -10 227 -10 169 24.5 c 128,-1,8
 111 59 111 59 78 120 c 128,-1,9
 45 181 45 181 45 256 c 256,10,11
 45 331 45 331 78 392 c 128,-1,12
 111 453 111 453 169 488 c 128,-1,13
 227 523 227 523 298 523 c 0,14,15
 343 523 343 523 388 507 c 1,16,17
 437 507 437 507 459.5 525 c 128,-1,18
 482 543 482 543 482 584 c 0,19,20
 482 599 482 599 489 609.5 c 128,-1,21
 496 620 496 620 509 620 c 0,22,23
 534 620 534 620 534 584 c 0,24,25
 534 542 534 542 514.5 511.5 c 128,-1,26
 495 481 495 481 458 466 c 1,27,0
 502 429 502 429 526.5 375 c 128,-1,1
396.5 73 m 128,-1,29
 441 100 441 100 466 148 c 128,-1,30
 491 196 491 196 491 256 c 256,31,32
 491 316 491 316 466 364 c 128,-1,33
 441 412 441 412 396.5 439.5 c 128,-1,34
 352 467 352 467 298 467 c 256,35,36
 244 467 244 467 200 439.5 c 128,-1,37
 156 412 156 412 130.5 364 c 128,-1,38
 105 316 105 316 105 256 c 0,39,40
 105 197 105 197 130.5 149 c 128,-1,41
 156 101 156 101 200 73.5 c 128,-1,42
 244 46 244 46 298 46 c 256,43,28
 352 46 352 46 396.5 73 c 128,-1,29
EndSplineSet
Validated: 1
EndChar

StartChar: uni01EB
Encoding: 491 491 398
Width: 595
Flags: W
LayerCount: 2
Fore
SplineSet
324 -31.5 m 128,-1,1
 304 -55 304 -55 304 -81 c 0,2,3
 304 -108 304 -108 319 -124 c 128,-1,4
 334 -140 334 -140 354 -140 c 0,5,6
 371 -140 371 -140 381 -130 c 0,7,8
 395 -113 395 -113 409 -113 c 0,9,10
 419 -113 419 -113 425 -119 c 128,-1,11
 431 -125 431 -125 431 -135 c 0,12,13
 431 -157 431 -157 406.5 -174 c 128,-1,14
 382 -191 382 -191 348 -191 c 0,15,16
 308 -191 308 -191 279.5 -164 c 128,-1,17
 251 -137 251 -137 251 -92 c 0,18,19
 251 -43 251 -43 282 -10 c 1,20,21
 215 -6 215 -6 161 30 c 128,-1,22
 107 66 107 66 76 125 c 128,-1,23
 45 184 45 184 45 256 c 0,24,25
 45 331 45 331 78 392 c 128,-1,26
 111 453 111 453 169 488 c 128,-1,27
 227 523 227 523 298 523 c 256,28,29
 369 523 369 523 427 488 c 128,-1,30
 485 453 485 453 518 392 c 128,-1,31
 551 331 551 331 551 256 c 0,32,33
 551 165 551 165 502.5 97.5 c 128,-1,34
 454 30 454 30 374 4 c 0,35,0
 344 -8 344 -8 324 -31.5 c 128,-1,1
130.5 149 m 128,-1,37
 156 101 156 101 200 73.5 c 128,-1,38
 244 46 244 46 298 46 c 256,39,40
 352 46 352 46 396.5 73 c 128,-1,41
 441 100 441 100 466 148 c 128,-1,42
 491 196 491 196 491 256 c 256,43,44
 491 316 491 316 466 364 c 128,-1,45
 441 412 441 412 396.5 439.5 c 128,-1,46
 352 467 352 467 298 467 c 256,47,48
 244 467 244 467 200 439.5 c 128,-1,49
 156 412 156 412 130.5 364 c 128,-1,50
 105 316 105 316 105 256 c 0,51,36
 105 197 105 197 130.5 149 c 128,-1,37
EndSplineSet
Validated: 1
EndChar

StartChar: oslash
Encoding: 248 248 399
Width: 601
GlyphClass: 2
Flags: W
AnchorPoint: "Anchor-8" 314 508 basechar 0
AnchorPoint: "Anchor-7" 298 252 basechar 0
AnchorPoint: "Anchor-6" 301 503 basechar 0
AnchorPoint: "Anchor-5" 536 10 basechar 0
AnchorPoint: "Anchor-4" 298 0 basechar 0
LayerCount: 2
Fore
SplineSet
532 361 m 128,-1,1
 551 312 551 312 551 256 c 0,2,3
 551 181 551 181 518 120 c 128,-1,4
 485 59 485 59 427 24.5 c 128,-1,5
 369 -10 369 -10 298 -10 c 0,6,7
 206 -10 206 -10 138 47 c 1,8,-1
 83 -17 l 2,9,10
 73 -27 73 -27 62 -27 c 256,11,12
 51 -27 51 -27 42.5 -19 c 128,-1,13
 34 -11 34 -11 34 0 c 256,14,15
 34 11 34 11 41 19 c 2,16,-1
 99 87 l 1,17,18
 45 158 45 158 45 256 c 0,19,20
 45 331 45 331 78 392 c 128,-1,21
 111 453 111 453 169 488 c 128,-1,22
 227 523 227 523 298 523 c 0,23,24
 374 523 374 523 436 482 c 1,25,-1
 478 531 l 2,26,27
 488 541 488 541 499 541 c 256,28,29
 510 541 510 541 518.5 533 c 128,-1,30
 527 525 527 525 527 514 c 0,31,32
 527 502 527 502 520 495 c 2,33,-1
 479 447 l 1,34,0
 513 410 513 410 532 361 c 128,-1,1
139 134 m 1,36,-1
 399 438 l 1,37,38
 355 467 355 467 298 467 c 0,39,40
 244 467 244 467 200 439.5 c 128,-1,41
 156 412 156 412 130.5 364 c 128,-1,42
 105 316 105 316 105 256 c 0,43,35
 105 187 105 187 139 134 c 1,36,-1
396.5 73 m 128,-1,45
 441 100 441 100 466 148 c 128,-1,46
 491 196 491 196 491 256 c 0,47,48
 491 299 491 299 478 336.5 c 128,-1,49
 465 374 465 374 441 402 c 1,50,-1
 175 91 l 1,51,52
 228 46 228 46 298 46 c 0,53,44
 352 46 352 46 396.5 73 c 128,-1,45
EndSplineSet
Validated: 1
EndChar

StartChar: oe
Encoding: 339 339 405
Width: 1002
GlyphClass: 2
Flags: W
AnchorPoint: "Anchor-8" 314 508 basechar 0
AnchorPoint: "Anchor-7" 298 252 basechar 0
AnchorPoint: "Anchor-6" 536 503 basechar 0
AnchorPoint: "Anchor-5" 946 10 basechar 0
AnchorPoint: "Anchor-4" 536 0 basechar 0
LayerCount: 2
Fore
SplineSet
551 256 m 1,0,1
 551 240 551 240 550 232 c 0,2,3
 558 149 558 149 611.5 97.5 c 128,-1,4
 665 46 665 46 751 46 c 0,5,6
 799 46 799 46 837 66 c 128,-1,7
 875 86 875 86 898 117 c 0,8,9
 909 126 909 126 919 126 c 256,10,11
 929 126 929 126 937 118 c 128,-1,12
 945 110 945 110 945 100 c 0,13,14
 945 89 945 89 935 79 c 0,15,16
 903 40 903 40 854.5 15 c 128,-1,17
 806 -10 806 -10 752 -10 c 0,18,19
 673 -10 673 -10 612 25.5 c 128,-1,20
 551 61 551 61 520 123 c 1,21,22
 487 61 487 61 428.5 25.5 c 128,-1,23
 370 -10 370 -10 298 -10 c 0,24,25
 227 -10 227 -10 169 24.5 c 128,-1,26
 111 59 111 59 78 120 c 128,-1,27
 45 181 45 181 45 256 c 256,28,29
 45 331 45 331 78 392 c 128,-1,30
 111 453 111 453 169 488 c 128,-1,31
 227 523 227 523 298 523 c 0,32,33
 371 523 371 523 429.5 486.5 c 128,-1,34
 488 450 488 450 520 388 c 1,35,36
 550 452 550 452 605.5 487.5 c 128,-1,37
 661 523 661 523 725 523 c 0,38,39
 785 523 785 523 837.5 495 c 128,-1,40
 890 467 890 467 923 413 c 128,-1,41
 956 359 956 359 957 285 c 0,42,43
 957 273 957 273 948 264.5 c 128,-1,44
 939 256 939 256 927 256 c 2,45,-1
 551 256 l 1,0,1
396.5 73 m 128,-1,47
 441 100 441 100 466 148 c 128,-1,48
 491 196 491 196 491 256 c 256,49,50
 491 316 491 316 466 364 c 128,-1,51
 441 412 441 412 396.5 439.5 c 128,-1,52
 352 467 352 467 298 467 c 256,53,54
 244 467 244 467 200 439.5 c 128,-1,55
 156 412 156 412 130.5 364 c 128,-1,56
 105 316 105 316 105 256 c 0,57,58
 105 197 105 197 130.5 149 c 128,-1,59
 156 101 156 101 200 73.5 c 128,-1,60
 244 46 244 46 298 46 c 256,61,46
 352 46 352 46 396.5 73 c 128,-1,47
617.5 425 m 128,-1,63
 568 385 568 385 554 310 c 1,64,-1
 895 310 l 1,65,-1
 895 318 l 1,66,67
 890 363 890 363 865 396.5 c 128,-1,68
 840 430 840 430 802.5 447.5 c 128,-1,69
 765 465 765 465 725 465 c 0,70,62
 667 465 667 465 617.5 425 c 128,-1,63
EndSplineSet
Validated: 1
EndChar

StartChar: p
Encoding: 112 112 406
Width: 602
GlyphClass: 2
Flags: W
AnchorPoint: "Anchor-8" 0 0 basechar 0
AnchorPoint: "Anchor-7" 0 0 basechar 0
AnchorPoint: "Anchor-6" 302 503 basechar 0
AnchorPoint: "Anchor-5" 0 0 basechar 0
AnchorPoint: "Anchor-4" 302 0 basechar 0
LayerCount: 2
Fore
SplineSet
442 481.5 m 128,-1,1
 496 448 496 448 526.5 388.5 c 128,-1,2
 557 329 557 329 557 255 c 0,3,4
 557 180 557 180 526.5 120.5 c 128,-1,5
 496 61 496 61 442.5 27 c 128,-1,6
 389 -7 389 -7 323 -7 c 0,7,8
 265 -7 265 -7 216.5 20.5 c 128,-1,9
 168 48 168 48 139 94 c 1,10,-1
 139 -170 l 2,11,12
 139 -183 139 -183 130.5 -191.5 c 128,-1,13
 122 -200 122 -200 109 -200 c 256,14,15
 96 -200 96 -200 87.5 -191.5 c 128,-1,16
 79 -183 79 -183 79 -170 c 2,17,-1
 79 482 l 2,18,19
 79 495 79 495 87.5 504 c 128,-1,20
 96 513 96 513 109 513 c 256,21,22
 122 513 122 513 130.5 504 c 128,-1,23
 139 495 139 495 139 482 c 2,24,-1
 139 414 l 1,25,26
 165 461 165 461 214 488 c 128,-1,27
 263 515 263 515 322 515 c 0,28,0
 388 515 388 515 442 481.5 c 128,-1,1
410.5 75.5 m 128,-1,30
 452 102 452 102 475.5 149 c 128,-1,31
 499 196 499 196 499 255 c 0,32,33
 499 313 499 313 475.5 359.5 c 128,-1,34
 452 406 452 406 410.5 432.5 c 128,-1,35
 369 459 369 459 317 459 c 0,36,37
 264 459 264 459 222 433 c 128,-1,38
 180 407 180 407 157 360.5 c 128,-1,39
 134 314 134 314 134 255 c 256,40,41
 134 196 134 196 157 149 c 128,-1,42
 180 102 180 102 222 75.5 c 128,-1,43
 264 49 264 49 317 49 c 0,44,29
 369 49 369 49 410.5 75.5 c 128,-1,30
EndSplineSet
Validated: 1
EndChar

StartChar: thorn
Encoding: 254 254 407
Width: 602
GlyphClass: 2
Flags: W
AnchorPoint: "Anchor-8" 0 0 basechar 0
AnchorPoint: "Anchor-7" 0 0 basechar 0
AnchorPoint: "Anchor-6" 282 499 basechar 0
AnchorPoint: "Anchor-5" 0 0 basechar 0
AnchorPoint: "Anchor-4" 282 0 basechar 0
LayerCount: 2
Fore
SplineSet
442 481.5 m 128,-1,1
 496 448 496 448 526.5 388.5 c 128,-1,2
 557 329 557 329 557 255 c 0,3,4
 557 180 557 180 526.5 120.5 c 128,-1,5
 496 61 496 61 442.5 27 c 128,-1,6
 389 -7 389 -7 323 -7 c 0,7,8
 265 -7 265 -7 216.5 20.5 c 128,-1,9
 168 48 168 48 139 94 c 1,10,-1
 139 -170 l 2,11,12
 139 -183 139 -183 130.5 -191.5 c 128,-1,13
 122 -200 122 -200 109 -200 c 256,14,15
 96 -200 96 -200 87.5 -191.5 c 128,-1,16
 79 -183 79 -183 79 -170 c 2,17,-1
 79 710 l 2,18,19
 79 723 79 723 87.5 731.5 c 128,-1,20
 96 740 96 740 109 740 c 256,21,22
 122 740 122 740 130.5 731.5 c 128,-1,23
 139 723 139 723 139 710 c 2,24,-1
 139 414 l 1,25,26
 165 461 165 461 214 488 c 128,-1,27
 263 515 263 515 322 515 c 0,28,0
 388 515 388 515 442 481.5 c 128,-1,1
410.5 75.5 m 128,-1,30
 452 102 452 102 475.5 149 c 128,-1,31
 499 196 499 196 499 255 c 0,32,33
 499 313 499 313 475.5 359.5 c 128,-1,34
 452 406 452 406 410.5 432.5 c 128,-1,35
 369 459 369 459 317 459 c 0,36,37
 264 459 264 459 222 433 c 128,-1,38
 180 407 180 407 157 360.5 c 128,-1,39
 134 314 134 314 134 255 c 256,40,41
 134 196 134 196 157 149 c 128,-1,42
 180 102 180 102 222 75.5 c 128,-1,43
 264 49 264 49 317 49 c 0,44,29
 369 49 369 49 410.5 75.5 c 128,-1,30
EndSplineSet
Validated: 1
EndChar

StartChar: q
Encoding: 113 113 408
Width: 602
GlyphClass: 2
Flags: W
AnchorPoint: "Anchor-8" 0 0 basechar 0
AnchorPoint: "Anchor-7" 0 0 basechar 0
AnchorPoint: "Anchor-6" 302 503 basechar 0
AnchorPoint: "Anchor-5" 0 0 basechar 0
AnchorPoint: "Anchor-4" 302 0 basechar 0
LayerCount: 2
Fore
SplineSet
515.5 504 m 128,-1,1
 524 495 524 495 524 482 c 2,2,-1
 524 -170 l 2,3,4
 524 -183 524 -183 515.5 -191.5 c 128,-1,5
 507 -200 507 -200 494 -200 c 256,6,7
 481 -200 481 -200 472.5 -191.5 c 128,-1,8
 464 -183 464 -183 464 -170 c 2,9,-1
 464 100 l 1,10,11
 439 54 439 54 389.5 22 c 128,-1,12
 340 -10 340 -10 280 -10 c 0,13,14
 214 -10 214 -10 160.5 24.5 c 128,-1,15
 107 59 107 59 76 120 c 128,-1,16
 45 181 45 181 45 257 c 0,17,18
 45 332 45 332 76 393 c 128,-1,19
 107 454 107 454 160.5 488.5 c 128,-1,20
 214 523 214 523 279 523 c 0,21,22
 338 523 338 523 388 493.5 c 128,-1,23
 438 464 438 464 464 417 c 1,24,-1
 464 482 l 2,25,26
 464 495 464 495 472.5 504 c 128,-1,27
 481 513 481 513 494 513 c 256,28,0
 507 513 507 513 515.5 504 c 128,-1,1
379.5 73 m 128,-1,30
 421 100 421 100 444.5 148.5 c 128,-1,31
 468 197 468 197 468 257 c 0,32,33
 468 316 468 316 444.5 364 c 128,-1,34
 421 412 421 412 379.5 439.5 c 128,-1,35
 338 467 338 467 286 467 c 256,36,37
 234 467 234 467 192.5 439.5 c 128,-1,38
 151 412 151 412 127.5 364 c 128,-1,39
 104 316 104 316 104 257 c 0,40,41
 104 197 104 197 127.5 149 c 128,-1,42
 151 101 151 101 192.5 73.5 c 128,-1,43
 234 46 234 46 286 46 c 256,44,29
 338 46 338 46 379.5 73 c 128,-1,30
EndSplineSet
Validated: 1
EndChar

StartChar: r
Encoding: 114 114 409
Width: 385
GlyphClass: 2
Flags: W
AnchorPoint: "Anchor-8" 0 0 basechar 0
AnchorPoint: "Anchor-7" 0 0 basechar 0
AnchorPoint: "Anchor-6" 192 503 basechar 0
AnchorPoint: "Anchor-5" 0 0 basechar 0
AnchorPoint: "Anchor-4" 108 0 basechar 0
LayerCount: 2
Fore
SplineSet
354 515 m 128,-1,1
 370 507 370 507 370 491 c 0,2,3
 370 477 370 477 362 468.5 c 128,-1,4
 354 460 354 460 343 460 c 0,5,6
 338 460 338 460 323.5 465 c 128,-1,7
 309 470 309 470 296 470 c 0,8,9
 259 470 259 470 222.5 441.5 c 128,-1,10
 186 413 186 413 162.5 368 c 128,-1,11
 139 323 139 323 139 277 c 2,12,-1
 139 30 l 2,13,14
 139 17 139 17 130.5 8.5 c 128,-1,15
 122 0 122 0 109 0 c 256,16,17
 96 0 96 0 87.5 8.5 c 128,-1,18
 79 17 79 17 79 30 c 2,19,-1
 79 478 l 2,20,21
 79 491 79 491 87.5 499.5 c 128,-1,22
 96 508 96 508 109 508 c 256,23,24
 122 508 122 508 130.5 499.5 c 128,-1,25
 139 491 139 491 139 478 c 2,26,-1
 139 390 l 1,27,28
 162 447 162 447 208.5 484.5 c 128,-1,29
 255 522 255 522 318 523 c 0,30,0
 338 523 338 523 354 515 c 128,-1,1
EndSplineSet
Validated: 1
EndChar

StartChar: s
Encoding: 115 115 417
Width: 469
GlyphClass: 2
Flags: W
AnchorPoint: "Anchor-8" 0 0 basechar 0
AnchorPoint: "Anchor-7" 0 0 basechar 0
AnchorPoint: "Anchor-6" 235 503 basechar 0
AnchorPoint: "Anchor-5" 0 0 basechar 0
AnchorPoint: "Anchor-4" 235 0 basechar 0
LayerCount: 2
Fore
SplineSet
42 103 m 0,1,2
 42 116 42 116 55 123 c 0,3,4
 61 129 61 129 71 129 c 0,5,6
 83 129 83 129 93 119 c 0,7,8
 152 41 152 41 250 41 c 0,9,10
 298 41 298 41 333.5 63.5 c 128,-1,11
 369 86 369 86 369 129 c 0,12,13
 369 171 369 171 336 192 c 128,-1,14
 303 213 303 213 244 228 c 0,15,16
 161 249 161 249 114 282.5 c 128,-1,17
 67 316 67 316 67 381 c 0,18,19
 67 422 67 422 90 454.5 c 128,-1,20
 113 487 113 487 152.5 505 c 128,-1,21
 192 523 192 523 242 523 c 0,22,23
 285 523 285 523 328.5 506.5 c 128,-1,24
 372 490 372 490 403 454 c 0,25,26
 412 447 412 447 412 434 c 0,27,28
 412 422 412 422 402 413 c 0,29,30
 395 407 395 407 384 407 c 0,31,32
 374 407 374 407 366 415 c 0,33,34
 342 442 342 442 309 456 c 128,-1,35
 276 470 276 470 238 470 c 0,36,37
 191 470 191 470 157.5 448 c 128,-1,38
 124 426 124 426 124 382 c 0,39,40
 126 342 126 342 160.5 321 c 128,-1,41
 195 300 195 300 262 283 c 0,42,43
 314 270 314 270 348 254 c 128,-1,44
 382 238 382 238 403.5 209 c 128,-1,45
 425 180 425 180 425 132 c 0,46,47
 425 67 425 67 373 28.5 c 128,-1,48
 321 -10 321 -10 244 -10 c 0,49,50
 122 -10 122 -10 50 81 c 0,51,0
 42 94 42 94 42 103 c 0,1,2
EndSplineSet
Validated: 1
EndChar

StartChar: scedilla
Encoding: 351 351 422
Width: 469
GlyphClass: 2
Flags: W
AnchorPoint: "Anchor-8" 0 0 basechar 0
AnchorPoint: "Anchor-7" 0 0 basechar 0
AnchorPoint: "Anchor-6" 0 0 basechar 0
AnchorPoint: "Anchor-5" 0 0 basechar 0
AnchorPoint: "Anchor-4" 235 -144 basechar 0
LayerCount: 2
Fore
SplineSet
388.5 42 m 128,-1,1
 352 6 352 6 293 -6 c 1,2,-1
 238 -124 l 2,3,4
 229 -144 229 -144 212 -144 c 0,5,6
 200 -144 200 -144 184.5 -134.5 c 128,-1,7
 169 -125 169 -125 169 -112 c 0,8,9
 169 -101 169 -101 176 -94 c 2,10,-1
 243 -10 l 1,11,12
 122 -10 122 -10 50 81 c 0,13,14
 42 94 42 94 42 103 c 0,15,16
 42 116 42 116 55 123 c 0,17,18
 61 129 61 129 71 129 c 0,19,20
 83 129 83 129 93 119 c 0,21,22
 152 41 152 41 250 41 c 0,23,24
 298 41 298 41 333.5 63.5 c 128,-1,25
 369 86 369 86 369 129 c 0,26,27
 369 171 369 171 336 192 c 128,-1,28
 303 213 303 213 244 228 c 0,29,30
 161 249 161 249 114 282.5 c 128,-1,31
 67 316 67 316 67 381 c 0,32,33
 67 422 67 422 90 454.5 c 128,-1,34
 113 487 113 487 152.5 505 c 128,-1,35
 192 523 192 523 242 523 c 0,36,37
 285 523 285 523 328.5 506.5 c 128,-1,38
 372 490 372 490 403 454 c 0,39,40
 412 447 412 447 412 434 c 0,41,42
 412 422 412 422 402 413 c 0,43,44
 395 407 395 407 384 407 c 0,45,46
 374 407 374 407 366 415 c 0,47,48
 342 442 342 442 309 456 c 128,-1,49
 276 470 276 470 238 470 c 0,50,51
 191 470 191 470 157.5 448 c 128,-1,52
 124 426 124 426 124 382 c 0,53,54
 126 342 126 342 160.5 321 c 128,-1,55
 195 300 195 300 262 283 c 0,56,57
 314 270 314 270 348 254 c 128,-1,58
 382 238 382 238 403.5 209 c 128,-1,59
 425 180 425 180 425 132 c 0,60,0
 425 78 425 78 388.5 42 c 128,-1,1
EndSplineSet
Validated: 1
Substitution2: "'locl' Localized Forms in Latin lookup 2 subtable" uni0219
Substitution2: "'locl' Localized Forms in Latin lookup 1 subtable" uni0219
EndChar

StartChar: germandbls
Encoding: 223 223 428
Width: 606
Flags: W
LayerCount: 2
Fore
SplineSet
515 377 m 128,-1,1
 562 317 562 317 562 231 c 0,2,3
 562 162 562 162 533 107 c 128,-1,4
 504 52 504 52 454 21 c 128,-1,5
 404 -10 404 -10 345 -10 c 0,6,7
 314 -10 314 -10 288.5 -3.5 c 128,-1,8
 263 3 263 3 247 16 c 0,9,10
 236 24 236 24 236 37 c 0,11,12
 236 47 236 47 244 55 c 0,13,14
 251 65 251 65 263 65 c 256,15,16
 275 65 275 65 284 57 c 0,17,18
 311 40 311 40 346 40 c 0,19,20
 387 40 387 40 423 63.5 c 128,-1,21
 459 87 459 87 480.5 129 c 128,-1,22
 502 171 502 171 502 223 c 0,23,24
 502 311 502 311 455 358.5 c 128,-1,25
 408 406 408 406 338 422 c 0,26,27
 311 429 311 429 311 453 c 0,28,29
 311 463 311 463 316 470.5 c 128,-1,30
 321 478 321 478 331 481 c 0,31,32
 375 492 375 492 399 521.5 c 128,-1,33
 423 551 423 551 423 581 c 0,34,35
 423 619 423 619 391.5 645 c 128,-1,36
 360 671 360 671 308 671 c 0,37,38
 235 671 235 671 199.5 619 c 128,-1,39
 164 567 164 567 164 496 c 2,40,-1
 163 30 l 2,41,42
 163 17 163 17 155 8.5 c 128,-1,43
 147 0 147 0 133 0 c 256,44,45
 119 0 119 0 111 8 c 128,-1,46
 103 16 103 16 103 30 c 2,47,-1
 104 444 l 1,48,-1
 58 444 l 2,49,50
 46 444 46 444 37.5 452.5 c 128,-1,51
 29 461 29 461 29 473 c 256,52,53
 29 485 29 485 37.5 493 c 128,-1,54
 46 501 46 501 58 501 c 2,55,-1
 104 501 l 1,56,57
 105 558 105 558 127 610 c 128,-1,58
 149 662 149 662 195 695.5 c 128,-1,59
 241 729 241 729 309 729 c 0,60,61
 392 729 392 729 437 687.5 c 128,-1,62
 482 646 482 646 482 585 c 0,63,64
 482 551 482 551 459 515 c 128,-1,65
 436 479 436 479 395 462 c 1,66,0
 468 437 468 437 515 377 c 128,-1,1
EndSplineSet
Validated: 1
EndChar

StartChar: t
Encoding: 116 116 429
Width: 339
GlyphClass: 2
Flags: W
AnchorPoint: "Anchor-8" 316 506 basechar 0
AnchorPoint: "Anchor-7" 168 252 basechar 0
AnchorPoint: "Anchor-6" 150 649 basechar 0
AnchorPoint: "Anchor-5" 0 0 basechar 0
AnchorPoint: "Anchor-4" 168 0 basechar 0
LayerCount: 2
Fore
SplineSet
179 453 m 1,0,-1
 179 118 l 2,1,2
 179 80 179 80 193 66.5 c 128,-1,3
 207 53 207 53 230 53 c 0,4,5
 236 53 236 53 245 55.5 c 128,-1,6
 254 58 254 58 259 58 c 0,7,8
 268 58 268 58 274.5 50.5 c 128,-1,9
 281 43 281 43 281 33 c 0,10,11
 281 19 281 19 265 9.5 c 128,-1,12
 249 0 249 0 227 0 c 0,13,14
 200 0 200 0 179 5 c 128,-1,15
 158 10 158 10 138.5 35 c 128,-1,16
 119 60 119 60 119 115 c 2,17,-1
 119 453 l 1,18,-1
 46 453 l 2,19,20
 34 453 34 453 25.5 461 c 128,-1,21
 17 469 17 469 17 481 c 256,22,23
 17 493 17 493 25.5 501 c 128,-1,24
 34 509 34 509 46 509 c 2,25,-1
 119 509 l 1,26,-1
 119 620 l 2,27,28
 119 633 119 633 127.5 641.5 c 128,-1,29
 136 650 136 650 149 650 c 256,30,31
 162 650 162 650 170.5 641.5 c 128,-1,32
 179 633 179 633 179 620 c 2,33,-1
 179 509 l 1,34,-1
 279 509 l 2,35,36
 290 509 290 509 298.5 500 c 128,-1,37
 307 491 307 491 307 480 c 0,38,39
 307 468 307 468 299 460.5 c 128,-1,40
 291 453 291 453 279 453 c 2,41,-1
 179 453 l 1,0,-1
EndSplineSet
Validated: 1
EndChar

StartChar: tbar
Encoding: 359 359 430
Width: 339
GlyphClass: 2
Flags: W
AnchorPoint: "Anchor-8" 316 506 basechar 0
AnchorPoint: "Anchor-7" 168 252 basechar 0
AnchorPoint: "Anchor-6" 150 649 basechar 0
AnchorPoint: "Anchor-5" 0 0 basechar 0
AnchorPoint: "Anchor-4" 168 0 basechar 0
LayerCount: 2
Fore
SplineSet
179 453 m 1,0,-1
 179 281 l 1,1,-1
 252 281 l 2,2,3
 266 281 266 281 274 273.5 c 128,-1,4
 282 266 282 266 282 253 c 256,5,6
 282 240 282 240 274 232.5 c 128,-1,7
 266 225 266 225 252 225 c 2,8,-1
 179 225 l 1,9,-1
 179 118 l 2,10,11
 179 80 179 80 193 66.5 c 128,-1,12
 207 53 207 53 230 53 c 0,13,14
 236 53 236 53 245 55.5 c 128,-1,15
 254 58 254 58 259 58 c 0,16,17
 268 58 268 58 274.5 50.5 c 128,-1,18
 281 43 281 43 281 33 c 0,19,20
 281 19 281 19 265 9.5 c 128,-1,21
 249 0 249 0 227 0 c 0,22,23
 200 0 200 0 179 5 c 128,-1,24
 158 10 158 10 138.5 35 c 128,-1,25
 119 60 119 60 119 115 c 2,26,-1
 119 225 l 1,27,-1
 89 225 l 2,28,29
 75 225 75 225 66.5 233 c 128,-1,30
 58 241 58 241 58 254 c 0,31,32
 58 266 58 266 66.5 273.5 c 128,-1,33
 75 281 75 281 89 281 c 2,34,-1
 119 281 l 1,35,-1
 119 453 l 1,36,-1
 46 453 l 2,37,38
 34 453 34 453 25.5 461 c 128,-1,39
 17 469 17 469 17 481 c 256,40,41
 17 493 17 493 25.5 501 c 128,-1,42
 34 509 34 509 46 509 c 2,43,-1
 119 509 l 1,44,-1
 119 620 l 2,45,46
 119 633 119 633 127.5 641.5 c 128,-1,47
 136 650 136 650 149 650 c 256,48,49
 162 650 162 650 170.5 641.5 c 128,-1,50
 179 633 179 633 179 620 c 2,51,-1
 179 509 l 1,52,-1
 279 509 l 2,53,54
 290 509 290 509 298.5 500 c 128,-1,55
 307 491 307 491 307 480 c 0,56,57
 307 468 307 468 299 460.5 c 128,-1,58
 291 453 291 453 279 453 c 2,59,-1
 179 453 l 1,0,-1
EndSplineSet
Validated: 1
EndChar

StartChar: uni0163
Encoding: 355 355 432
Width: 339
GlyphClass: 2
Flags: W
AnchorPoint: "Anchor-8" 316 506 basechar 0
AnchorPoint: "Anchor-7" 168 252 basechar 0
AnchorPoint: "Anchor-6" 0 0 basechar 0
AnchorPoint: "Anchor-5" 0 0 basechar 0
AnchorPoint: "Anchor-4" 168 -144 basechar 0
LayerCount: 2
Fore
SplineSet
179 453 m 1,0,-1
 179 118 l 2,1,2
 179 80 179 80 193 66.5 c 128,-1,3
 207 53 207 53 230 53 c 0,4,5
 236 53 236 53 245 55.5 c 128,-1,6
 254 58 254 58 259 58 c 0,7,8
 268 58 268 58 274.5 50.5 c 128,-1,9
 281 43 281 43 281 33 c 0,10,11
 281 19 281 19 265 9.5 c 128,-1,12
 249 0 249 0 227 0 c 1,13,-1
 170 -124 l 2,14,15
 162 -144 162 -144 144 -144 c 0,16,17
 133 -144 133 -144 117.5 -134.5 c 128,-1,18
 102 -125 102 -125 102 -112 c 0,19,20
 102 -101 102 -101 109 -94 c 2,21,-1
 187 3 l 1,22,23
 119 20 119 20 119 115 c 2,24,-1
 119 453 l 1,25,-1
 46 453 l 2,26,27
 34 453 34 453 25.5 461 c 128,-1,28
 17 469 17 469 17 481 c 256,29,30
 17 493 17 493 25.5 501 c 128,-1,31
 34 509 34 509 46 509 c 2,32,-1
 119 509 l 1,33,-1
 119 620 l 2,34,35
 119 633 119 633 127.5 641.5 c 128,-1,36
 136 650 136 650 149 650 c 256,37,38
 162 650 162 650 170.5 641.5 c 128,-1,39
 179 633 179 633 179 620 c 2,40,-1
 179 509 l 1,41,-1
 279 509 l 2,42,43
 290 509 290 509 298.5 500 c 128,-1,44
 307 491 307 491 307 480 c 0,45,46
 307 468 307 468 299 460.5 c 128,-1,47
 291 453 291 453 279 453 c 2,48,-1
 179 453 l 1,0,-1
EndSplineSet
Validated: 1
Substitution2: "'locl' Localized Forms in Latin lookup 2 subtable" uni021B
Substitution2: "'locl' Localized Forms in Latin lookup 1 subtable" uni021B
EndChar

StartChar: u
Encoding: 117 117 437
Width: 569
GlyphClass: 2
Flags: W
AnchorPoint: "Anchor-8" 382 509 basechar 0
AnchorPoint: "Anchor-7" 0 0 basechar 0
AnchorPoint: "Anchor-6" 285 503 basechar 0
AnchorPoint: "Anchor-5" 512 10 basechar 0
AnchorPoint: "Anchor-4" 285 0 basechar 0
LayerCount: 2
Fore
SplineSet
482.5 499.5 m 128,-1,1
 491 491 491 491 491 478 c 2,2,-1
 491 196 l 2,3,4
 491 98 491 98 436 45.5 c 128,-1,5
 381 -7 381 -7 284 -7 c 0,6,7
 188 -7 188 -7 133.5 45.5 c 128,-1,8
 79 98 79 98 79 196 c 2,9,-1
 79 478 l 2,10,11
 79 491 79 491 87.5 499.5 c 128,-1,12
 96 508 96 508 109 508 c 256,13,14
 122 508 122 508 130.5 499.5 c 128,-1,15
 139 491 139 491 139 478 c 2,16,-1
 139 196 l 2,17,18
 139 124 139 124 177 86.5 c 128,-1,19
 215 49 215 49 284 49 c 0,20,21
 354 49 354 49 392.5 86.5 c 128,-1,22
 431 124 431 124 431 196 c 2,23,-1
 431 478 l 2,24,25
 431 491 431 491 439.5 499.5 c 128,-1,26
 448 508 448 508 461 508 c 256,27,0
 474 508 474 508 482.5 499.5 c 128,-1,1
EndSplineSet
Validated: 1
EndChar

StartChar: uhorn
Encoding: 432 432 447
Width: 569
GlyphClass: 2
Flags: W
AnchorPoint: "Anchor-8" 382 509 basechar 0
AnchorPoint: "Anchor-7" 0 0 basechar 0
AnchorPoint: "Anchor-6" 300 503 basechar 0
AnchorPoint: "Anchor-5" 512 10 basechar 0
AnchorPoint: "Anchor-4" 300 0 basechar 0
LayerCount: 2
Fore
SplineSet
573 499 m 128,-1,1
 544 465 544 465 491 457 c 1,2,-1
 491 196 l 2,3,4
 491 98 491 98 436 45.5 c 128,-1,5
 381 -7 381 -7 284 -7 c 0,6,7
 188 -7 188 -7 133.5 45.5 c 128,-1,8
 79 98 79 98 79 196 c 2,9,-1
 79 478 l 2,10,11
 79 491 79 491 87.5 499.5 c 128,-1,12
 96 508 96 508 109 508 c 256,13,14
 122 508 122 508 130.5 499.5 c 128,-1,15
 139 491 139 491 139 478 c 2,16,-1
 139 196 l 2,17,18
 139 124 139 124 177 86.5 c 128,-1,19
 215 49 215 49 284 49 c 0,20,21
 354 49 354 49 392.5 86.5 c 128,-1,22
 431 124 431 124 431 196 c 2,23,-1
 431 478 l 2,24,25
 431 489 431 489 438 497.5 c 128,-1,26
 445 506 445 506 456 508 c 0,27,28
 504 508 504 508 527 526 c 128,-1,29
 550 544 550 544 550 585 c 0,30,31
 550 600 550 600 556.5 610.5 c 128,-1,32
 563 621 563 621 576 621 c 0,33,34
 602 621 602 621 602 585 c 0,35,0
 602 533 602 533 573 499 c 128,-1,1
EndSplineSet
Validated: 1
EndChar

StartChar: uogonek
Encoding: 371 371 457
Width: 569
Flags: W
LayerCount: 2
Fore
SplineSet
363.5 -3 m 128,-1,1
 348 -14 348 -14 336 -32.5 c 128,-1,2
 324 -51 324 -51 324 -78 c 256,3,4
 324 -105 324 -105 341.5 -122.5 c 128,-1,5
 359 -140 359 -140 383 -140 c 0,6,7
 401 -140 401 -140 413 -128 c 0,8,9
 426 -113 426 -113 438 -113 c 0,10,11
 448 -113 448 -113 453.5 -119 c 128,-1,12
 459 -125 459 -125 459 -135 c 0,13,14
 459 -157 459 -157 434.5 -174 c 128,-1,15
 410 -191 410 -191 376 -191 c 0,16,17
 334 -191 334 -191 302 -162 c 128,-1,18
 270 -133 270 -133 270 -88 c 0,19,20
 270 -42 270 -42 298 -7 c 1,21,-1
 284 -7 l 2,22,23
 188 -7 188 -7 133.5 45.5 c 128,-1,24
 79 98 79 98 79 196 c 2,25,-1
 79 478 l 2,26,27
 79 491 79 491 87.5 499.5 c 128,-1,28
 96 508 96 508 109 508 c 256,29,30
 122 508 122 508 130.5 499.5 c 128,-1,31
 139 491 139 491 139 478 c 2,32,-1
 139 196 l 2,33,34
 139 124 139 124 177 86.5 c 128,-1,35
 215 49 215 49 284 49 c 0,36,37
 354 49 354 49 392.5 86.5 c 128,-1,38
 431 124 431 124 431 196 c 2,39,-1
 431 478 l 2,40,41
 431 491 431 491 439.5 499.5 c 128,-1,42
 448 508 448 508 461 508 c 256,43,44
 474 508 474 508 482.5 499.5 c 128,-1,45
 491 491 491 491 491 478 c 2,46,-1
 491 196 l 2,47,48
 491 76 491 76 410 26 c 0,49,0
 379 8 379 8 363.5 -3 c 128,-1,1
EndSplineSet
Validated: 1
EndChar

StartChar: v
Encoding: 118 118 461
Width: 529
GlyphClass: 2
Flags: W
AnchorPoint: "Anchor-8" 0 0 basechar 0
AnchorPoint: "Anchor-7" 0 0 basechar 0
AnchorPoint: "Anchor-6" 265 503 basechar 0
AnchorPoint: "Anchor-5" 0 0 basechar 0
AnchorPoint: "Anchor-4" 265 0 basechar 0
LayerCount: 2
Fore
SplineSet
484 514 m 128,-1,1
 493 507 493 507 493 496 c 0,2,3
 493 487 493 487 489 479 c 2,4,-1
 293 19 l 2,5,6
 289 11 289 11 281.5 5.5 c 128,-1,7
 274 0 274 0 266 0 c 0,8,9
 256 -1 256 -1 248 4 c 128,-1,10
 240 9 240 9 236 19 c 2,11,-1
 39 479 l 2,12,13
 39 481 39 481 37.5 485 c 128,-1,14
 36 489 36 489 36 493 c 0,15,16
 36 505 36 505 44 513.5 c 128,-1,17
 52 522 52 522 67 522 c 0,18,19
 76 522 76 522 83.5 516.5 c 128,-1,20
 91 511 91 511 95 502 c 2,21,-1
 265 97 l 1,22,-1
 436 502 l 2,23,24
 440 511 440 511 447.5 516.5 c 128,-1,25
 455 522 455 522 465 521 c 0,26,0
 475 521 475 521 484 514 c 128,-1,1
EndSplineSet
Validated: 1
EndChar

StartChar: w
Encoding: 119 119 462
Width: 752
GlyphClass: 2
Flags: W
AnchorPoint: "Anchor-8" 0 0 basechar 0
AnchorPoint: "Anchor-7" 0 0 basechar 0
AnchorPoint: "Anchor-6" 376 488 basechar 0
AnchorPoint: "Anchor-5" 0 0 basechar 0
AnchorPoint: "Anchor-4" 376 0 basechar 0
LayerCount: 2
Fore
SplineSet
707.5 514 m 128,-1,1
 716 506 716 506 716 492 c 0,2,3
 716 491 716 491 713 479 c 2,4,-1
 559 19 l 2,5,6
 554 10 554 10 546 4.5 c 128,-1,7
 538 -1 538 -1 529 0 c 0,8,9
 520 0 520 0 513 5 c 128,-1,10
 506 10 506 10 502 19 c 2,11,-1
 371 327 l 1,12,-1
 254 19 l 2,13,14
 250 11 250 11 242.5 5.5 c 128,-1,15
 235 0 235 0 227 0 c 0,16,17
 217 -1 217 -1 208.5 4.5 c 128,-1,18
 200 10 200 10 197 19 c 2,19,-1
 39 479 l 2,20,21
 36 485 36 485 36 492 c 0,22,23
 36 505 36 505 45 513.5 c 128,-1,24
 54 522 54 522 67 522 c 0,25,26
 76 522 76 522 83.5 516.5 c 128,-1,27
 91 511 91 511 94 502 c 2,28,-1
 227 103 l 1,29,-1
 346 402 l 2,30,31
 353 421 353 421 374 421 c 0,32,33
 394 421 394 421 402 402 c 2,34,-1
 527 105 l 1,35,-1
 658 502 l 2,36,37
 664 522 664 522 686 522 c 0,38,0
 699 522 699 522 707.5 514 c 128,-1,1
EndSplineSet
Validated: 1
EndChar

StartChar: x
Encoding: 120 120 467
Width: 484
GlyphClass: 2
Flags: W
AnchorPoint: "Anchor-8" 0 0 basechar 0
AnchorPoint: "Anchor-7" 0 0 basechar 0
AnchorPoint: "Anchor-6" 243 503 basechar 0
AnchorPoint: "Anchor-5" 0 0 basechar 0
AnchorPoint: "Anchor-4" 243 0 basechar 0
LayerCount: 2
Fore
SplineSet
450 27 m 0,1,2
 450 15 450 15 441 5.5 c 128,-1,3
 432 -4 432 -4 420 -4 c 0,4,5
 406 -4 406 -4 395 10 c 2,6,-1
 242 208 l 1,7,-1
 89 9 l 2,8,9
 80 -3 80 -3 65 -3 c 0,10,11
 54 -3 54 -3 45 4.5 c 128,-1,12
 36 12 36 12 36 24 c 0,13,14
 36 35 36 35 43 43 c 2,15,-1
 207 253 l 1,16,-1
 40 468 l 2,17,18
 34 476 34 476 34 486 c 0,19,20
 34 498 34 498 43.5 507 c 128,-1,21
 53 516 53 516 65 516 c 0,22,23
 80 516 80 516 89 503 c 2,24,-1
 245 302 l 1,25,-1
 395 503 l 2,26,27
 405 516 405 516 420 516 c 0,28,29
 433 516 433 516 440.5 508.5 c 128,-1,30
 448 501 448 501 448 490 c 256,31,32
 448 479 448 479 441 471 c 2,33,-1
 279 258 l 1,34,-1
 443 45 l 2,35,0
 450 37 450 37 450 27 c 0,1,2
EndSplineSet
Validated: 1
EndChar

StartChar: y
Encoding: 121 121 468
Width: 568
GlyphClass: 2
Flags: W
AnchorPoint: "Anchor-8" 0 0 basechar 0
AnchorPoint: "Anchor-7" 0 0 basechar 0
AnchorPoint: "Anchor-6" 284 503 basechar 0
AnchorPoint: "Anchor-5" 0 0 basechar 0
AnchorPoint: "Anchor-4" 356 0 basechar 0
LayerCount: 2
Fore
SplineSet
481.5 511.5 m 128,-1,1
 490 503 490 503 490 490 c 2,2,-1
 490 49 l 2,3,4
 490 -30 490 -30 459 -86 c 128,-1,5
 428 -142 428 -142 373 -171 c 128,-1,6
 318 -200 318 -200 249 -200 c 0,7,8
 207 -200 207 -200 170.5 -191 c 128,-1,9
 134 -182 134 -182 110 -167 c 0,10,11
 89 -154 89 -154 89 -138 c 0,12,13
 89 -136 89 -136 91 -128 c 0,14,15
 94 -118 94 -118 101 -113 c 128,-1,16
 108 -108 108 -108 116 -108 c 0,17,18
 122 -108 122 -108 128 -111 c 0,19,20
 192 -146 192 -146 250 -146 c 0,21,22
 333 -146 333 -146 381.5 -94 c 128,-1,23
 430 -42 430 -42 430 48 c 2,24,-1
 430 83 l 1,25,26
 405 41 405 41 358 15.5 c 128,-1,27
 311 -10 311 -10 256 -10 c 0,28,29
 169 -10 169 -10 124 42 c 128,-1,30
 79 94 79 94 79 183 c 2,31,-1
 79 490 l 2,32,33
 79 503 79 503 87.5 511.5 c 128,-1,34
 96 520 96 520 109 520 c 256,35,36
 122 520 122 520 130.5 511.5 c 128,-1,37
 139 503 139 503 139 490 c 2,38,-1
 139 192 l 2,39,40
 139 120 139 120 170.5 83 c 128,-1,41
 202 46 202 46 269 46 c 0,42,43
 310 46 310 46 347.5 66.5 c 128,-1,44
 385 87 385 87 407.5 120.5 c 128,-1,45
 430 154 430 154 430 192 c 2,46,-1
 430 490 l 2,47,48
 430 503 430 503 438.5 511.5 c 128,-1,49
 447 520 447 520 460 520 c 256,50,0
 473 520 473 520 481.5 511.5 c 128,-1,1
EndSplineSet
Validated: 1
EndChar

StartChar: z
Encoding: 122 122 478
Width: 479
GlyphClass: 2
Flags: W
AnchorPoint: "Anchor-8" 0 0 basechar 0
AnchorPoint: "Anchor-7" 0 0 basechar 0
AnchorPoint: "Anchor-6" 257 503 basechar 0
AnchorPoint: "Anchor-5" 0 0 basechar 0
AnchorPoint: "Anchor-4" 236 0 basechar 0
LayerCount: 2
Fore
SplineSet
420 48 m 128,-1,1
 428 40 428 40 428 28 c 256,2,3
 428 16 428 16 420 8 c 128,-1,4
 412 0 412 0 399 0 c 2,5,-1
 74 0 l 2,6,7
 61 0 61 0 53 9.5 c 128,-1,8
 45 19 45 19 45 29 c 0,9,10
 45 42 45 42 54 52 c 2,11,-1
 350 462 l 1,12,-1
 99 462 l 2,13,14
 87 462 87 462 78.5 470 c 128,-1,15
 70 478 70 478 70 490 c 256,16,17
 70 502 70 502 78.5 510 c 128,-1,18
 87 518 87 518 99 518 c 2,19,-1
 406 518 l 2,20,21
 418 518 418 518 426 509 c 128,-1,22
 434 500 434 500 434 488 c 0,23,24
 434 477 434 477 426 466 c 2,25,-1
 129 56 l 1,26,-1
 399 56 l 2,27,0
 412 56 412 56 420 48 c 128,-1,1
EndSplineSet
Validated: 1
EndChar

StartChar: a.ss01
Encoding: 65540 -1 484
Width: 538
GlyphClass: 2
Flags: W
AnchorPoint: "Anchor-8" 0 0 basechar 0
AnchorPoint: "Anchor-7" 0 0 basechar 0
AnchorPoint: "Anchor-6" 267 515 basechar 0
AnchorPoint: "Anchor-5" 514 0 basechar 0
AnchorPoint: "Anchor-4" 269 0 basechar 0
LayerCount: 2
Fore
SplineSet
525 60.5 m 128,-1,1
 531 54 531 54 531 44 c 0,2,3
 531 27 531 27 506 13.5 c 128,-1,4
 481 0 481 0 452 0 c 0,5,6
 428 0 428 0 410.5 16 c 128,-1,7
 393 32 393 32 383 58 c 1,8,9
 356 25 356 25 314.5 7.5 c 128,-1,10
 273 -10 273 -10 221 -10 c 256,11,12
 169 -10 169 -10 130 11.5 c 128,-1,13
 91 33 91 33 70 70 c 128,-1,14
 49 107 49 107 49 150 c 0,15,16
 49 200 49 200 77 237.5 c 128,-1,17
 105 275 105 275 149.5 294.5 c 128,-1,18
 194 314 194 314 242 314 c 0,19,20
 283 314 283 314 319 298.5 c 128,-1,21
 355 283 355 283 380 257 c 1,22,-1
 380 356 l 2,23,24
 380 410 380 410 343.5 438.5 c 128,-1,25
 307 467 307 467 250 467 c 0,26,27
 207 467 207 467 165.5 447.5 c 128,-1,28
 124 428 124 428 101 396 c 0,29,30
 92 384 92 384 77 384 c 0,31,32
 67 384 67 384 59 392 c 128,-1,33
 51 400 51 400 51 411 c 0,34,35
 51 423 51 423 58 432 c 0,36,37
 87 473 87 473 139 498 c 128,-1,38
 191 523 191 523 253 523 c 0,39,40
 338 523 338 523 389 484 c 128,-1,41
 440 445 440 445 440 360 c 2,42,-1
 440 96 l 2,43,44
 440 76 440 76 449 65 c 128,-1,45
 458 54 458 54 469 54 c 0,46,47
 476 54 476 54 489 60.5 c 128,-1,48
 502 67 502 67 511 67 c 0,49,0
 519 67 519 67 525 60.5 c 128,-1,1
348 73.5 m 128,-1,51
 386 103 386 103 386 153 c 256,52,53
 386 203 386 203 348 232 c 128,-1,54
 310 261 310 261 247 261 c 0,55,56
 186 261 186 261 147.5 232 c 128,-1,57
 109 203 109 203 109 153 c 0,58,59
 109 102 109 102 148 73 c 128,-1,60
 187 44 187 44 248 44 c 0,61,50
 310 44 310 44 348 73.5 c 128,-1,51
EndSplineSet
Validated: 1
EndChar

StartChar: aogonek.ss01
Encoding: 65562 -1 506
Width: 523
GlyphClass: 2
Flags: W
AnchorPoint: "Anchor-8" 0 0 basechar 0
AnchorPoint: "Anchor-7" 0 0 basechar 0
AnchorPoint: "Anchor-6" 238 515 basechar 0
AnchorPoint: "Anchor-5" 513 0 basechar 0
AnchorPoint: "Anchor-4" 268 0 basechar 0
LayerCount: 2
Fore
SplineSet
511 -129 m 128,-1,1
 517 -135 517 -135 517 -145 c 0,2,3
 517 -167 517 -167 492.5 -184 c 128,-1,4
 468 -201 468 -201 434 -201 c 0,5,6
 395 -201 395 -201 366.5 -174.5 c 128,-1,7
 338 -148 338 -148 338 -105 c 0,8,9
 338 -30 338 -30 416 6 c 1,10,11
 387 19 387 19 381 52 c 1,12,13
 358 22 358 22 319 6 c 128,-1,14
 280 -10 280 -10 235 -10 c 0,15,16
 153 -10 153 -10 105.5 35 c 128,-1,17
 58 80 58 80 58 151 c 0,18,19
 58 200 58 200 85.5 237.5 c 128,-1,20
 113 275 113 275 158 294.5 c 128,-1,21
 203 314 203 314 253 314 c 0,22,23
 290 314 290 314 323 300.5 c 128,-1,24
 356 287 356 287 379 264 c 1,25,-1
 379 356 l 2,26,27
 379 419 379 419 343.5 443 c 128,-1,28
 308 467 308 467 250 467 c 0,29,30
 208 467 208 467 169 447.5 c 128,-1,31
 130 428 130 428 107 396 c 0,32,33
 98 384 98 384 83 384 c 0,34,35
 73 384 73 384 65 392 c 128,-1,36
 57 400 57 400 57 411 c 0,37,38
 57 423 57 423 64 432 c 0,39,40
 93 473 93 473 142 498 c 128,-1,41
 191 523 191 523 253 523 c 0,42,43
 338 523 338 523 388 486 c 128,-1,44
 438 449 438 449 439 360 c 2,45,-1
 439 85 l 2,46,47
 439 53 439 53 469 53 c 0,48,49
 473 53 473 53 481.5 55.5 c 128,-1,50
 490 58 490 58 496 58 c 0,51,52
 504 58 504 58 509.5 51.5 c 128,-1,53
 515 45 515 45 515 35 c 0,54,55
 515 23 515 23 505 16 c 128,-1,56
 495 9 495 9 474 0 c 0,57,58
 440 -15 440 -15 415.5 -40 c 128,-1,59
 391 -65 391 -65 391 -93 c 0,60,61
 391 -119 391 -119 405.5 -134.5 c 128,-1,62
 420 -150 420 -150 440 -150 c 0,63,64
 462 -150 462 -150 469 -138 c 0,65,66
 481 -123 481 -123 495 -123 c 0,67,0
 505 -123 505 -123 511 -129 c 128,-1,1
348.5 73 m 128,-1,69
 384 102 384 102 384 153 c 256,70,71
 384 204 384 204 350 232.5 c 128,-1,72
 316 261 316 261 258 261 c 0,73,74
 196 261 196 261 159.5 232.5 c 128,-1,75
 123 204 123 204 123 153 c 256,76,77
 123 102 123 102 158 73 c 128,-1,78
 193 44 193 44 254 44 c 0,79,68
 313 44 313 44 348.5 73 c 128,-1,69
EndSplineSet
Validated: 1
EndChar

StartChar: g.ss01
Encoding: 65566 -1 510
Width: 536
GlyphClass: 2
Flags: W
AnchorPoint: "Anchor-8" 0 0 basechar 0
AnchorPoint: "Anchor-7" 0 0 basechar 0
AnchorPoint: "Anchor-6" 238 499 basechar 0
AnchorPoint: "Anchor-5" 0 0 basechar 0
AnchorPoint: "Anchor-4" 229 0 basechar 0
LayerCount: 2
Fore
SplineSet
500 459 m 2,1,-1
 434 405 l 1,2,3
 449 371 449 371 449 330 c 0,4,5
 449 272 449 272 418.5 226.5 c 128,-1,6
 388 181 388 181 337 158 c 1,7,8
 419 142 419 142 463 97.5 c 128,-1,9
 507 53 507 53 507 -9 c 0,10,11
 507 -66 507 -66 470.5 -110 c 128,-1,12
 434 -154 434 -154 371 -178 c 128,-1,13
 308 -202 308 -202 230 -202 c 0,14,15
 170 -202 170 -202 125.5 -186.5 c 128,-1,16
 81 -171 81 -171 57.5 -150 c 128,-1,17
 34 -129 34 -129 34 -113 c 0,18,19
 34 -100 34 -100 42 -91 c 128,-1,20
 50 -82 50 -82 62 -82 c 0,21,22
 71 -82 71 -82 79.5 -87.5 c 128,-1,23
 88 -93 88 -93 95 -100 c 128,-1,24
 102 -107 102 -107 105 -110 c 0,25,26
 119 -124 119 -124 156 -135 c 128,-1,27
 193 -146 193 -146 233 -146 c 0,28,29
 329 -146 329 -146 388 -110.5 c 128,-1,30
 447 -75 447 -75 447 -11 c 0,31,32
 447 42 447 42 391 78.5 c 128,-1,33
 335 115 335 115 221 115 c 0,34,35
 184 115 184 115 178 136 c 2,36,-1
 175 146 l 1,37,38
 109 164 109 164 69.5 213.5 c 128,-1,39
 30 263 30 263 30 330 c 0,40,41
 30 386 30 386 57.5 430 c 128,-1,42
 85 474 85 474 133 498.5 c 128,-1,43
 181 523 181 523 240 523 c 0,44,45
 292 523 292 523 336 503 c 128,-1,46
 380 483 380 483 408 448 c 1,47,-1
 453 502 l 2,48,49
 461 512 461 512 468 516 c 128,-1,50
 475 520 475 520 485 520 c 0,51,52
 498 520 498 520 507.5 511 c 128,-1,53
 517 502 517 502 516 488 c 0,54,0
 516 474 516 474 500 459 c 2,1,-1
348.5 225.5 m 128,-1,56
 391 264 391 264 391 327 c 0,57,58
 391 391 391 391 348.5 429.5 c 128,-1,59
 306 468 306 468 240 468 c 0,60,61
 173 468 173 468 131.5 429.5 c 128,-1,62
 90 391 90 391 90 327 c 0,63,64
 90 264 90 264 131.5 225.5 c 128,-1,65
 173 187 173 187 240 187 c 0,66,55
 306 187 306 187 348.5 225.5 c 128,-1,56
EndSplineSet
Validated: 1
EndChar

StartChar: uni0123.ss01
Encoding: 65570 -1 514
Width: 530
GlyphClass: 2
Flags: W
AnchorPoint: "Anchor-8" 0 0 basechar 0
AnchorPoint: "Anchor-7" 0 0 basechar 0
AnchorPoint: "Anchor-6" 238 499 basechar 0
AnchorPoint: "Anchor-5" 0 0 basechar 0
AnchorPoint: "Anchor-4" 229 0 basechar 0
LayerCount: 2
Fore
SplineSet
209 583.5 m 128,-1,1
 193 600 193 600 193 629 c 256,2,3
 193 658 193 658 207.5 686 c 128,-1,4
 222 714 222 714 243.5 732 c 128,-1,5
 265 750 265 750 286 750 c 0,6,7
 297 750 297 750 304.5 744.5 c 128,-1,8
 312 739 312 739 312 728 c 0,9,10
 312 718 312 718 307 714 c 128,-1,11
 302 710 302 710 291.5 707 c 128,-1,12
 281 704 281 704 276 701 c 0,13,14
 262 694 262 694 254.5 680.5 c 128,-1,15
 247 667 247 667 247 651 c 0,16,17
 247 640 247 640 253 633 c 128,-1,18
 259 626 259 626 269 626 c 0,19,20
 283 626 283 626 296 635 c 1,21,22
 309 623 309 623 308 608 c 0,23,24
 307 592 307 592 289 579.5 c 128,-1,25
 271 567 271 567 251 567 c 0,26,0
 225 567 225 567 209 583.5 c 128,-1,1
500 459 m 2,28,-1
 434 405 l 1,29,30
 449 371 449 371 449 330 c 0,31,32
 449 272 449 272 418.5 226.5 c 128,-1,33
 388 181 388 181 337 158 c 1,34,35
 419 142 419 142 463 97.5 c 128,-1,36
 507 53 507 53 507 -9 c 0,37,38
 507 -66 507 -66 470.5 -110 c 128,-1,39
 434 -154 434 -154 371 -178 c 128,-1,40
 308 -202 308 -202 230 -202 c 0,41,42
 170 -202 170 -202 125.5 -186.5 c 128,-1,43
 81 -171 81 -171 57.5 -150 c 128,-1,44
 34 -129 34 -129 34 -113 c 0,45,46
 34 -100 34 -100 42 -91 c 128,-1,47
 50 -82 50 -82 62 -82 c 0,48,49
 71 -82 71 -82 79.5 -87.5 c 128,-1,50
 88 -93 88 -93 95 -100 c 128,-1,51
 102 -107 102 -107 105 -110 c 0,52,53
 119 -124 119 -124 156 -135 c 128,-1,54
 193 -146 193 -146 233 -146 c 0,55,56
 329 -146 329 -146 388 -110.5 c 128,-1,57
 447 -75 447 -75 447 -11 c 0,58,59
 447 42 447 42 391 78.5 c 128,-1,60
 335 115 335 115 221 115 c 0,61,62
 184 115 184 115 178 136 c 2,63,-1
 175 146 l 1,64,65
 109 164 109 164 69.5 213.5 c 128,-1,66
 30 263 30 263 30 330 c 0,67,68
 30 386 30 386 57.5 430 c 128,-1,69
 85 474 85 474 133 498.5 c 128,-1,70
 181 523 181 523 240 523 c 0,71,72
 292 523 292 523 336 503 c 128,-1,73
 380 483 380 483 408 448 c 1,74,-1
 453 502 l 2,75,76
 461 512 461 512 468 516 c 128,-1,77
 475 520 475 520 485 520 c 0,78,79
 498 520 498 520 507.5 511 c 128,-1,80
 517 502 517 502 516 488 c 0,81,27
 516 474 516 474 500 459 c 2,28,-1
348.5 225.5 m 128,-1,83
 391 264 391 264 391 327 c 0,84,85
 391 391 391 391 348.5 429.5 c 128,-1,86
 306 468 306 468 240 468 c 0,87,88
 173 468 173 468 131.5 429.5 c 128,-1,89
 90 391 90 391 90 327 c 0,90,91
 90 264 90 264 131.5 225.5 c 128,-1,92
 173 187 173 187 240 187 c 0,93,82
 306 187 306 187 348.5 225.5 c 128,-1,83
EndSplineSet
Validated: 1
EndChar

StartChar: ordfeminine
Encoding: 170 170 524
Width: 350
Flags: W
LayerCount: 2
Fore
SplineSet
300 694.5 m 128,-1,1
 308 687 308 687 308 677 c 2,2,-1
 308 426 l 2,3,4
 308 415 308 415 300 408 c 128,-1,5
 292 401 292 401 280 401 c 256,6,7
 268 401 268 401 260.5 408 c 128,-1,8
 253 415 253 415 253 426 c 2,9,-1
 253 456 l 1,10,11
 237 428 237 428 209 409.5 c 128,-1,12
 181 391 181 391 147 391 c 0,13,14
 87 391 87 391 54 438 c 128,-1,15
 21 485 21 485 21 558 c 0,16,17
 21 625 21 625 59 669.5 c 128,-1,18
 97 714 97 714 156 714 c 0,19,20
 189 714 189 714 214 699.5 c 128,-1,21
 239 685 239 685 253 657 c 1,22,-1
 253 677 l 2,23,24
 253 687 253 687 261 694.5 c 128,-1,25
 269 702 269 702 280 702 c 0,26,0
 292 702 292 702 300 694.5 c 128,-1,1
230.5 470 m 128,-1,28
 257 501 257 501 257 555 c 0,29,30
 257 607 257 607 232 636.5 c 128,-1,31
 207 666 207 666 166 666 c 0,32,33
 130 666 130 666 103 634.5 c 128,-1,34
 76 603 76 603 76 558 c 0,35,36
 76 506 76 506 98 472.5 c 128,-1,37
 120 439 120 439 161 439 c 0,38,27
 204 439 204 439 230.5 470 c 128,-1,28
EndSplineSet
Validated: 1
EndChar

StartChar: ordmasculine
Encoding: 186 186 525
Width: 349
Flags: W
LayerCount: 2
Fore
SplineSet
306 469 m 128,-1,1
 286 433 286 433 251 412.5 c 128,-1,2
 216 392 216 392 173 392 c 0,3,4
 131 392 131 392 96.5 412.5 c 128,-1,5
 62 433 62 433 42.5 469 c 128,-1,6
 23 505 23 505 23 549 c 0,7,8
 23 594 23 594 42.5 631 c 128,-1,9
 62 668 62 668 96.5 689 c 128,-1,10
 131 710 131 710 173 710 c 0,11,12
 216 710 216 710 251 689 c 128,-1,13
 286 668 286 668 306 631 c 128,-1,14
 326 594 326 594 326 549 c 0,15,0
 326 505 326 505 306 469 c 128,-1,1
246.5 629 m 128,-1,17
 219 660 219 660 173 660 c 0,18,19
 129 660 129 660 102 629 c 128,-1,20
 75 598 75 598 75 549 c 0,21,22
 75 502 75 502 102 471.5 c 128,-1,23
 129 441 129 441 173 441 c 0,24,25
 219 441 219 441 246.5 471.5 c 128,-1,26
 274 502 274 502 274 549 c 0,27,16
 274 598 274 598 246.5 629 c 128,-1,17
EndSplineSet
Validated: 1
EndChar

StartChar: pi
Encoding: 960 960 526
Width: 612
Flags: W
LayerCount: 2
Fore
SplineSet
126.5 8 m 128,-1,1
 119 16 119 16 119 27 c 2,2,-1
 119 456 l 2,3,4
 119 461 119 461 114 461 c 2,5,-1
 66 461 l 2,6,7
 55 461 55 461 47 468.5 c 128,-1,8
 39 476 39 476 39 488 c 256,9,10
 39 500 39 500 47 507.5 c 128,-1,11
 55 515 55 515 66 515 c 2,12,-1
 542 515 l 2,13,14
 554 515 554 515 562 507.5 c 128,-1,15
 570 500 570 500 570 488 c 256,16,17
 570 476 570 476 562 468.5 c 128,-1,18
 554 461 554 461 542 461 c 2,19,-1
 493 461 l 2,20,21
 488 461 488 461 488 456 c 2,22,-1
 488 27 l 2,23,24
 488 16 488 16 480.5 8 c 128,-1,25
 473 0 473 0 461 0 c 256,26,27
 449 0 449 0 441.5 8 c 128,-1,28
 434 16 434 16 434 27 c 2,29,-1
 434 456 l 2,30,31
 434 461 434 461 429 461 c 2,32,-1
 179 461 l 2,33,34
 174 461 174 461 174 456 c 2,35,-1
 174 27 l 2,36,37
 174 16 174 16 166 8 c 128,-1,38
 158 0 158 0 146 0 c 256,39,0
 134 0 134 0 126.5 8 c 128,-1,1
EndSplineSet
Validated: 1
EndChar

StartChar: zero
Encoding: 48 48 527
Width: 595
GlyphClass: 2
Flags: W
AnchorPoint: "Anchor-3" 0 0 basechar 0
AnchorPoint: "Anchor-2" 0 0 basechar 0
AnchorPoint: "Anchor-1" 0 0 basechar 0
AnchorPoint: "Anchor-0" 290 351 basechar 0
LayerCount: 2
Fore
SplineSet
164 37 m 128,-1,1
 110 84 110 84 82.5 165.5 c 128,-1,2
 55 247 55 247 55 350 c 0,3,4
 55 454 55 454 82 535 c 128,-1,5
 109 616 109 616 163.5 663 c 128,-1,6
 218 710 218 710 297 710 c 256,7,8
 376 710 376 710 430.5 663.5 c 128,-1,9
 485 617 485 617 512.5 535.5 c 128,-1,10
 540 454 540 454 540 350 c 0,11,12
 540 247 540 247 512.5 165.5 c 128,-1,13
 485 84 485 84 430.5 37 c 128,-1,14
 376 -10 376 -10 297 -10 c 256,15,0
 218 -10 218 -10 164 37 c 128,-1,1
429.5 132.5 m 128,-1,17
 476 213 476 213 476 350 c 0,18,19
 476 488 476 488 429.5 568.5 c 128,-1,20
 383 649 383 649 297 649 c 0,21,22
 212 649 212 649 165.5 568.5 c 128,-1,23
 119 488 119 488 119 350 c 0,24,25
 119 213 119 213 165.5 132.5 c 128,-1,26
 212 52 212 52 297 52 c 0,27,16
 383 52 383 52 429.5 132.5 c 128,-1,17
EndSplineSet
Validated: 1
Substitution2: "'subs' Subscript lookup 18 subtable" uni2080
Substitution2: "'frac' Diagonal Fractions lookup 10 subtable" zero.numr
Substitution2: "'sups' Superscript lookup 8 subtable" uni2070
EndChar

StartChar: one
Encoding: 49 49 528
Width: 333
Flags: W
LayerCount: 2
Fore
SplineSet
232.5 690.5 m 128,-1,1
 240 682 240 682 240 670 c 2,2,-1
 240 30 l 2,3,4
 240 17 240 17 230.5 8.5 c 128,-1,5
 221 0 221 0 207 0 c 0,6,7
 194 0 194 0 185 8.5 c 128,-1,8
 176 17 176 17 176 30 c 2,9,-1
 176 615 l 1,10,-1
 51 541 l 2,11,12
 44 537 44 537 37 537 c 0,13,14
 24 537 24 537 14.5 547 c 128,-1,15
 5 557 5 557 5 569 c 0,16,17
 5 576 5 576 9.5 583 c 128,-1,18
 14 590 14 590 21 594 c 2,19,-1
 190 696 l 2,20,21
 200 702 200 702 214 700 c 0,22,0
 225 699 225 699 232.5 690.5 c 128,-1,1
EndSplineSet
Validated: 1
Substitution2: "'subs' Subscript lookup 18 subtable" uni2081
Substitution2: "'frac' Diagonal Fractions lookup 10 subtable" one.numr
Substitution2: "'sups' Superscript lookup 8 subtable" uni00B9
EndChar

StartChar: two
Encoding: 50 50 529
Width: 567
Flags: W
LayerCount: 2
Fore
SplineSet
513.5 49.5 m 128,-1,1
 522 41 522 41 522 29 c 0,2,3
 522 16 522 16 513.5 8 c 128,-1,4
 505 0 505 0 493 0 c 2,5,-1
 118 0 l 2,6,7
 104 0 104 0 95 8 c 128,-1,8
 86 16 86 16 86 30 c 0,9,10
 86 41 86 41 94 51 c 2,11,-1
 325 306 l 2,12,13
 381 366 381 366 408 413.5 c 128,-1,14
 435 461 435 461 435 507 c 0,15,16
 435 575 435 575 394 614 c 128,-1,17
 353 653 353 653 280 653 c 0,18,19
 231 653 231 653 192.5 629.5 c 128,-1,20
 154 606 154 606 135 558 c 0,21,22
 124 540 124 540 109 540 c 0,23,24
 98 540 98 540 88 548 c 128,-1,25
 78 556 78 556 78 566 c 0,26,27
 78 572 78 572 82 580 c 128,-1,28
 86 588 86 588 92 596 c 0,29,30
 118 650 118 650 170 680 c 128,-1,31
 222 710 222 710 284 710 c 0,32,33
 385 710 385 710 442 655 c 128,-1,34
 499 600 499 600 499 511 c 0,35,36
 499 456 499 456 469 398.5 c 128,-1,37
 439 341 439 341 370 265 c 2,38,-1
 186 58 l 1,39,-1
 493 58 l 2,40,0
 505 58 505 58 513.5 49.5 c 128,-1,1
EndSplineSet
Validated: 1
Substitution2: "'subs' Subscript lookup 18 subtable" uni2082
Substitution2: "'frac' Diagonal Fractions lookup 10 subtable" two.numr
Substitution2: "'sups' Superscript lookup 8 subtable" uni00B2
EndChar

StartChar: three
Encoding: 51 51 530
Width: 520
Flags: W
LayerCount: 2
Fore
SplineSet
358.5 417 m 128,-1,1
 407 391 407 391 436.5 341 c 128,-1,2
 466 291 466 291 466 223 c 256,3,4
 466 155 466 155 433.5 102 c 128,-1,5
 401 49 401 49 345 19.5 c 128,-1,6
 289 -10 289 -10 221 -10 c 0,7,8
 178 -10 178 -10 138 4 c 128,-1,9
 98 18 98 18 70 46 c 0,10,11
 56 56 56 56 56 70 c 0,12,13
 56 82 56 82 65 92.5 c 128,-1,14
 74 103 74 103 86 103 c 256,15,16
 98 103 98 103 111 92 c 0,17,18
 153 47 153 47 227 47 c 0,19,20
 275 47 275 47 316 69 c 128,-1,21
 357 91 357 91 381 131 c 128,-1,22
 405 171 405 171 405 221 c 0,23,24
 405 276 405 276 380.5 313 c 128,-1,25
 356 350 356 350 316.5 367.5 c 128,-1,26
 277 385 277 385 233 385 c 0,27,28
 221 385 221 385 202 381.5 c 128,-1,29
 183 378 183 378 178 378 c 0,30,31
 166 378 166 378 158.5 386.5 c 128,-1,32
 151 395 151 395 151 408 c 256,33,34
 151 421 151 421 161 431 c 2,35,-1
 352 643 l 1,36,-1
 74 643 l 2,37,38
 62 643 62 643 53.5 651 c 128,-1,39
 45 659 45 659 45 672 c 0,40,41
 45 684 45 684 53.5 692 c 128,-1,42
 62 700 62 700 74 700 c 2,43,-1
 410 700 l 2,44,45
 426 700 426 700 433.5 690.5 c 128,-1,46
 441 681 441 681 441 669 c 256,47,48
 441 657 441 657 431 647 c 2,49,-1
 248 443 l 1,50,-1
 254 443 l 2,51,0
 310 443 310 443 358.5 417 c 128,-1,1
EndSplineSet
Validated: 1
Substitution2: "'subs' Subscript lookup 18 subtable" uni2083
Substitution2: "'frac' Diagonal Fractions lookup 10 subtable" three.numr
Substitution2: "'sups' Superscript lookup 8 subtable" uni00B3
EndChar

StartChar: four
Encoding: 52 52 531
Width: 556
Flags: W
LayerCount: 2
Fore
SplineSet
505.5 264 m 128,-1,1
 514 256 514 256 514 244 c 256,2,3
 514 232 514 232 505.5 224 c 128,-1,4
 497 216 497 216 485 216 c 2,5,-1
 418 216 l 1,6,-1
 418 30 l 2,7,8
 418 17 418 17 409 8.5 c 128,-1,9
 400 0 400 0 387 0 c 256,10,11
 374 0 374 0 366 8.5 c 128,-1,12
 358 17 358 17 358 30 c 2,13,-1
 358 216 l 1,14,-1
 64 216 l 2,15,16
 52 216 52 216 43 225.5 c 128,-1,17
 34 235 34 235 34 247 c 256,18,19
 34 259 34 259 41 267 c 2,20,-1
 363 688 l 2,21,22
 371 700 371 700 388 700 c 0,23,24
 401 700 401 700 409.5 691.5 c 128,-1,25
 418 683 418 683 418 670 c 2,26,-1
 418 272 l 1,27,-1
 485 272 l 2,28,0
 497 272 497 272 505.5 264 c 128,-1,1
358 272 m 1,29,-1
 358 592 l 1,30,-1
 116 272 l 1,31,-1
 358 272 l 1,29,-1
EndSplineSet
Validated: 1
Substitution2: "'subs' Subscript lookup 18 subtable" uni2084
Substitution2: "'frac' Diagonal Fractions lookup 10 subtable" four.numr
Substitution2: "'sups' Superscript lookup 8 subtable" uni2074
EndChar

StartChar: five
Encoding: 53 53 532
Width: 549
Flags: W
LayerCount: 2
Fore
SplineSet
368.5 436.5 m 128,-1,1
 420 408 420 408 449.5 356.5 c 128,-1,2
 479 305 479 305 479 241 c 0,3,4
 479 171 479 171 446.5 115.5 c 128,-1,5
 414 60 414 60 356 29 c 128,-1,6
 298 -2 298 -2 224 -2 c 0,7,8
 182 -2 182 -2 140.5 12 c 128,-1,9
 99 26 99 26 68 52 c 0,10,11
 62 56 62 56 58.5 63.5 c 128,-1,12
 55 71 55 71 55 78 c 0,13,14
 55 88 55 88 63.5 97.5 c 128,-1,15
 72 107 72 107 84 107 c 0,16,17
 95 107 95 107 106 98 c 0,18,19
 132 78 132 78 162.5 67 c 128,-1,20
 193 56 193 56 224 56 c 0,21,22
 281 56 281 56 325.5 79 c 128,-1,23
 370 102 370 102 394.5 144 c 128,-1,24
 419 186 419 186 419 239 c 0,25,26
 419 315 419 315 370 361.5 c 128,-1,27
 321 408 321 408 239 408 c 0,28,29
 208 408 208 408 181.5 399 c 128,-1,30
 155 390 155 390 122 375 c 0,31,32
 98 363 98 363 91 363 c 0,33,34
 76 363 76 363 66.5 372.5 c 128,-1,35
 57 382 57 382 57 395 c 0,36,37
 57 400 57 400 58 403 c 2,38,-1
 101 675 l 2,39,40
 103 685 103 685 111.5 692.5 c 128,-1,41
 120 700 120 700 132 700 c 2,42,-1
 433 700 l 2,43,44
 445 700 445 700 453.5 691.5 c 128,-1,45
 462 683 462 683 462 670 c 0,46,47
 462 658 462 658 453.5 649.5 c 128,-1,48
 445 641 445 641 433 641 c 2,49,-1
 153 641 l 1,50,-1
 119 434 l 1,51,52
 145 447 145 447 180.5 456 c 128,-1,53
 216 465 216 465 253 465 c 0,54,0
 317 465 317 465 368.5 436.5 c 128,-1,1
EndSplineSet
Validated: 1
Substitution2: "'subs' Subscript lookup 18 subtable" uni2085
Substitution2: "'frac' Diagonal Fractions lookup 10 subtable" five.numr
Substitution2: "'sups' Superscript lookup 8 subtable" uni2075
EndChar

StartChar: six
Encoding: 54 54 533
Width: 537
Flags: W
LayerCount: 2
Fore
SplineSet
403.5 411 m 128,-1,1
 451 379 451 379 477.5 326 c 128,-1,2
 504 273 504 273 504 214 c 256,3,4
 504 155 504 155 475.5 103.5 c 128,-1,5
 447 52 447 52 397 21 c 128,-1,6
 347 -10 347 -10 285 -10 c 0,7,8
 210 -10 210 -10 158 25 c 128,-1,9
 106 60 106 60 80.5 117 c 128,-1,10
 55 174 55 174 55 240 c 0,11,12
 55 325 55 325 91 422.5 c 128,-1,13
 127 520 127 520 196 601.5 c 128,-1,14
 265 683 265 683 360 719 c 0,15,16
 368 721 368 721 373 721 c 0,17,18
 386 721 386 721 395 713 c 128,-1,19
 404 705 404 705 404 690 c 0,20,21
 404 669 404 669 380 661 c 0,22,23
 300 628 300 628 229.5 544.5 c 128,-1,24
 159 461 159 461 133 367 c 1,25,26
 163 402 163 402 205.5 422.5 c 128,-1,27
 248 443 248 443 297 443 c 0,28,0
 356 443 356 443 403.5 411 c 128,-1,1
398 94.5 m 128,-1,30
 443 141 443 141 443 214 c 0,31,32
 443 259 443 259 424.5 298 c 128,-1,33
 406 337 406 337 371 361 c 128,-1,34
 336 385 336 385 288 385 c 0,35,36
 236 385 236 385 197 361.5 c 128,-1,37
 158 338 158 338 137 298.5 c 128,-1,38
 116 259 116 259 116 211 c 0,39,40
 116 167 116 167 136 130 c 128,-1,41
 156 93 156 93 194 70.5 c 128,-1,42
 232 48 232 48 283 48 c 0,43,29
 353 48 353 48 398 94.5 c 128,-1,30
EndSplineSet
Validated: 1
Substitution2: "'subs' Subscript lookup 18 subtable" uni2086
Substitution2: "'frac' Diagonal Fractions lookup 10 subtable" six.numr
Substitution2: "'sups' Superscript lookup 8 subtable" uni2076
EndChar

StartChar: seven
Encoding: 55 55 534
Width: 518
Flags: W
LayerCount: 2
Fore
SplineSet
478.5 692 m 128,-1,1
 486 684 486 684 486 672 c 0,2,3
 486 667 486 667 483 658 c 2,4,-1
 208 17 l 2,5,6
 204 8 204 8 196 2.5 c 128,-1,7
 188 -3 188 -3 179 -3 c 0,8,9
 167 -3 167 -3 157.5 5 c 128,-1,10
 148 13 148 13 148 25 c 0,11,12
 148 33 148 33 151 40 c 2,13,-1
 410 643 l 1,14,-1
 89 643 l 2,15,16
 77 643 77 643 68.5 651 c 128,-1,17
 60 659 60 659 60 672 c 0,18,19
 60 684 60 684 68.5 692 c 128,-1,20
 77 700 77 700 89 700 c 2,21,-1
 457 700 l 2,22,0
 471 700 471 700 478.5 692 c 128,-1,1
EndSplineSet
Validated: 1
Substitution2: "'subs' Subscript lookup 18 subtable" uni2087
Substitution2: "'frac' Diagonal Fractions lookup 10 subtable" seven.numr
Substitution2: "'sups' Superscript lookup 8 subtable" uni2077
EndChar

StartChar: eight
Encoding: 56 56 535
Width: 565
Flags: W
LayerCount: 2
Fore
SplineSet
465.5 287.5 m 128,-1,1
 497 243 497 243 497 187 c 0,2,3
 497 134 497 134 468.5 89 c 128,-1,4
 440 44 440 44 390.5 18 c 128,-1,5
 341 -8 341 -8 282 -8 c 256,6,7
 223 -8 223 -8 174 18 c 128,-1,8
 125 44 125 44 96.5 89 c 128,-1,9
 68 134 68 134 68 187 c 0,10,11
 68 245 68 245 99 288 c 128,-1,12
 130 331 130 331 178 355 c 1,13,14
 138 376 138 376 111 417.5 c 128,-1,15
 84 459 84 459 84 510 c 0,16,17
 84 563 84 563 110.5 606.5 c 128,-1,18
 137 650 137 650 182.5 675 c 128,-1,19
 228 700 228 700 282 700 c 256,20,21
 336 700 336 700 381.5 675 c 128,-1,22
 427 650 427 650 453 606.5 c 128,-1,23
 479 563 479 563 479 510 c 0,24,25
 479 458 479 458 451.5 418 c 128,-1,26
 424 378 424 378 384 356 c 1,27,0
 434 332 434 332 465.5 287.5 c 128,-1,1
183 606 m 128,-1,29
 145 569 145 569 145 510 c 0,30,31
 145 471 145 471 164 440.5 c 128,-1,32
 183 410 183 410 214.5 393 c 128,-1,33
 246 376 246 376 282 376 c 256,34,35
 318 376 318 376 349.5 393 c 128,-1,36
 381 410 381 410 399.5 440.5 c 128,-1,37
 418 471 418 471 418 510 c 0,38,39
 418 569 418 569 380 606 c 128,-1,40
 342 643 342 643 282 643 c 0,41,28
 221 643 221 643 183 606 c 128,-1,29
393 88.5 m 128,-1,43
 436 127 436 127 436 187 c 0,44,45
 436 226 436 226 415 258 c 128,-1,46
 394 290 394 290 358.5 308.5 c 128,-1,47
 323 327 323 327 282 327 c 256,48,49
 241 327 241 327 206 308.5 c 128,-1,50
 171 290 171 290 150 258 c 128,-1,51
 129 226 129 226 129 187 c 0,52,53
 129 127 129 127 171.5 88.5 c 128,-1,54
 214 50 214 50 282 50 c 256,55,42
 350 50 350 50 393 88.5 c 128,-1,43
EndSplineSet
Validated: 1
Substitution2: "'subs' Subscript lookup 18 subtable" uni2088
Substitution2: "'frac' Diagonal Fractions lookup 10 subtable" eight.numr
Substitution2: "'sups' Superscript lookup 8 subtable" uni2078
EndChar

StartChar: nine
Encoding: 57 57 536
Width: 553
Flags: W
LayerCount: 2
Fore
SplineSet
401 676 m 128,-1,1
 453 641 453 641 478.5 584 c 128,-1,2
 504 527 504 527 504 461 c 0,3,4
 504 377 504 377 468.5 282 c 128,-1,5
 433 187 433 187 363.5 108 c 128,-1,6
 294 29 294 29 199 -7 c 0,7,8
 191 -9 191 -9 187 -9 c 0,9,10
 174 -9 174 -9 164.5 0 c 128,-1,11
 155 9 155 9 155 22 c 0,12,13
 155 43 155 43 179 51 c 0,14,15
 261 86 261 86 330.5 163.5 c 128,-1,16
 400 241 400 241 425 332 c 1,17,18
 396 299 396 299 353.5 279.5 c 128,-1,19
 311 260 311 260 262 260 c 0,20,21
 203 260 203 260 156 291.5 c 128,-1,22
 109 323 109 323 82 375.5 c 128,-1,23
 55 428 55 428 55 487 c 256,24,25
 55 546 55 546 83.5 597.5 c 128,-1,26
 112 649 112 649 162.5 680 c 128,-1,27
 213 711 213 711 275 711 c 0,28,0
 349 711 349 711 401 676 c 128,-1,1
363 341 m 128,-1,30
 402 364 402 364 422.5 403.5 c 128,-1,31
 443 443 443 443 443 490 c 0,32,33
 443 534 443 534 423 571 c 128,-1,34
 403 608 403 608 365 630.5 c 128,-1,35
 327 653 327 653 276 653 c 0,36,37
 230 653 230 653 194 632 c 128,-1,38
 158 611 158 611 137.5 573 c 128,-1,39
 117 535 117 535 117 487 c 0,40,41
 117 442 117 442 135 403.5 c 128,-1,42
 153 365 153 365 188 341.5 c 128,-1,43
 223 318 223 318 272 318 c 0,44,29
 324 318 324 318 363 341 c 128,-1,30
EndSplineSet
Validated: 1
Substitution2: "'subs' Subscript lookup 18 subtable" uni2089
Substitution2: "'frac' Diagonal Fractions lookup 10 subtable" nine.numr
Substitution2: "'sups' Superscript lookup 8 subtable" uni2079
EndChar

StartChar: zero.dnom
Encoding: 65579 -1 548
Width: 328
Flags: W
LayerCount: 2
Fore
SplineSet
65.5 38 m 128,-1,1
 30 86 30 86 30 159 c 256,2,3
 30 232 30 232 65.5 279.5 c 128,-1,4
 101 327 101 327 164 327 c 256,5,6
 227 327 227 327 262.5 279.5 c 128,-1,7
 298 232 298 232 298 159 c 256,8,9
 298 86 298 86 262.5 38 c 128,-1,10
 227 -10 227 -10 164 -10 c 256,11,0
 101 -10 101 -10 65.5 38 c 128,-1,1
223 72 m 128,-1,13
 244 105 244 105 244 159 c 0,14,15
 244 212 244 212 223 245 c 128,-1,16
 202 278 202 278 164 278 c 256,17,18
 126 278 126 278 105 245 c 128,-1,19
 84 212 84 212 84 159 c 0,20,21
 84 105 84 105 105 72 c 128,-1,22
 126 39 126 39 164 39 c 256,23,12
 202 39 202 39 223 72 c 128,-1,13
EndSplineSet
Validated: 1
EndChar

StartChar: one.dnom
Encoding: 65580 -1 549
Width: 222
Flags: W
LayerCount: 2
Fore
SplineSet
156 304 m 128,-1,1
 164 296 164 296 164 284 c 2,2,-1
 164 22 l 2,3,4
 164 11 164 11 156.5 3 c 128,-1,5
 149 -5 149 -5 139 -5 c 0,6,7
 127 -5 127 -5 120 2.5 c 128,-1,8
 113 10 113 10 113 22 c 2,9,-1
 113 246 l 1,10,-1
 70 219 l 2,11,12
 62 214 62 214 53 214 c 0,13,14
 43 214 43 214 36.5 221.5 c 128,-1,15
 30 229 30 229 30 239 c 0,16,17
 30 253 30 253 43 262 c 2,18,-1
 120 308 l 2,19,20
 128 312 128 312 136 312 c 0,21,0
 148 312 148 312 156 304 c 128,-1,1
EndSplineSet
Validated: 1
EndChar

StartChar: two.dnom
Encoding: 65581 -1 550
Width: 317
Flags: W
LayerCount: 2
Fore
SplineSet
259.5 40.5 m 128,-1,1
 267 34 267 34 267 24 c 256,2,3
 267 14 267 14 260 7 c 128,-1,4
 253 0 253 0 242 0 c 2,5,-1
 77 0 l 2,6,7
 65 0 65 0 57.5 7 c 128,-1,8
 50 14 50 14 50 26 c 0,9,10
 50 37 50 37 62 50 c 2,11,-1
 144 139 l 1,12,-1
 162 161 l 2,13,14
 184 186 184 186 195 203 c 128,-1,15
 206 220 206 220 206 239 c 0,16,17
 206 256 206 256 193.5 267.5 c 128,-1,18
 181 279 181 279 157 279 c 0,19,20
 138 279 138 279 122 268.5 c 128,-1,21
 106 258 106 258 99 238 c 0,22,23
 94 223 94 223 77 223 c 0,24,25
 66 223 66 223 59.5 228.5 c 128,-1,26
 53 234 53 234 53 243 c 0,27,28
 53 258 53 258 66.5 278.5 c 128,-1,29
 80 299 80 299 105.5 313.5 c 128,-1,30
 131 328 131 328 164 328 c 0,31,32
 211 328 211 328 236.5 302 c 128,-1,33
 262 276 262 276 262 241 c 0,34,35
 262 212 262 212 249 190.5 c 128,-1,36
 236 169 236 169 209 139 c 2,37,-1
 188 115 l 1,38,-1
 127 47 l 1,39,-1
 242 47 l 2,40,0
 252 47 252 47 259.5 40.5 c 128,-1,1
EndSplineSet
Validated: 1
EndChar

StartChar: three.dnom
Encoding: 65582 -1 551
Width: 313
Flags: W
LayerCount: 2
Fore
SplineSet
241.5 169 m 128,-1,1
 269 146 269 146 269 99 c 0,2,3
 269 50 269 50 233.5 20 c 128,-1,4
 198 -10 198 -10 149 -10 c 0,5,6
 124 -10 124 -10 100.5 -3 c 128,-1,7
 77 4 77 4 61 17 c 0,8,9
 49 26 49 26 49 39 c 0,10,11
 49 50 49 50 55.5 57.5 c 128,-1,12
 62 65 62 65 73 65 c 0,13,14
 79 65 79 65 85 60.5 c 128,-1,15
 91 56 91 56 94 54 c 0,16,17
 102 49 102 49 117 44 c 128,-1,18
 132 39 132 39 147 39 c 0,19,20
 176 39 176 39 196.5 55.5 c 128,-1,21
 217 72 217 72 217 98 c 0,22,23
 217 122 217 122 200.5 135 c 128,-1,24
 184 148 184 148 157 148 c 0,25,26
 148 148 148 148 132.5 144.5 c 128,-1,27
 117 141 117 141 108 139 c 0,28,29
 97 137 97 137 89.5 144 c 128,-1,30
 82 151 82 151 82 161 c 0,31,32
 82 173 82 173 89 179 c 2,33,-1
 184 269 l 1,34,-1
 84 269 l 2,35,36
 74 269 74 269 66.5 276.5 c 128,-1,37
 59 284 59 284 59 294 c 256,38,39
 59 304 59 304 66 311 c 128,-1,40
 73 318 73 318 84 318 c 2,41,-1
 230 318 l 2,42,43
 241 318 241 318 248 311 c 128,-1,44
 255 304 255 304 256 294 c 2,45,-1
 257 289 l 2,46,47
 257 280 257 280 249 272 c 2,48,-1
 162 191 l 2,49,50
 165 192 165 192 169 192 c 0,51,0
 214 192 214 192 241.5 169 c 128,-1,1
EndSplineSet
Validated: 1
EndChar

StartChar: four.dnom
Encoding: 65583 -1 552
Width: 314
Flags: W
LayerCount: 2
Fore
SplineSet
279.5 115.5 m 128,-1,1
 286 109 286 109 286 99 c 0,2,3
 286 88 286 88 279.5 81.5 c 128,-1,4
 273 75 273 75 262 75 c 2,5,-1
 229 75 l 1,6,-1
 229 21 l 2,7,8
 229 10 229 10 221.5 2.5 c 128,-1,9
 214 -5 214 -5 203 -5 c 256,10,11
 192 -5 192 -5 185 2.5 c 128,-1,12
 178 10 178 10 178 21 c 2,13,-1
 178 75 l 1,14,-1
 56 75 l 2,15,16
 45 75 45 75 36.5 83 c 128,-1,17
 28 91 28 91 28 103 c 0,18,19
 28 112 28 112 35 122 c 2,20,-1
 177 304 l 2,21,22
 185 315 185 315 201 315 c 0,23,24
 213 315 213 315 221 307 c 128,-1,25
 229 299 229 299 229 287 c 2,26,-1
 229 122 l 1,27,-1
 262 122 l 2,28,0
 273 122 273 122 279.5 115.5 c 128,-1,1
178 122 m 1,29,-1
 178 231 l 1,30,-1
 91 122 l 1,31,-1
 178 122 l 1,29,-1
EndSplineSet
Validated: 1
EndChar

StartChar: five.dnom
Encoding: 65584 -1 553
Width: 324
Flags: W
LayerCount: 2
Fore
SplineSet
246 179 m 128,-1,1
 273 151 273 151 273 105 c 0,2,3
 273 51 273 51 239.5 20.5 c 128,-1,4
 206 -10 206 -10 150 -10 c 0,5,6
 128 -10 128 -10 103.5 0 c 128,-1,7
 79 10 79 10 61 27 c 0,8,9
 50 38 50 38 50 51 c 0,10,11
 50 61 50 61 56 68 c 128,-1,12
 62 75 62 75 73 75 c 0,13,14
 83 75 83 75 91 68 c 0,15,16
 120 39 120 39 153 39 c 0,17,18
 183 39 183 39 201.5 56 c 128,-1,19
 220 73 220 73 220 100 c 0,20,21
 220 125 220 125 203.5 142.5 c 128,-1,22
 187 160 187 160 160 160 c 0,23,24
 145 160 145 160 134 154.5 c 128,-1,25
 123 149 123 149 112 140 c 0,26,27
 97 129 97 129 90 129 c 0,28,29
 76 129 76 129 69 137.5 c 128,-1,30
 62 146 62 146 64 158 c 2,31,-1
 88 290 l 2,32,33
 92 309 92 309 113 309 c 2,34,-1
 241 309 l 2,35,36
 252 309 252 309 259.5 301.5 c 128,-1,37
 267 294 267 294 267 284 c 0,38,39
 267 273 267 273 259.5 266 c 128,-1,40
 252 259 252 259 241 259 c 2,41,-1
 130 259 l 1,42,-1
 120 195 l 1,43,44
 140 207 140 207 175 207 c 0,45,0
 219 207 219 207 246 179 c 128,-1,1
EndSplineSet
Validated: 1
EndChar

StartChar: six.dnom
Encoding: 65585 -1 554
Width: 278
Flags: W
LayerCount: 2
Fore
SplineSet
222 165.5 m 128,-1,1
 248 136 248 136 248 94 c 0,2,3
 248 50 248 50 216.5 19.5 c 128,-1,4
 185 -11 185 -11 140 -11 c 0,5,6
 87 -11 87 -11 58.5 24.5 c 128,-1,7
 30 60 30 60 30 109 c 256,8,9
 30 158 30 158 57 208 c 128,-1,10
 84 258 84 258 124 291 c 128,-1,11
 164 324 164 324 198 324 c 0,12,13
 238 324 238 324 238 297 c 0,14,15
 238 273 238 273 210 273 c 1,16,17
 176 265 176 265 147 240.5 c 128,-1,18
 118 216 118 216 104 181 c 1,19,20
 126 195 126 195 150 195 c 0,21,0
 196 195 196 195 222 165.5 c 128,-1,1
177.5 52 m 128,-1,23
 194 67 194 67 194 90 c 0,24,25
 194 114 194 114 180 131 c 128,-1,26
 166 148 166 148 143 148 c 0,27,28
 116 148 116 148 99.5 131.5 c 128,-1,29
 83 115 83 115 83 92 c 0,30,31
 83 68 83 68 98 52.5 c 128,-1,32
 113 37 113 37 139 37 c 0,33,22
 161 37 161 37 177.5 52 c 128,-1,23
EndSplineSet
Validated: 1
EndChar

StartChar: seven.dnom
Encoding: 65586 -1 555
Width: 291
Flags: W
LayerCount: 2
Fore
SplineSet
251 301 m 128,-1,1
 259 292 259 292 259 281 c 0,2,3
 259 274 259 274 256 268 c 2,4,-1
 139 12 l 2,5,6
 136 3 136 3 128.5 -2.5 c 128,-1,7
 121 -8 121 -8 112 -8 c 0,8,9
 102 -8 102 -8 94.5 -1.5 c 128,-1,10
 87 5 87 5 87 16 c 0,11,12
 87 20 87 20 91 30 c 2,13,-1
 198 262 l 1,14,-1
 67 262 l 2,15,16
 56 262 56 262 48.5 268.5 c 128,-1,17
 41 275 41 275 41 286 c 256,18,19
 41 297 41 297 48.5 303.5 c 128,-1,20
 56 310 56 310 67 310 c 2,21,-1
 230 310 l 2,22,0
 243 310 243 310 251 301 c 128,-1,1
EndSplineSet
Validated: 1
EndChar

StartChar: eight.dnom
Encoding: 65587 -1 556
Width: 302
Flags: W
LayerCount: 2
Fore
SplineSet
249 131.5 m 128,-1,1
 266 110 266 110 266 84 c 0,2,3
 266 45 266 45 232.5 17 c 128,-1,4
 199 -11 199 -11 151 -11 c 256,5,6
 103 -11 103 -11 69 17 c 128,-1,7
 35 45 35 45 35 84 c 0,8,9
 35 111 35 111 52 131.5 c 128,-1,10
 69 152 69 152 95 164 c 1,11,12
 73 175 73 175 58.5 194 c 128,-1,13
 44 213 44 213 44 237 c 0,14,15
 44 274 44 274 75 299.5 c 128,-1,16
 106 325 106 325 151 325 c 0,17,18
 195 325 195 325 226 299.5 c 128,-1,19
 257 274 257 274 257 237 c 0,20,21
 257 212 257 212 242.5 193.5 c 128,-1,22
 228 175 228 175 206 165 c 1,23,0
 232 153 232 153 249 131.5 c 128,-1,1
111.5 266 m 128,-1,25
 96 253 96 253 96 232 c 256,26,27
 96 211 96 211 112 198 c 128,-1,28
 128 185 128 185 151 185 c 0,29,30
 172 185 172 185 188.5 198 c 128,-1,31
 205 211 205 211 205 232 c 256,32,33
 205 253 205 253 189.5 266 c 128,-1,34
 174 279 174 279 151 279 c 0,35,24
 127 279 127 279 111.5 266 c 128,-1,25
194.5 51 m 128,-1,37
 212 67 212 67 212 91 c 0,38,39
 212 113 212 113 193.5 126.5 c 128,-1,40
 175 140 175 140 151 140 c 0,41,42
 126 140 126 140 108 126.5 c 128,-1,43
 90 113 90 113 90 91 c 0,44,45
 90 67 90 67 107.5 51 c 128,-1,46
 125 35 125 35 151 35 c 256,47,36
 177 35 177 35 194.5 51 c 128,-1,37
EndSplineSet
Validated: 1
EndChar

StartChar: nine.dnom
Encoding: 65588 -1 557
Width: 300
Flags: W
LayerCount: 2
Fore
SplineSet
234 289 m 128,-1,1
 263 254 263 254 263 205 c 256,2,3
 263 156 263 156 235.5 105.5 c 128,-1,4
 208 55 208 55 168 22 c 128,-1,5
 128 -11 128 -11 94 -11 c 0,6,7
 55 -11 55 -11 55 16 c 0,8,9
 55 40 55 40 83 41 c 1,10,11
 117 49 117 49 146 74 c 128,-1,12
 175 99 175 99 189 133 c 1,13,14
 167 119 167 119 143 119 c 0,15,16
 97 119 97 119 71 148 c 128,-1,17
 45 177 45 177 45 219 c 0,18,19
 45 263 45 263 76.5 293.5 c 128,-1,20
 108 324 108 324 153 324 c 0,21,0
 205 324 205 324 234 289 c 128,-1,1
112.5 182.5 m 128,-1,23
 126 166 126 166 150 166 c 0,24,25
 177 166 177 166 193.5 182.5 c 128,-1,26
 210 199 210 199 210 221 c 0,27,28
 210 245 210 245 195 261 c 128,-1,29
 180 277 180 277 154 277 c 0,30,31
 132 277 132 277 115.5 261.5 c 128,-1,32
 99 246 99 246 99 223 c 0,33,22
 99 199 99 199 112.5 182.5 c 128,-1,23
EndSplineSet
Validated: 1
EndChar

StartChar: fraction
Encoding: 8260 8260 578
Width: 530
Flags: W
LayerCount: 2
Fore
SplineSet
32 4.5 m 128,-1,1
 24 12 24 12 24 24 c 0,2,3
 24 32 24 32 29 40 c 2,4,-1
 457 690 l 2,5,6
 461 696 461 696 467 699.5 c 128,-1,7
 473 703 473 703 479 703 c 0,8,9
 490 703 490 703 498.5 695.5 c 128,-1,10
 507 688 507 688 507 676 c 0,11,12
 507 668 507 668 502 660 c 2,13,-1
 74 10 l 2,14,15
 64 -3 64 -3 52 -3 c 256,16,0
 40 -3 40 -3 32 4.5 c 128,-1,1
EndSplineSet
Validated: 1
EndChar

StartChar: asterisk
Encoding: 42 42 586
Width: 309
Flags: W
LayerCount: 2
Fore
SplineSet
138 407 m 128,-1,1
 132 414 132 414 133 425 c 2,2,-1
 140 518 l 2,3,4
 141 521 141 521 139 522.5 c 128,-1,5
 137 524 137 524 135 522 c 2,6,-1
 57 468 l 2,7,8
 50 464 50 464 43 464 c 0,9,10
 30 464 30 464 24 475 c 0,11,12
 20 483 20 483 20 487 c 0,13,14
 20 500 20 500 35 508 c 2,15,-1
 121 548 l 2,16,17
 124 549 124 549 124 551 c 128,-1,18
 124 553 124 553 121 554 c 2,19,-1
 35 595 l 2,20,21
 21 601 21 601 21 616 c 0,22,23
 21 622 21 622 24 628 c 0,24,25
 30 639 30 639 43 639 c 0,26,27
 50 639 50 639 57 635 c 2,28,-1
 135 581 l 2,29,30
 137 579 137 579 139 580 c 128,-1,31
 141 581 141 581 140 584 c 2,32,-1
 133 677 l 2,33,34
 132 688 132 688 139 695 c 128,-1,35
 146 702 146 702 156 702 c 256,36,37
 166 702 166 702 172 695 c 128,-1,38
 178 688 178 688 177 677 c 2,39,-1
 170 584 l 2,40,41
 169 581 169 581 171 580 c 128,-1,42
 173 579 173 579 176 581 c 2,43,-1
 253 634 l 2,44,45
 260 639 260 639 267 639 c 0,46,47
 281 639 281 639 287 627 c 0,48,49
 290 621 290 621 290 615 c 0,50,51
 290 601 290 601 275 595 c 2,52,-1
 190 554 l 2,53,54
 187 553 187 553 187 551 c 128,-1,55
 187 549 187 549 190 548 c 2,56,-1
 275 508 l 2,57,58
 290 501 290 501 290 486 c 0,59,60
 290 481 290 481 287 475 c 0,61,62
 281 464 281 464 267 464 c 0,63,64
 260 464 260 464 253 468 c 2,65,-1
 176 522 l 2,66,67
 173 524 173 524 171 522.5 c 128,-1,68
 169 521 169 521 170 518 c 2,69,-1
 177 425 l 2,70,71
 178 414 178 414 171 407 c 128,-1,72
 164 400 164 400 154 400 c 256,73,0
 144 400 144 400 138 407 c 128,-1,1
EndSplineSet
Validated: 1
EndChar

StartChar: backslash
Encoding: 92 92 587
Width: 523
Flags: W
LayerCount: 2
Fore
SplineSet
456 -112 m 2,1,-1
 15 762 l 2,2,3
 11 770 11 770 11 778 c 0,4,5
 11 788 11 788 19 795.5 c 128,-1,6
 27 803 27 803 38 803 c 0,7,8
 52 803 52 803 58.5 798 c 128,-1,9
 65 793 65 793 70 781 c 2,10,-1
 512 -93 l 2,11,12
 515 -101 515 -101 515 -108 c 0,13,14
 515 -119 515 -119 506.5 -126 c 128,-1,15
 498 -133 498 -133 487 -133 c 0,16,0
 467 -133 467 -133 456 -112 c 2,1,-1
EndSplineSet
Validated: 1
Substitution2: "'case' Case-Sensitive Forms lookup 14 subtable" backslash.case
EndChar

StartChar: periodcentered
Encoding: 183 183 588
Width: 195
Flags: W
LayerCount: 2
Fore
SplineSet
66.5 261.5 m 128,-1,1
 56 272 56 272 56 289 c 2,2,-1
 56 311 l 2,3,4
 56 328 56 328 66.5 338.5 c 128,-1,5
 77 349 77 349 94 349 c 2,6,-1
 101 349 l 2,7,8
 118 349 118 349 128.5 338.5 c 128,-1,9
 139 328 139 328 139 311 c 2,10,-1
 139 289 l 2,11,12
 139 272 139 272 128.5 261.5 c 128,-1,13
 118 251 118 251 101 251 c 2,14,-1
 94 251 l 2,15,0
 77 251 77 251 66.5 261.5 c 128,-1,1
EndSplineSet
Validated: 1
Substitution2: "Single Substitution lookup 20 subtable" periodcentered.loclCAT.case
Substitution2: "Single Substitution lookup 19 subtable" periodcentered.loclCAT
Substitution2: "'case' Case-Sensitive Forms lookup 14 subtable" periodcentered.case
EndChar

StartChar: bullet
Encoding: 8226 8226 589
Width: 342
Flags: W
LayerCount: 2
Fore
SplineSet
107.5 241 m 128,-1,1
 78 258 78 258 60.5 287.5 c 128,-1,2
 43 317 43 317 43 352 c 256,3,4
 43 387 43 387 60.5 416.5 c 128,-1,5
 78 446 78 446 107.5 463 c 128,-1,6
 137 480 137 480 171 480 c 0,7,8
 206 480 206 480 235.5 463 c 128,-1,9
 265 446 265 446 282.5 416.5 c 128,-1,10
 300 387 300 387 300 352 c 256,11,12
 300 317 300 317 282.5 287.5 c 128,-1,13
 265 258 265 258 235.5 241 c 128,-1,14
 206 224 206 224 171 224 c 0,15,0
 137 224 137 224 107.5 241 c 128,-1,1
EndSplineSet
Validated: 1
Substitution2: "'case' Case-Sensitive Forms lookup 14 subtable" bullet.case
EndChar

StartChar: colon
Encoding: 58 58 590
Width: 187
Flags: W
LayerCount: 2
Fore
SplineSet
64 427 m 128,-1,1
 55 437 55 437 55 455 c 2,2,-1
 55 476 l 2,3,4
 55 494 55 494 64 504.5 c 128,-1,5
 73 515 73 515 90 515 c 2,6,-1
 97 515 l 2,7,8
 114 515 114 515 123 504.5 c 128,-1,9
 132 494 132 494 132 476 c 2,10,-1
 132 455 l 2,11,12
 132 437 132 437 123 427 c 128,-1,13
 114 417 114 417 97 417 c 2,14,-1
 90 417 l 2,15,0
 73 417 73 417 64 427 c 128,-1,1
64 10 m 128,-1,17
 55 20 55 20 55 38 c 2,18,-1
 55 60 l 2,19,20
 55 78 55 78 64 88 c 128,-1,21
 73 98 73 98 90 98 c 2,22,-1
 97 98 l 2,23,24
 114 98 114 98 123 88 c 128,-1,25
 132 78 132 78 132 60 c 2,26,-1
 132 38 l 2,27,28
 132 20 132 20 123 10 c 128,-1,29
 114 0 114 0 97 0 c 2,30,-1
 90 0 l 2,31,16
 73 0 73 0 64 10 c 128,-1,17
EndSplineSet
Validated: 1
EndChar

StartChar: comma
Encoding: 44 44 591
Width: 194
Flags: W
LayerCount: 2
Fore
SplineSet
141.5 -53.5 m 128,-1,1
 127 -82 127 -82 105 -100.5 c 128,-1,2
 83 -119 83 -119 62 -119 c 0,3,4
 51 -119 51 -119 43.5 -113.5 c 128,-1,5
 36 -108 36 -108 36 -97 c 0,6,7
 36 -87 36 -87 41 -83 c 128,-1,8
 46 -79 46 -79 56.5 -76 c 128,-1,9
 67 -73 67 -73 72 -70 c 0,10,11
 86 -63 86 -63 93.5 -49.5 c 128,-1,12
 101 -36 101 -36 101 -20 c 0,13,14
 101 -9 101 -9 95 -2 c 128,-1,15
 89 5 89 5 79 5 c 0,16,17
 63 5 63 5 52 -4 c 1,18,19
 40 6 40 6 40 20 c 0,20,21
 40 38 40 38 58 51.5 c 128,-1,22
 76 65 76 65 97 65 c 0,23,24
 123 65 123 65 139.5 48.5 c 128,-1,25
 156 32 156 32 156 3 c 0,26,0
 156 -25 156 -25 141.5 -53.5 c 128,-1,1
EndSplineSet
Validated: 1
EndChar

StartChar: exclam
Encoding: 33 33 593
Width: 185
Flags: W
LayerCount: 2
Fore
SplineSet
72 217 m 2,1,-1
 61 659 l 2,2,3
 61 678 61 678 69 689 c 128,-1,4
 77 700 77 700 93 700 c 256,5,6
 109 700 109 700 117 688.5 c 128,-1,7
 125 677 125 677 124 659 c 2,8,-1
 113 217 l 2,9,10
 112 196 112 196 93 196 c 0,11,0
 75 196 75 196 72 217 c 2,1,-1
63 10 m 128,-1,13
 54 20 54 20 54 38 c 2,14,-1
 54 60 l 2,15,16
 54 78 54 78 63 88 c 128,-1,17
 72 98 72 98 90 98 c 2,18,-1
 96 98 l 2,19,20
 113 98 113 98 122 88 c 128,-1,21
 131 78 131 78 131 60 c 2,22,-1
 131 38 l 2,23,24
 131 20 131 20 122 10 c 128,-1,25
 113 0 113 0 96 0 c 2,26,-1
 90 0 l 2,27,12
 72 0 72 0 63 10 c 128,-1,13
EndSplineSet
Validated: 1
EndChar

StartChar: exclamdown
Encoding: 161 161 594
Width: 185
Flags: W
LayerCount: 2
Fore
SplineSet
122 501 m 128,-1,1
 131 491 131 491 131 473 c 2,2,-1
 131 451 l 2,3,4
 131 433 131 433 122 423 c 128,-1,5
 113 413 113 413 96 413 c 2,6,-1
 90 413 l 2,7,8
 72 413 72 413 63 423 c 128,-1,9
 54 433 54 433 54 451 c 2,10,-1
 54 473 l 2,11,12
 54 491 54 491 63 501 c 128,-1,13
 72 511 72 511 90 511 c 2,14,-1
 96 511 l 2,15,0
 113 511 113 511 122 501 c 128,-1,1
113 294 m 2,17,-1
 124 -148 l 2,18,19
 125 -166 125 -166 117 -177.5 c 128,-1,20
 109 -189 109 -189 93 -189 c 256,21,22
 77 -189 77 -189 69 -177.5 c 128,-1,23
 61 -166 61 -166 62 -148 c 2,24,-1
 72 294 l 2,25,26
 75 316 75 316 93 316 c 0,27,16
 112 316 112 316 113 294 c 2,17,-1
EndSplineSet
Validated: 1
EndChar

StartChar: numbersign
Encoding: 35 35 595
Width: 654
Flags: W
LayerCount: 2
Fore
SplineSet
621 514.5 m 128,-1,1
 630 505 630 505 630 491 c 0,2,3
 630 478 630 478 621 470 c 128,-1,4
 612 462 612 462 598 462 c 2,5,-1
 507 462 l 1,6,-1
 469 242 l 1,7,-1
 559 242 l 2,8,9
 573 242 573 242 582 233 c 128,-1,10
 591 224 591 224 591 210 c 0,11,12
 591 197 591 197 582 189 c 128,-1,13
 573 181 573 181 559 181 c 2,14,-1
 459 181 l 1,15,-1
 432 26 l 2,16,17
 430 14 430 14 422 7 c 128,-1,18
 414 0 414 0 402 0 c 0,19,20
 389 0 389 0 380 9.5 c 128,-1,21
 371 19 371 19 371 33 c 2,22,-1
 372 41 l 1,23,-1
 396 181 l 1,24,-1
 200 181 l 1,25,-1
 173 26 l 2,26,27
 172 14 172 14 163.5 7 c 128,-1,28
 155 0 155 0 143 0 c 0,29,30
 130 0 130 0 121 9.5 c 128,-1,31
 112 19 112 19 112 33 c 2,32,-1
 113 41 l 1,33,-1
 137 181 l 1,34,-1
 56 181 l 2,35,36
 43 181 43 181 33.5 190.5 c 128,-1,37
 24 200 24 200 24 213 c 256,38,39
 24 226 24 226 33 234 c 128,-1,40
 42 242 42 242 56 242 c 2,41,-1
 148 242 l 1,42,-1
 185 462 l 1,43,-1
 96 462 l 2,44,45
 82 462 82 462 72.5 471.5 c 128,-1,46
 63 481 63 481 63 495 c 0,47,48
 63 508 63 508 72.5 516 c 128,-1,49
 82 524 82 524 96 524 c 2,50,-1
 196 524 l 1,51,-1
 222 674 l 2,52,53
 224 686 224 686 232.5 693 c 128,-1,54
 241 700 241 700 252 700 c 0,55,56
 268 700 268 700 276.5 688.5 c 128,-1,57
 285 677 285 677 282 660 c 2,58,-1
 259 524 l 1,59,-1
 455 524 l 1,60,-1
 481 674 l 2,61,62
 483 686 483 686 491 693 c 128,-1,63
 499 700 499 700 511 700 c 0,64,65
 527 700 527 700 535.5 688.5 c 128,-1,66
 544 677 544 677 541 660 c 2,67,-1
 518 524 l 1,68,-1
 598 524 l 2,69,0
 612 524 612 524 621 514.5 c 128,-1,1
444 462 m 1,70,-1
 248 462 l 1,71,-1
 210 242 l 1,72,-1
 407 242 l 1,73,-1
 444 462 l 1,70,-1
EndSplineSet
Validated: 1
EndChar

StartChar: period
Encoding: 46 46 596
Width: 181
Flags: W
LayerCount: 2
Fore
SplineSet
61 10.5 m 128,-1,1
 52 21 52 21 52 39 c 2,2,-1
 52 60 l 2,3,4
 52 78 52 78 61 88 c 128,-1,5
 70 98 70 98 87 98 c 2,6,-1
 94 98 l 2,7,8
 111 98 111 98 120 88 c 128,-1,9
 129 78 129 78 129 60 c 2,10,-1
 129 39 l 2,11,12
 129 21 129 21 120 10.5 c 128,-1,13
 111 0 111 0 94 0 c 2,14,-1
 87 0 l 2,15,0
 70 0 70 0 61 10.5 c 128,-1,1
EndSplineSet
Validated: 1
EndChar

StartChar: question
Encoding: 63 63 597
Width: 485
Flags: W
LayerCount: 2
Fore
SplineSet
349.5 710 m 128,-1,1
 397 684 397 684 425 635.5 c 128,-1,2
 453 587 453 587 453 523 c 0,3,4
 453 472 453 472 427.5 426.5 c 128,-1,5
 402 381 402 381 357.5 351 c 128,-1,6
 313 321 313 321 260 316 c 1,7,-1
 260 217 l 2,8,9
 260 204 260 204 251.5 195.5 c 128,-1,10
 243 187 243 187 230 187 c 256,11,12
 217 187 217 187 208.5 195.5 c 128,-1,13
 200 204 200 204 201 217 c 2,14,-1
 201 336 l 2,15,16
 201 349 201 349 209.5 358 c 128,-1,17
 218 367 218 367 231 367 c 0,18,19
 300 371 300 371 345.5 414 c 128,-1,20
 391 457 391 457 391 523 c 0,21,22
 391 568 391 568 371.5 603.5 c 128,-1,23
 352 639 352 639 318.5 658.5 c 128,-1,24
 285 678 285 678 244 678 c 0,25,26
 204 678 204 678 168 659.5 c 128,-1,27
 132 641 132 641 107 609 c 0,28,29
 95 597 95 597 82 597 c 0,30,31
 72 597 72 597 66 602 c 0,32,33
 51 611 51 611 51 626 c 0,34,35
 51 636 51 636 59 646 c 0,36,37
 91 687 91 687 140 711.5 c 128,-1,38
 189 736 189 736 244 736 c 0,39,0
 302 736 302 736 349.5 710 c 128,-1,1
263 88 m 128,-1,41
 272 78 272 78 272 60 c 2,42,-1
 272 38 l 2,43,44
 272 20 272 20 263 10 c 128,-1,45
 254 0 254 0 237 0 c 2,46,-1
 231 0 l 2,47,48
 213 0 213 0 204 10 c 128,-1,49
 195 20 195 20 195 38 c 2,50,-1
 195 60 l 2,51,52
 195 78 195 78 204 88 c 128,-1,53
 213 98 213 98 231 98 c 2,54,-1
 237 98 l 2,55,40
 254 98 254 98 263 88 c 128,-1,41
EndSplineSet
Validated: 1
EndChar

StartChar: questiondown
Encoding: 191 191 598
Width: 476
Flags: W
LayerCount: 2
Fore
SplineSet
235 461 m 128,-1,1
 226 471 226 471 226 489 c 2,2,-1
 226 511 l 2,3,4
 226 529 226 529 235 539 c 128,-1,5
 244 549 244 549 261 549 c 2,6,-1
 267 549 l 2,7,8
 284 549 284 549 293 539 c 128,-1,9
 302 529 302 529 302 511 c 2,10,-1
 302 489 l 2,11,12
 302 471 302 471 293 461 c 128,-1,13
 284 451 284 451 267 451 c 2,14,-1
 261 451 l 2,15,0
 244 451 244 451 235 461 c 128,-1,1
446 -77 m 0,17,18
 446 -87 446 -87 438 -97 c 0,19,20
 406 -138 406 -138 357 -162.5 c 128,-1,21
 308 -187 308 -187 253 -187 c 0,22,23
 196 -187 196 -187 148.5 -161 c 128,-1,24
 101 -135 101 -135 73 -86.5 c 128,-1,25
 45 -38 45 -38 45 26 c 0,26,27
 45 77 45 77 70.5 123 c 128,-1,28
 96 169 96 169 140.5 198.5 c 128,-1,29
 185 228 185 228 238 233 c 1,30,-1
 238 332 l 2,31,32
 238 345 238 345 246 354 c 128,-1,33
 254 363 254 363 267 363 c 256,34,35
 280 363 280 363 288.5 354 c 128,-1,36
 297 345 297 345 297 332 c 2,37,-1
 297 213 l 2,38,39
 297 200 297 200 288.5 191.5 c 128,-1,40
 280 183 280 183 267 183 c 0,41,42
 198 178 198 178 152.5 135 c 128,-1,43
 107 92 107 92 107 26 c 0,44,45
 107 -19 107 -19 126.5 -54.5 c 128,-1,46
 146 -90 146 -90 179 -109.5 c 128,-1,47
 212 -129 212 -129 253 -129 c 256,48,49
 294 -129 294 -129 330 -110.5 c 128,-1,50
 366 -92 366 -92 391 -60 c 0,51,52
 401 -48 401 -48 415 -48 c 0,53,54
 425 -48 425 -48 431 -53 c 0,55,16
 446 -62 446 -62 446 -77 c 0,17,18
EndSplineSet
Validated: 1
EndChar

StartChar: quotedbl
Encoding: 34 34 599
Width: 383
Flags: W
LayerCount: 2
Fore
SplineSet
99 700 m 2,1,-1
 131 700 l 2,2,3
 150 700 150 700 150 683 c 0,4,5
 150 680 150 680 148 672 c 2,6,-1
 85 456 l 2,7,8
 79 435 79 435 57 435 c 0,9,10
 50 435 50 435 46.5 442 c 128,-1,11
 43 449 43 449 44 461 c 2,12,-1
 70 674 l 2,13,0
 73 700 73 700 99 700 c 2,1,-1
289 700 m 2,15,-1
 321 700 l 2,16,17
 340 699 340 699 340 683 c 0,18,19
 340 680 340 680 338 672 c 2,20,-1
 275 456 l 2,21,22
 268 435 268 435 247 435 c 0,23,24
 231 435 231 435 234 461 c 2,25,-1
 260 674 l 2,26,14
 263 700 263 700 289 700 c 2,15,-1
EndSplineSet
Validated: 1
EndChar

StartChar: quotesingle
Encoding: 39 39 600
Width: 193
Flags: W
LayerCount: 2
Fore
SplineSet
99 700 m 2,1,-1
 132 700 l 2,2,3
 151 698 151 698 151 682 c 0,4,5
 151 680 151 680 149 672 c 2,6,-1
 85 456 l 2,7,8
 79 435 79 435 57 435 c 0,9,10
 50 435 50 435 46.5 442 c 128,-1,11
 43 449 43 449 44 461 c 2,12,-1
 70 674 l 2,13,0
 73 700 73 700 99 700 c 2,1,-1
EndSplineSet
Validated: 1
EndChar

StartChar: semicolon
Encoding: 59 59 601
Width: 199
Flags: W
LayerCount: 2
Fore
SplineSet
81.5 427.5 m 128,-1,1
 71 438 71 438 71 455 c 2,2,-1
 71 476 l 2,3,4
 71 494 71 494 81.5 504.5 c 128,-1,5
 92 515 92 515 110 515 c 2,6,-1
 116 515 l 2,7,8
 133 515 133 515 143.5 504.5 c 128,-1,9
 154 494 154 494 154 476 c 2,10,-1
 154 455 l 2,11,12
 154 438 154 438 143.5 427.5 c 128,-1,13
 133 417 133 417 116 417 c 2,14,-1
 110 417 l 2,15,0
 92 417 92 417 81.5 427.5 c 128,-1,1
149.5 -53.5 m 128,-1,17
 135 -82 135 -82 113 -100.5 c 128,-1,18
 91 -119 91 -119 70 -119 c 0,19,20
 59 -119 59 -119 51.5 -113.5 c 128,-1,21
 44 -108 44 -108 44 -97 c 0,22,23
 44 -87 44 -87 49 -83 c 128,-1,24
 54 -79 54 -79 64.5 -76 c 128,-1,25
 75 -73 75 -73 80 -70 c 0,26,27
 94 -63 94 -63 101.5 -49.5 c 128,-1,28
 109 -36 109 -36 109 -20 c 0,29,30
 109 -9 109 -9 103 -2 c 128,-1,31
 97 5 97 5 87 5 c 0,32,33
 71 5 71 5 60 -4 c 1,34,35
 48 6 48 6 48 20 c 0,36,37
 48 38 48 38 66 51.5 c 128,-1,38
 84 65 84 65 105 65 c 0,39,40
 131 65 131 65 147.5 48.5 c 128,-1,41
 164 32 164 32 164 3 c 0,42,16
 164 -25 164 -25 149.5 -53.5 c 128,-1,17
EndSplineSet
Validated: 1
EndChar

StartChar: slash
Encoding: 47 47 602
Width: 522
Flags: W
LayerCount: 2
Fore
SplineSet
16 -121.5 m 128,-1,1
 8 -113 8 -113 8 -101 c 0,2,3
 8 -93 8 -93 12 -86 c 2,4,-1
 447 775 l 2,5,6
 454 788 454 788 461.5 793.5 c 128,-1,7
 469 799 469 799 480 799 c 0,8,9
 490 799 490 799 498 791.5 c 128,-1,10
 506 784 506 784 506 772 c 0,11,12
 506 763 506 763 502 754 c 2,13,-1
 67 -108 l 2,14,15
 60 -120 60 -120 53 -125 c 128,-1,16
 46 -130 46 -130 36 -130 c 0,17,0
 24 -130 24 -130 16 -121.5 c 128,-1,1
EndSplineSet
Validated: 1
Substitution2: "'case' Case-Sensitive Forms lookup 14 subtable" slash.case
Substitution2: "'frac' Diagonal Fractions lookup 9 subtable" fraction
EndChar

